STARTFONT 2.1
COMMENT
COMMENT Converted from OpenType font "IBMPlexSans-Medium.ttf" by "otf2bdf 3.0".
COMMENT
FONT -FreeType-IBM Plex Sans Medm-Medium-R-Normal--18-180-72-72-P-94-ISO10646-1
SIZE 18 72 72
FONTBOUNDINGBOX 27 27 -4 -5
STARTPROPERTIES 19
FOUNDRY "FreeType"
FAMILY_NAME "IBM Plex Sans Medm"
WEIGHT_NAME "Medium"
SLANT "R"
SETWIDTH_NAME "Normal"
ADD_STYLE_NAME ""
PIXEL_SIZE 18
POINT_SIZE 180
RESOLUTION_X 72
RESOLUTION_Y 72
SPACING "P"
AVERAGE_WIDTH 94
CHARSET_REGISTRY "ISO10646"
CHARSET_ENCODING "1"
FONT_ASCENT 18
FONT_DESCENT 4
COPYRIGHT "Copyright 2018 IBM Corp. All rights reserved."
_OTF_FONTFILE "IBMPlexSans-Medium.ttf"
_OTF_PSNAME "IBMPlexSans-Medm"
ENDPROPERTIES
CHARS 844
STARTCHAR 0000
ENCODING 0
SWIDTH 0 0
DWIDTH 0 0
BBX 0 0 0 0
BITMAP
ENDCHAR
STARTCHAR 000D
ENCODING 13
SWIDTH 222 0
DWIDTH 4 0
BBX 0 0 0 0
BITMAP
ENDCHAR
STARTCHAR 0020
ENCODING 32
SWIDTH 222 0
DWIDTH 4 0
BBX 0 0 0 0
BITMAP
ENDCHAR
STARTCHAR 0021
ENCODING 33
SWIDTH 277 0
DWIDTH 5 0
BBX 3 13 1 0
BITMAP
60
60
60
60
60
60
40
40
40
00
60
E0
60
ENDCHAR
STARTCHAR 0022
ENCODING 34
SWIDTH 444 0
DWIDTH 8 0
BBX 6 5 1 8
BITMAP
CC
CC
CC
CC
CC
ENDCHAR
STARTCHAR 0023
ENCODING 35
SWIDTH 666 0
DWIDTH 12 0
BBX 10 13 1 0
BITMAP
1880
1980
1180
1100
FFC0
3100
3100
2300
FFC0
2200
2200
6200
6600
ENDCHAR
STARTCHAR 0024
ENCODING 36
SWIDTH 611 0
DWIDTH 11 0
BBX 9 17 1 -2
BITMAP
0800
0800
3E00
7F00
CB80
C800
C800
7C00
3F00
0F80
0980
8980
CB80
7F00
3E00
0800
0800
ENDCHAR
STARTCHAR 0025
ENCODING 37
SWIDTH 944 0
DWIDTH 17 0
BBX 15 13 1 0
BITMAP
7818
CC30
CC60
CC40
CCC0
CD80
793C
0366
0666
0466
0C66
1866
303C
ENDCHAR
STARTCHAR 0026
ENCODING 38
SWIDTH 722 0
DWIDTH 13 0
BBX 11 13 1 0
BITMAP
1E00
3F00
6300
6300
3600
3C00
3CE0
6EE0
C7C0
C380
E380
7FC0
3C60
ENDCHAR
STARTCHAR 0027
ENCODING 39
SWIDTH 277 0
DWIDTH 5 0
BBX 2 5 1 8
BITMAP
C0
C0
C0
C0
C0
ENDCHAR
STARTCHAR 0028
ENCODING 40
SWIDTH 333 0
DWIDTH 6 0
BBX 5 16 1 -2
BITMAP
18
30
60
60
40
C0
C0
C0
C0
C0
C0
40
60
60
30
18
ENDCHAR
STARTCHAR 0029
ENCODING 41
SWIDTH 333 0
DWIDTH 6 0
BBX 5 16 0 -2
BITMAP
C0
60
30
30
10
18
18
18
18
18
18
10
30
30
60
C0
ENDCHAR
STARTCHAR 002A
ENCODING 42
SWIDTH 500 0
DWIDTH 9 0
BBX 8 8 1 5
BITMAP
10
10
D2
FF
38
2C
66
48
ENDCHAR
STARTCHAR 002B
ENCODING 43
SWIDTH 611 0
DWIDTH 11 0
BBX 9 10 1 1
BITMAP
0800
0800
0800
0800
FF80
FF80
0800
0800
0800
0800
ENDCHAR
STARTCHAR 002C
ENCODING 44
SWIDTH 277 0
DWIDTH 5 0
BBX 3 5 1 -2
BITMAP
60
E0
60
40
C0
ENDCHAR
STARTCHAR 002D
ENCODING 45
SWIDTH 388 0
DWIDTH 7 0
BBX 5 2 1 4
BITMAP
F8
F8
ENDCHAR
STARTCHAR 002E
ENCODING 46
SWIDTH 277 0
DWIDTH 5 0
BBX 3 3 1 0
BITMAP
60
E0
60
ENDCHAR
STARTCHAR 002F
ENCODING 47
SWIDTH 444 0
DWIDTH 8 0
BBX 7 16 0 -3
BITMAP
06
04
0C
0C
08
18
18
10
30
30
30
20
60
60
40
C0
ENDCHAR
STARTCHAR 0030
ENCODING 48
SWIDTH 611 0
DWIDTH 11 0
BBX 9 13 1 0
BITMAP
3E00
7F00
6300
C180
C180
C180
C180
C180
C180
C180
6300
7F00
3E00
ENDCHAR
STARTCHAR 0031
ENCODING 49
SWIDTH 611 0
DWIDTH 11 0
BBX 9 13 1 0
BITMAP
3C00
7C00
EC00
CC00
8C00
0C00
0C00
0C00
0C00
0C00
0C00
7F80
7F80
ENDCHAR
STARTCHAR 0032
ENCODING 50
SWIDTH 611 0
DWIDTH 11 0
BBX 9 13 1 0
BITMAP
3E00
7F00
E300
4300
0300
0300
0600
0E00
1C00
3000
6000
FF80
FF80
ENDCHAR
STARTCHAR 0033
ENCODING 51
SWIDTH 611 0
DWIDTH 11 0
BBX 8 13 1 0
BITMAP
3C
7F
C3
83
03
3E
3E
03
03
83
C3
FF
3C
ENDCHAR
STARTCHAR 0034
ENCODING 52
SWIDTH 611 0
DWIDTH 11 0
BBX 9 13 1 0
BITMAP
0E00
0E00
1E00
3600
3600
6600
4600
C600
FF80
FF80
0600
0600
0600
ENDCHAR
STARTCHAR 0035
ENCODING 53
SWIDTH 611 0
DWIDTH 11 0
BBX 9 13 1 0
BITMAP
7F00
7F00
6000
4000
4000
5E00
5F00
6380
0180
0180
E380
7F00
3E00
ENDCHAR
STARTCHAR 0036
ENCODING 54
SWIDTH 611 0
DWIDTH 11 0
BBX 9 13 1 0
BITMAP
0E00
1800
3000
7000
6000
FE00
DF00
E380
C180
C180
E380
7F00
3E00
ENDCHAR
STARTCHAR 0037
ENCODING 55
SWIDTH 611 0
DWIDTH 11 0
BBX 9 13 1 0
BITMAP
FF80
FF80
C300
C300
C300
0600
0600
0C00
0C00
0C00
1800
1800
3000
ENDCHAR
STARTCHAR 0038
ENCODING 56
SWIDTH 611 0
DWIDTH 11 0
BBX 9 13 1 0
BITMAP
3E00
7F00
E300
C180
6300
3E00
7F00
E380
C180
C180
E380
7F00
3E00
ENDCHAR
STARTCHAR 0039
ENCODING 57
SWIDTH 611 0
DWIDTH 11 0
BBX 9 13 1 0
BITMAP
3E00
7F00
E300
C180
C180
E380
7D80
3B00
0300
0700
0E00
1C00
3800
ENDCHAR
STARTCHAR 003A
ENCODING 58
SWIDTH 333 0
DWIDTH 6 0
BBX 3 10 1 0
BITMAP
60
E0
60
00
00
00
00
60
E0
60
ENDCHAR
STARTCHAR 003B
ENCODING 59
SWIDTH 333 0
DWIDTH 6 0
BBX 3 12 1 -2
BITMAP
60
E0
60
00
00
00
00
60
E0
60
60
C0
ENDCHAR
STARTCHAR 003C
ENCODING 60
SWIDTH 611 0
DWIDTH 11 0
BBX 7 10 2 0
BITMAP
02
06
1C
70
C0
C0
70
1C
06
02
ENDCHAR
STARTCHAR 003D
ENCODING 61
SWIDTH 611 0
DWIDTH 11 0
BBX 9 5 1 3
BITMAP
FF80
FF80
0000
FF80
FF80
ENDCHAR
STARTCHAR 003E
ENCODING 62
SWIDTH 611 0
DWIDTH 11 0
BBX 7 10 2 0
BITMAP
80
C0
70
1C
0E
0E
1C
70
C0
80
ENDCHAR
STARTCHAR 003F
ENCODING 63
SWIDTH 500 0
DWIDTH 9 0
BBX 8 13 0 0
BITMAP
3E
7F
63
C3
03
07
1C
18
18
00
18
18
18
ENDCHAR
STARTCHAR 0040
ENCODING 64
SWIDTH 888 0
DWIDTH 16 0
BBX 14 14 1 -1
BITMAP
0FC0
1830
2018
4748
4CCC
C844
C844
C844
C84C
CCC8
4770
2000
3800
0FE0
ENDCHAR
STARTCHAR 0041
ENCODING 65
SWIDTH 666 0
DWIDTH 12 0
BBX 12 13 0 0
BITMAP
0600
0F00
0F00
0B00
1980
1980
1180
30C0
3FC0
3FC0
60E0
6060
E070
ENDCHAR
STARTCHAR 0042
ENCODING 66
SWIDTH 666 0
DWIDTH 12 0
BBX 9 13 2 0
BITMAP
FE00
FF00
C300
C300
C300
FE00
FF00
C380
C180
C180
C380
FF00
FE00
ENDCHAR
STARTCHAR 0043
ENCODING 67
SWIDTH 611 0
DWIDTH 11 0
BBX 10 13 1 0
BITMAP
1F00
3F80
6180
E0C0
C000
C000
C000
C000
C000
E080
61C0
3F80
1E00
ENDCHAR
STARTCHAR 0044
ENCODING 68
SWIDTH 666 0
DWIDTH 12 0
BBX 9 13 2 0
BITMAP
FC00
FF00
C300
C180
C180
C180
C180
C180
C180
C180
C300
FF00
FC00
ENDCHAR
STARTCHAR 0045
ENCODING 69
SWIDTH 611 0
DWIDTH 11 0
BBX 8 13 2 0
BITMAP
FF
FF
C0
C0
C0
FE
FE
C0
C0
C0
C0
FF
FF
ENDCHAR
STARTCHAR 0046
ENCODING 70
SWIDTH 555 0
DWIDTH 10 0
BBX 7 13 2 0
BITMAP
FE
FE
C0
C0
C0
FE
FE
C0
C0
C0
C0
C0
C0
ENDCHAR
STARTCHAR 0047
ENCODING 71
SWIDTH 722 0
DWIDTH 13 0
BBX 10 13 1 0
BITMAP
1F00
3F80
71C0
E080
C000
C000
C3C0
C3C0
C0C0
E0C0
71C0
3F40
1E40
ENDCHAR
STARTCHAR 0048
ENCODING 72
SWIDTH 722 0
DWIDTH 13 0
BBX 9 13 2 0
BITMAP
C180
C180
C180
C180
C180
FF80
FF80
C180
C180
C180
C180
C180
C180
ENDCHAR
STARTCHAR 0049
ENCODING 73
SWIDTH 388 0
DWIDTH 7 0
BBX 5 13 1 0
BITMAP
F8
F8
30
30
30
30
30
30
30
30
30
F8
F8
ENDCHAR
STARTCHAR 004A
ENCODING 74
SWIDTH 555 0
DWIDTH 10 0
BBX 8 13 0 0
BITMAP
3F
3F
03
03
03
03
03
03
03
43
E3
7E
3C
ENDCHAR
STARTCHAR 004B
ENCODING 75
SWIDTH 666 0
DWIDTH 12 0
BBX 10 13 2 0
BITMAP
C380
C300
C600
CC00
DC00
F800
F800
EC00
CE00
C600
C300
C380
C1C0
ENDCHAR
STARTCHAR 004C
ENCODING 76
SWIDTH 500 0
DWIDTH 9 0
BBX 7 13 2 0
BITMAP
C0
C0
C0
C0
C0
C0
C0
C0
C0
C0
C0
FE
FE
ENDCHAR
STARTCHAR 004D
ENCODING 77
SWIDTH 833 0
DWIDTH 15 0
BBX 11 13 2 0
BITMAP
C060
E0E0
E1E0
B1E0
B360
9B60
9E60
8E60
8460
8460
8060
8060
8060
ENDCHAR
STARTCHAR 004E
ENCODING 78
SWIDTH 722 0
DWIDTH 13 0
BBX 9 13 2 0
BITMAP
C180
E180
E180
B180
B180
9980
9980
8D80
8F80
8780
8380
8380
8180
ENDCHAR
STARTCHAR 004F
ENCODING 79
SWIDTH 722 0
DWIDTH 13 0
BBX 11 13 1 0
BITMAP
1F00
3F80
71C0
E0C0
C060
C060
C060
C060
C060
E0C0
71C0
3F80
1F00
ENDCHAR
STARTCHAR 0050
ENCODING 80
SWIDTH 611 0
DWIDTH 11 0
BBX 9 13 2 0
BITMAP
FE00
FF00
C300
C380
C380
C300
FF00
FE00
C000
C000
C000
C000
C000
ENDCHAR
STARTCHAR 0051
ENCODING 81
SWIDTH 722 0
DWIDTH 13 0
BBX 11 16 1 -3
BITMAP
1F00
3F80
71C0
E0C0
C060
C060
C060
C060
C060
E0C0
71C0
3F80
1F00
0400
0700
0700
ENDCHAR
STARTCHAR 0052
ENCODING 82
SWIDTH 666 0
DWIDTH 12 0
BBX 9 13 2 0
BITMAP
FE00
FF00
C300
C380
C380
C300
FF00
FE00
CE00
C600
C700
C300
C380
ENDCHAR
STARTCHAR 0053
ENCODING 83
SWIDTH 611 0
DWIDTH 11 0
BBX 9 13 1 0
BITMAP
3E00
7F00
E380
C000
C000
7C00
3F00
0780
0180
8180
C380
FF00
3E00
ENDCHAR
STARTCHAR 0054
ENCODING 84
SWIDTH 555 0
DWIDTH 10 0
BBX 10 13 0 0
BITMAP
FFC0
FFC0
0C00
0C00
0C00
0C00
0C00
0C00
0C00
0C00
0C00
0C00
0C00
ENDCHAR
STARTCHAR 0055
ENCODING 85
SWIDTH 666 0
DWIDTH 12 0
BBX 10 13 1 0
BITMAP
C0C0
C0C0
C0C0
C0C0
C0C0
C0C0
C0C0
C0C0
60C0
60C0
6180
7F80
1F00
ENDCHAR
STARTCHAR 0056
ENCODING 86
SWIDTH 611 0
DWIDTH 11 0
BBX 11 13 0 0
BITMAP
E060
60E0
60C0
70C0
30C0
3180
3180
1980
1B00
1B00
0F00
0E00
0E00
ENDCHAR
STARTCHAR 0057
ENCODING 87
SWIDTH 944 0
DWIDTH 17 0
BBX 16 13 0 0
BITMAP
E1C3
61C3
61C3
6342
6366
3366
3266
3624
362C
163C
1C3C
1C18
1C18
ENDCHAR
STARTCHAR 0058
ENCODING 88
SWIDTH 666 0
DWIDTH 12 0
BBX 11 13 0 0
BITMAP
60E0
70C0
3180
1980
1F00
0F00
0E00
0F00
1B00
1980
31C0
60C0
E0E0
ENDCHAR
STARTCHAR 0059
ENCODING 89
SWIDTH 611 0
DWIDTH 11 0
BBX 11 13 0 0
BITMAP
E0E0
60C0
31C0
3180
1B00
1B00
0E00
0E00
0600
0600
0600
0600
0600
ENDCHAR
STARTCHAR 005A
ENCODING 90
SWIDTH 611 0
DWIDTH 11 0
BBX 9 13 1 0
BITMAP
FF80
FF80
0300
0700
0600
0C00
1800
3800
3000
6000
C000
FF80
FF80
ENDCHAR
STARTCHAR 005B
ENCODING 91
SWIDTH 333 0
DWIDTH 6 0
BBX 3 16 2 -2
BITMAP
E0
80
80
80
80
80
80
80
80
80
80
80
80
80
80
E0
ENDCHAR
STARTCHAR 005C
ENCODING 92
SWIDTH 444 0
DWIDTH 8 0
BBX 6 16 1 -3
BITMAP
C0
C0
C0
40
60
60
20
30
30
10
18
18
08
0C
0C
04
ENDCHAR
STARTCHAR 005D
ENCODING 93
SWIDTH 333 0
DWIDTH 6 0
BBX 3 16 1 -2
BITMAP
E0
20
20
20
20
20
20
20
20
20
20
20
20
20
20
E0
ENDCHAR
STARTCHAR 005E
ENCODING 94
SWIDTH 611 0
DWIDTH 11 0
BBX 9 7 1 6
BITMAP
1C00
1C00
3600
2600
6300
C300
C180
ENDCHAR
STARTCHAR 005F
ENCODING 95
SWIDTH 555 0
DWIDTH 10 0
BBX 9 2 1 -3
BITMAP
FF80
FF80
ENDCHAR
STARTCHAR 0060
ENCODING 96
SWIDTH 611 0
DWIDTH 11 0
BBX 3 4 3 10
BITMAP
40
C0
60
20
ENDCHAR
STARTCHAR 0061
ENCODING 97
SWIDTH 555 0
DWIDTH 10 0
BBX 8 9 1 0
BITMAP
7C
FE
46
06
7E
C6
C6
FB
73
ENDCHAR
STARTCHAR 0062
ENCODING 98
SWIDTH 611 0
DWIDTH 11 0
BBX 9 13 1 0
BITMAP
C000
C000
C000
C000
CE00
DF00
E380
C180
C180
C180
E380
DF00
CE00
ENDCHAR
STARTCHAR 0063
ENCODING 99
SWIDTH 500 0
DWIDTH 9 0
BBX 8 9 1 0
BITMAP
3C
7E
C7
C0
C0
C4
C7
7E
3C
ENDCHAR
STARTCHAR 0064
ENCODING 100
SWIDTH 611 0
DWIDTH 11 0
BBX 8 13 1 0
BITMAP
03
03
03
03
3B
7F
E3
C3
C3
C3
E3
7F
3B
ENDCHAR
STARTCHAR 0065
ENCODING 101
SWIDTH 555 0
DWIDTH 10 0
BBX 8 9 1 0
BITMAP
3C
7E
C3
C3
FF
C0
C2
7F
3C
ENDCHAR
STARTCHAR 0066
ENCODING 102
SWIDTH 333 0
DWIDTH 6 0
BBX 6 13 0 0
BITMAP
1C
3C
30
30
FC
FC
30
30
30
30
30
30
30
ENDCHAR
STARTCHAR 0067
ENCODING 103
SWIDTH 555 0
DWIDTH 10 0
BBX 9 15 1 -4
BITMAP
0300
0300
3C00
FE00
C300
C300
7E00
3C00
C000
FF00
7F00
8180
8180
FF00
7E00
ENDCHAR
STARTCHAR 0068
ENCODING 104
SWIDTH 555 0
DWIDTH 10 0
BBX 8 13 1 0
BITMAP
C0
C0
C0
C0
DE
DF
E3
C3
C3
C3
C3
C3
C3
ENDCHAR
STARTCHAR 0069
ENCODING 105
SWIDTH 277 0
DWIDTH 5 0
BBX 3 13 1 0
BITMAP
C0
E0
00
00
C0
C0
C0
C0
C0
C0
C0
C0
C0
ENDCHAR
STARTCHAR 006A
ENCODING 106
SWIDTH 277 0
DWIDTH 5 0
BBX 4 17 0 -4
BITMAP
60
70
00
00
60
60
60
60
60
60
60
60
60
60
60
E0
E0
ENDCHAR
STARTCHAR 006B
ENCODING 107
SWIDTH 555 0
DWIDTH 10 0
BBX 9 13 1 0
BITMAP
C000
C000
C000
C000
C300
C600
CC00
D800
FC00
EC00
C600
C700
C380
ENDCHAR
STARTCHAR 006C
ENCODING 108
SWIDTH 277 0
DWIDTH 5 0
BBX 4 13 1 0
BITMAP
C0
C0
C0
C0
C0
C0
C0
C0
C0
C0
C0
F0
70
ENDCHAR
STARTCHAR 006D
ENCODING 109
SWIDTH 888 0
DWIDTH 16 0
BBX 14 9 1 0
BITMAP
DE70
DEF8
E318
C30C
C30C
C30C
C30C
C30C
C30C
ENDCHAR
STARTCHAR 006E
ENCODING 110
SWIDTH 555 0
DWIDTH 10 0
BBX 8 9 1 0
BITMAP
DE
DF
E3
C3
C3
C3
C3
C3
C3
ENDCHAR
STARTCHAR 006F
ENCODING 111
SWIDTH 555 0
DWIDTH 10 0
BBX 8 9 1 0
BITMAP
3C
7E
C3
C3
C3
C3
C3
7E
3C
ENDCHAR
STARTCHAR 0070
ENCODING 112
SWIDTH 611 0
DWIDTH 11 0
BBX 9 13 1 -4
BITMAP
CE00
DF00
E380
C180
C180
C180
E380
DF00
CE00
C000
C000
C000
C000
ENDCHAR
STARTCHAR 0071
ENCODING 113
SWIDTH 611 0
DWIDTH 11 0
BBX 8 13 1 -4
BITMAP
3B
7F
E3
C3
C3
C3
E3
7F
3B
03
03
03
03
ENDCHAR
STARTCHAR 0072
ENCODING 114
SWIDTH 388 0
DWIDTH 7 0
BBX 6 9 1 0
BITMAP
DC
DC
E0
C0
C0
C0
C0
C0
C0
ENDCHAR
STARTCHAR 0073
ENCODING 115
SWIDTH 500 0
DWIDTH 9 0
BBX 7 9 1 0
BITMAP
7C
FE
C4
F0
7E
1E
86
FE
7C
ENDCHAR
STARTCHAR 0074
ENCODING 116
SWIDTH 388 0
DWIDTH 7 0
BBX 6 12 0 0
BITMAP
30
30
30
FC
FC
30
30
30
30
30
3C
3C
ENDCHAR
STARTCHAR 0075
ENCODING 117
SWIDTH 555 0
DWIDTH 10 0
BBX 8 9 1 0
BITMAP
C3
C3
C3
C3
C3
C3
E3
7F
3B
ENDCHAR
STARTCHAR 0076
ENCODING 118
SWIDTH 500 0
DWIDTH 9 0
BBX 9 9 0 0
BITMAP
C180
6100
6300
6300
3200
3600
1600
1C00
1C00
ENDCHAR
STARTCHAR 0077
ENCODING 119
SWIDTH 777 0
DWIDTH 14 0
BBX 14 9 0 0
BITMAP
E30C
6388
6398
6698
3698
34D0
3CF0
1C70
1870
ENDCHAR
STARTCHAR 0078
ENCODING 120
SWIDTH 555 0
DWIDTH 10 0
BBX 9 9 0 0
BITMAP
E180
3300
3600
1E00
0C00
1E00
3600
6300
E180
ENDCHAR
STARTCHAR 0079
ENCODING 121
SWIDTH 500 0
DWIDTH 9 0
BBX 9 13 0 -4
BITMAP
C180
6180
6300
6300
3200
3600
1600
1C00
1C00
0C00
1800
7800
7000
ENDCHAR
STARTCHAR 007A
ENCODING 122
SWIDTH 500 0
DWIDTH 9 0
BBX 7 9 1 0
BITMAP
FE
FE
0C
18
30
60
C0
FE
FE
ENDCHAR
STARTCHAR 007B
ENCODING 123
SWIDTH 333 0
DWIDTH 6 0
BBX 5 16 0 -2
BITMAP
38
30
30
30
30
30
30
E0
C0
E0
30
30
30
30
30
38
ENDCHAR
STARTCHAR 007C
ENCODING 124
SWIDTH 333 0
DWIDTH 6 0
BBX 2 16 2 -2
BITMAP
C0
C0
C0
C0
C0
C0
C0
C0
C0
C0
C0
C0
C0
C0
C0
C0
ENDCHAR
STARTCHAR 007D
ENCODING 125
SWIDTH 333 0
DWIDTH 6 0
BBX 5 16 1 -2
BITMAP
E0
20
20
20
20
20
30
38
18
38
30
20
20
20
20
E0
ENDCHAR
STARTCHAR 007E
ENCODING 126
SWIDTH 611 0
DWIDTH 11 0
BBX 9 3 1 4
BITMAP
7900
FF80
8F00
ENDCHAR
STARTCHAR 00A0
ENCODING 160
SWIDTH 222 0
DWIDTH 4 0
BBX 0 0 0 0
BITMAP
ENDCHAR
STARTCHAR 00A1
ENCODING 161
SWIDTH 277 0
DWIDTH 5 0
BBX 3 12 1 -3
BITMAP
60
E0
60
00
40
40
40
60
60
60
60
60
ENDCHAR
STARTCHAR 00A2
ENCODING 162
SWIDTH 555 0
DWIDTH 10 0
BBX 8 13 1 -2
BITMAP
18
18
3C
7E
DB
D8
D8
D8
DB
7E
3C
18
18
ENDCHAR
STARTCHAR 00A3
ENCODING 163
SWIDTH 611 0
DWIDTH 11 0
BBX 9 13 1 0
BITMAP
1E00
7F00
6180
6000
6000
6000
FE00
FE00
3000
3000
6000
FF80
FF80
ENDCHAR
STARTCHAR 00A4
ENCODING 164
SWIDTH 611 0
DWIDTH 11 0
BBX 11 11 0 1
BITMAP
4040
FFE0
3F80
3180
30C0
60C0
30C0
3180
3F80
7FC0
C060
ENDCHAR
STARTCHAR 00A5
ENCODING 165
SWIDTH 611 0
DWIDTH 11 0
BBX 11 13 0 0
BITMAP
E0E0
70C0
3180
3980
1B00
1F00
7FC0
0600
7FC0
0600
0600
0600
0600
ENDCHAR
STARTCHAR 00A6
ENCODING 166
SWIDTH 333 0
DWIDTH 6 0
BBX 2 16 2 -2
BITMAP
C0
C0
C0
C0
C0
C0
00
00
00
00
C0
C0
C0
C0
C0
C0
ENDCHAR
STARTCHAR 00A7
ENCODING 167
SWIDTH 555 0
DWIDTH 10 0
BBX 8 16 1 -3
BITMAP
3E
7F
62
60
78
3E
6F
C3
C3
F2
7C
0E
03
43
7E
3C
ENDCHAR
STARTCHAR 00A8
ENCODING 168
SWIDTH 611 0
DWIDTH 11 0
BBX 6 2 2 10
BITMAP
6C
EC
ENDCHAR
STARTCHAR 00A9
ENCODING 169
SWIDTH 777 0
DWIDTH 14 0
BBX 12 13 1 0
BITMAP
1F80
30C0
4020
4F30
9F90
9910
9810
9910
9F90
4F30
4020
30C0
1F80
ENDCHAR
STARTCHAR 00AA
ENCODING 170
SWIDTH 444 0
DWIDTH 8 0
BBX 6 7 1 6
BITMAP
70
98
08
F8
88
98
EC
ENDCHAR
STARTCHAR 00AB
ENCODING 171
SWIDTH 555 0
DWIDTH 10 0
BBX 8 8 1 1
BITMAP
22
77
EE
CC
CC
66
33
22
ENDCHAR
STARTCHAR 00AC
ENCODING 172
SWIDTH 611 0
DWIDTH 11 0
BBX 9 5 1 2
BITMAP
FF80
FF80
0180
0180
0180
ENDCHAR
STARTCHAR 00AD
ENCODING 173
SWIDTH 388 0
DWIDTH 7 0
BBX 5 2 1 4
BITMAP
F8
F8
ENDCHAR
STARTCHAR 00AE
ENCODING 174
SWIDTH 500 0
DWIDTH 9 0
BBX 7 7 1 6
BITMAP
78
C4
BA
AA
B2
CC
78
ENDCHAR
STARTCHAR 00AF
ENCODING 175
SWIDTH 611 0
DWIDTH 11 0
BBX 5 2 3 10
BITMAP
F8
F8
ENDCHAR
STARTCHAR 00B0
ENCODING 176
SWIDTH 444 0
DWIDTH 8 0
BBX 6 7 1 6
BITMAP
38
7C
C4
C4
C4
7C
38
ENDCHAR
STARTCHAR 00B1
ENCODING 177
SWIDTH 611 0
DWIDTH 11 0
BBX 9 11 1 0
BITMAP
0800
0800
0800
FF80
FF80
0800
0800
0800
0000
FF80
FF80
ENDCHAR
STARTCHAR 00B2
ENCODING 178
SWIDTH 333 0
DWIDTH 6 0
BBX 6 7 0 6
BITMAP
78
C8
0C
18
30
60
7C
ENDCHAR
STARTCHAR 00B3
ENCODING 179
SWIDTH 333 0
DWIDTH 6 0
BBX 6 7 0 6
BITMAP
78
C8
08
30
08
4C
F8
ENDCHAR
STARTCHAR 00B4
ENCODING 180
SWIDTH 611 0
DWIDTH 11 0
BBX 4 4 4 10
BITMAP
20
70
60
C0
ENDCHAR
STARTCHAR 00B5
ENCODING 181
SWIDTH 611 0
DWIDTH 11 0
BBX 8 13 1 -4
BITMAP
C3
C3
C3
C3
C3
C3
E3
FF
FB
C0
C0
C0
C0
ENDCHAR
STARTCHAR 00B6
ENCODING 182
SWIDTH 666 0
DWIDTH 12 0
BBX 10 16 1 -3
BITMAP
3FC0
7FC0
F900
F900
F900
F900
7900
3900
1900
1900
1900
1900
1900
1900
1900
1900
ENDCHAR
STARTCHAR 00B7
ENCODING 183
SWIDTH 333 0
DWIDTH 6 0
BBX 3 3 2 4
BITMAP
C0
E0
C0
ENDCHAR
STARTCHAR 00B8
ENCODING 184
SWIDTH 611 0
DWIDTH 11 0
BBX 4 4 4 -4
BITMAP
40
70
B0
E0
ENDCHAR
STARTCHAR 00B9
ENCODING 185
SWIDTH 333 0
DWIDTH 6 0
BBX 6 7 0 6
BITMAP
30
50
90
10
10
10
7C
ENDCHAR
STARTCHAR 00BA
ENCODING 186
SWIDTH 388 0
DWIDTH 7 0
BBX 6 7 1 6
BITMAP
70
C8
8C
8C
8C
C8
70
ENDCHAR
STARTCHAR 00BB
ENCODING 187
SWIDTH 555 0
DWIDTH 10 0
BBX 8 8 1 1
BITMAP
88
CC
66
33
33
66
CC
88
ENDCHAR
STARTCHAR 00BC
ENCODING 188
SWIDTH 833 0
DWIDTH 15 0
BBX 15 13 0 0
BITMAP
3018
5010
9030
1060
1040
1080
7D8C
0314
0214
0624
0C64
087E
1804
ENDCHAR
STARTCHAR 00BD
ENCODING 189
SWIDTH 833 0
DWIDTH 15 0
BBX 15 13 0 0
BITMAP
3018
5030
9020
1060
10C0
1080
7DBC
0326
0206
040C
0C18
1830
303E
ENDCHAR
STARTCHAR 00BE
ENCODING 190
SWIDTH 833 0
DWIDTH 15 0
BBX 15 13 0 0
BITMAP
7818
C830
0820
3060
08C0
4C80
F90C
031C
063C
042C
0C4C
187E
300C
ENDCHAR
STARTCHAR 00BF
ENCODING 191
SWIDTH 500 0
DWIDTH 9 0
BBX 7 12 1 -3
BITMAP
18
38
18
00
18
18
78
E0
C2
C6
FE
78
ENDCHAR
STARTCHAR 00C0
ENCODING 192
SWIDTH 666 0
DWIDTH 12 0
BBX 12 18 0 0
BITMAP
0800
0C00
0600
0600
0000
0600
0F00
0F00
0B00
1980
1980
1180
30C0
3FC0
3FC0
60E0
6060
E070
ENDCHAR
STARTCHAR 00C1
ENCODING 193
SWIDTH 666 0
DWIDTH 12 0
BBX 12 18 0 0
BITMAP
0200
0300
0600
0400
0000
0600
0F00
0F00
0B00
1980
1980
1180
30C0
3FC0
3FC0
60E0
6060
E070
ENDCHAR
STARTCHAR 00C2
ENCODING 194
SWIDTH 666 0
DWIDTH 12 0
BBX 12 18 0 0
BITMAP
0600
0F00
1B80
1080
0000
0600
0F00
0F00
0B00
1980
1980
1180
30C0
3FC0
3FC0
60E0
6060
E070
ENDCHAR
STARTCHAR 00C3
ENCODING 195
SWIDTH 666 0
DWIDTH 12 0
BBX 12 18 0 0
BITMAP
1C80
1F80
1300
0000
0000
0600
0F00
0F00
0B00
1980
1980
1180
30C0
3FC0
3FC0
60E0
6060
E070
ENDCHAR
STARTCHAR 00C4
ENCODING 196
SWIDTH 666 0
DWIDTH 12 0
BBX 12 17 0 0
BITMAP
1980
1980
0000
0000
0600
0F00
0F00
0B00
1980
1980
1180
30C0
3FC0
3FC0
60E0
6060
E070
ENDCHAR
STARTCHAR 00C5
ENCODING 197
SWIDTH 666 0
DWIDTH 12 0
BBX 12 18 0 0
BITMAP
0F00
0900
0900
0F00
0000
0600
0F00
0F00
0B00
1980
1980
1180
30C0
3FC0
3FC0
60E0
6060
E070
ENDCHAR
STARTCHAR 00C6
ENCODING 198
SWIDTH 944 0
DWIDTH 17 0
BBX 16 13 0 0
BITMAP
03FF
03FF
06C0
06C0
0CC0
0CFE
18FE
18C0
3FC0
3FC0
60C0
60FF
C0FF
ENDCHAR
STARTCHAR 00C7
ENCODING 199
SWIDTH 611 0
DWIDTH 11 0
BBX 10 17 1 -4
BITMAP
1F00
3F80
6180
E0C0
C000
C000
C000
C000
C000
E080
61C0
7F80
1F00
0800
0E00
1200
0E00
ENDCHAR
STARTCHAR 00C8
ENCODING 200
SWIDTH 611 0
DWIDTH 11 0
BBX 8 18 2 0
BITMAP
20
70
30
18
00
FF
FF
C0
C0
C0
FE
FE
C0
C0
C0
C0
FF
FF
ENDCHAR
STARTCHAR 00C9
ENCODING 201
SWIDTH 611 0
DWIDTH 11 0
BBX 8 18 2 0
BITMAP
08
0C
18
10
00
FF
FF
C0
C0
C0
FE
FE
C0
C0
C0
C0
FF
FF
ENDCHAR
STARTCHAR 00CA
ENCODING 202
SWIDTH 611 0
DWIDTH 11 0
BBX 8 18 2 0
BITMAP
38
3C
6C
C6
00
FF
FF
C0
C0
C0
FE
FE
C0
C0
C0
C0
FF
FF
ENDCHAR
STARTCHAR 00CB
ENCODING 203
SWIDTH 611 0
DWIDTH 11 0
BBX 8 17 2 0
BITMAP
6C
6C
00
00
FF
FF
C0
C0
C0
FE
FE
C0
C0
C0
C0
FF
FF
ENDCHAR
STARTCHAR 00CC
ENCODING 204
SWIDTH 388 0
DWIDTH 7 0
BBX 5 18 1 0
BITMAP
40
E0
60
30
00
F8
F8
30
30
30
30
30
30
30
30
30
F8
F8
ENDCHAR
STARTCHAR 00CD
ENCODING 205
SWIDTH 388 0
DWIDTH 7 0
BBX 5 18 1 0
BITMAP
10
18
30
20
00
F8
F8
30
30
30
30
30
30
30
30
30
F8
F8
ENDCHAR
STARTCHAR 00CE
ENCODING 206
SWIDTH 388 0
DWIDTH 7 0
BBX 6 18 1 0
BITMAP
70
78
D8
8C
00
F8
F8
30
30
30
30
30
30
30
30
30
F8
F8
ENDCHAR
STARTCHAR 00CF
ENCODING 207
SWIDTH 388 0
DWIDTH 7 0
BBX 6 17 1 0
BITMAP
DC
DC
00
00
F8
F8
30
30
30
30
30
30
30
30
30
F8
F8
ENDCHAR
STARTCHAR 00D0
ENCODING 208
SWIDTH 666 0
DWIDTH 12 0
BBX 11 13 0 0
BITMAP
3F00
3FC0
30E0
3060
3060
FC60
FC60
3060
3060
3060
30E0
3FC0
3F00
ENDCHAR
STARTCHAR 00D1
ENCODING 209
SWIDTH 722 0
DWIDTH 13 0
BBX 9 18 2 0
BITMAP
3200
7F00
4E00
0000
0000
C180
E180
E180
B180
B180
9980
9980
8D80
8F80
8780
8380
8380
8180
ENDCHAR
STARTCHAR 00D2
ENCODING 210
SWIDTH 722 0
DWIDTH 13 0
BBX 11 18 1 0
BITMAP
0800
1800
0C00
0400
0000
1F00
3F80
71C0
E0C0
C060
C060
C060
C060
C060
E0C0
71C0
3F80
1F00
ENDCHAR
STARTCHAR 00D3
ENCODING 211
SWIDTH 722 0
DWIDTH 13 0
BBX 11 18 1 0
BITMAP
0200
0700
0600
0C00
0000
1F00
3F80
71C0
E0C0
C060
C060
C060
C060
C060
E0C0
71C0
3F80
1F00
ENDCHAR
STARTCHAR 00D4
ENCODING 212
SWIDTH 722 0
DWIDTH 13 0
BBX 11 18 1 0
BITMAP
0E00
1E00
1B00
3180
0000
1F00
3F80
71C0
E0C0
C060
C060
C060
C060
C060
E0C0
71C0
3F80
1F00
ENDCHAR
STARTCHAR 00D5
ENCODING 213
SWIDTH 722 0
DWIDTH 13 0
BBX 11 18 1 0
BITMAP
1900
3F80
2700
0000
0000
1F00
3F80
71C0
E0C0
C060
C060
C060
C060
C060
E0C0
71C0
3F80
1F00
ENDCHAR
STARTCHAR 00D6
ENCODING 214
SWIDTH 722 0
DWIDTH 13 0
BBX 11 17 1 0
BITMAP
1B00
3B00
0000
0000
1F00
3F80
71C0
E0C0
C060
C060
C060
C060
C060
E0C0
71C0
3F80
1F00
ENDCHAR
STARTCHAR 00D7
ENCODING 215
SWIDTH 611 0
DWIDTH 11 0
BBX 7 8 2 1
BITMAP
82
C6
6C
38
38
6C
C6
84
ENDCHAR
STARTCHAR 00D8
ENCODING 216
SWIDTH 722 0
DWIDTH 13 0
BBX 11 15 1 -1
BITMAP
0040
1F60
3FC0
71C0
E1C0
C360
C660
C460
CC60
D860
F0C0
61C0
7F80
DF00
4000
ENDCHAR
STARTCHAR 00D9
ENCODING 217
SWIDTH 666 0
DWIDTH 12 0
BBX 10 18 1 0
BITMAP
0800
1800
0C00
0400
0000
C0C0
C0C0
C0C0
C0C0
C0C0
C0C0
C0C0
C0C0
60C0
60C0
6180
7F80
1F00
ENDCHAR
STARTCHAR 00DA
ENCODING 218
SWIDTH 666 0
DWIDTH 12 0
BBX 10 18 1 0
BITMAP
0400
0700
0400
0C00
0000
C0C0
C0C0
C0C0
C0C0
C0C0
C0C0
C0C0
C0C0
60C0
60C0
6180
7F80
1F00
ENDCHAR
STARTCHAR 00DB
ENCODING 219
SWIDTH 666 0
DWIDTH 12 0
BBX 10 18 1 0
BITMAP
0E00
1E00
3B00
3100
0000
C0C0
C0C0
C0C0
C0C0
C0C0
C0C0
C0C0
C0C0
60C0
60C0
6180
7F80
1F00
ENDCHAR
STARTCHAR 00DC
ENCODING 220
SWIDTH 666 0
DWIDTH 12 0
BBX 10 17 1 0
BITMAP
3300
3B00
0000
0000
C0C0
C0C0
C0C0
C0C0
C0C0
C0C0
C0C0
C0C0
60C0
60C0
6180
7F80
1F00
ENDCHAR
STARTCHAR 00DD
ENCODING 221
SWIDTH 611 0
DWIDTH 11 0
BBX 11 18 0 0
BITMAP
0200
0300
0600
0400
0000
E0E0
60C0
31C0
3180
1B00
1B00
0E00
0E00
0600
0600
0600
0600
0600
ENDCHAR
STARTCHAR 00DE
ENCODING 222
SWIDTH 611 0
DWIDTH 11 0
BBX 9 13 2 0
BITMAP
C000
C000
FE00
FF00
C300
C380
C380
C300
FF00
FE00
C000
C000
C000
ENDCHAR
STARTCHAR 00DF
ENCODING 223
SWIDTH 666 0
DWIDTH 12 0
BBX 11 13 0 0
BITMAP
0F00
1F80
30C0
30C0
F1C0
F3C0
3600
3380
33E0
30E0
3620
37E0
33C0
ENDCHAR
STARTCHAR 00E0
ENCODING 224
SWIDTH 555 0
DWIDTH 10 0
BBX 8 14 1 0
BITMAP
20
70
30
18
00
7C
FE
46
06
7E
C6
C6
FB
73
ENDCHAR
STARTCHAR 00E1
ENCODING 225
SWIDTH 555 0
DWIDTH 10 0
BBX 8 14 1 0
BITMAP
08
0C
18
10
00
7C
FE
46
06
7E
C6
C6
FB
73
ENDCHAR
STARTCHAR 00E2
ENCODING 226
SWIDTH 555 0
DWIDTH 10 0
BBX 8 14 1 0
BITMAP
38
3C
6C
46
00
7C
FE
46
06
7E
C6
C6
FB
73
ENDCHAR
STARTCHAR 00E3
ENCODING 227
SWIDTH 555 0
DWIDTH 10 0
BBX 8 13 1 0
BITMAP
74
7E
CC
00
7C
FE
46
06
7E
C6
C6
FB
73
ENDCHAR
STARTCHAR 00E4
ENCODING 228
SWIDTH 555 0
DWIDTH 10 0
BBX 8 12 1 0
BITMAP
6E
6E
00
7C
FE
46
06
7E
C6
C6
FB
73
ENDCHAR
STARTCHAR 00E5
ENCODING 229
SWIDTH 555 0
DWIDTH 10 0
BBX 8 14 1 0
BITMAP
38
64
64
38
00
7C
FE
46
06
7E
C6
C6
FB
73
ENDCHAR
STARTCHAR 00E6
ENCODING 230
SWIDTH 888 0
DWIDTH 16 0
BBX 14 9 1 0
BITMAP
78F0
FDF8
471C
060C
7FFC
C600
C708
FDF8
78F0
ENDCHAR
STARTCHAR 00E7
ENCODING 231
SWIDTH 500 0
DWIDTH 9 0
BBX 8 13 1 -4
BITMAP
3C
7E
C7
C0
C0
C4
C7
7E
3C
10
1C
24
3C
ENDCHAR
STARTCHAR 00E8
ENCODING 232
SWIDTH 555 0
DWIDTH 10 0
BBX 8 14 1 0
BITMAP
10
30
18
08
00
3C
7E
C3
C3
FF
C0
C2
7F
3C
ENDCHAR
STARTCHAR 00E9
ENCODING 233
SWIDTH 555 0
DWIDTH 10 0
BBX 8 14 1 0
BITMAP
08
0C
08
18
00
3C
7E
C3
C3
FF
C0
C2
7F
3C
ENDCHAR
STARTCHAR 00EA
ENCODING 234
SWIDTH 555 0
DWIDTH 10 0
BBX 8 14 1 0
BITMAP
18
3C
76
62
00
3C
7E
C3
C3
FF
C0
C2
7F
3C
ENDCHAR
STARTCHAR 00EB
ENCODING 235
SWIDTH 555 0
DWIDTH 10 0
BBX 8 12 1 0
BITMAP
66
66
00
3C
7E
C3
C3
FF
C0
C2
7F
3C
ENDCHAR
STARTCHAR 00EC
ENCODING 236
SWIDTH 277 0
DWIDTH 5 0
BBX 3 14 0 0
BITMAP
40
C0
60
20
00
60
60
60
60
60
60
60
60
60
ENDCHAR
STARTCHAR 00ED
ENCODING 237
SWIDTH 277 0
DWIDTH 5 0
BBX 4 14 1 0
BITMAP
20
70
60
C0
00
C0
C0
C0
C0
C0
C0
C0
C0
C0
ENDCHAR
STARTCHAR 00EE
ENCODING 238
SWIDTH 277 0
DWIDTH 5 0
BBX 7 14 -1 0
BITMAP
38
78
6C
C6
00
30
30
30
30
30
30
30
30
30
ENDCHAR
STARTCHAR 00EF
ENCODING 239
SWIDTH 277 0
DWIDTH 5 0
BBX 6 12 -1 0
BITMAP
6C
EC
00
30
30
30
30
30
30
30
30
30
ENDCHAR
STARTCHAR 00F0
ENCODING 240
SWIDTH 555 0
DWIDTH 10 0
BBX 8 13 1 0
BITMAP
76
1C
3C
06
3B
7F
E3
C3
C3
C3
E3
7E
3C
ENDCHAR
STARTCHAR 00F1
ENCODING 241
SWIDTH 555 0
DWIDTH 10 0
BBX 8 13 1 0
BITMAP
32
7E
4E
00
DE
DF
E3
C3
C3
C3
C3
C3
C3
ENDCHAR
STARTCHAR 00F2
ENCODING 242
SWIDTH 555 0
DWIDTH 10 0
BBX 8 14 1 0
BITMAP
10
30
18
08
00
3C
7E
C3
C3
C3
C3
C3
7E
3C
ENDCHAR
STARTCHAR 00F3
ENCODING 243
SWIDTH 555 0
DWIDTH 10 0
BBX 8 14 1 0
BITMAP
08
0C
08
18
00
3C
7E
C3
C3
C3
C3
C3
7E
3C
ENDCHAR
STARTCHAR 00F4
ENCODING 244
SWIDTH 555 0
DWIDTH 10 0
BBX 8 14 1 0
BITMAP
18
3C
76
42
00
3C
7E
C3
C3
C3
C3
C3
7E
3C
ENDCHAR
STARTCHAR 00F5
ENCODING 245
SWIDTH 555 0
DWIDTH 10 0
BBX 8 13 1 0
BITMAP
32
7E
4E
00
3C
7E
C3
C3
C3
C3
C3
7E
3C
ENDCHAR
STARTCHAR 00F6
ENCODING 246
SWIDTH 555 0
DWIDTH 10 0
BBX 8 12 1 0
BITMAP
66
66
00
3C
7E
C3
C3
C3
C3
C3
7E
3C
ENDCHAR
STARTCHAR 00F7
ENCODING 247
SWIDTH 611 0
DWIDTH 11 0
BBX 9 8 1 2
BITMAP
1C00
1C00
0000
FF80
FF80
0000
1C00
1C00
ENDCHAR
STARTCHAR 00F8
ENCODING 248
SWIDTH 555 0
DWIDTH 10 0
BBX 10 11 0 -1
BITMAP
0080
1EC0
3F80
6380
6780
6D80
7980
7180
7F80
7E00
C000
ENDCHAR
STARTCHAR 00F9
ENCODING 249
SWIDTH 555 0
DWIDTH 10 0
BBX 8 14 1 0
BITMAP
10
30
18
08
00
C3
C3
C3
C3
C3
C3
E3
7F
3B
ENDCHAR
STARTCHAR 00FA
ENCODING 250
SWIDTH 555 0
DWIDTH 10 0
BBX 8 14 1 0
BITMAP
04
0E
08
18
00
C3
C3
C3
C3
C3
C3
E3
7F
3B
ENDCHAR
STARTCHAR 00FB
ENCODING 251
SWIDTH 555 0
DWIDTH 10 0
BBX 8 14 1 0
BITMAP
1C
3C
76
62
00
C3
C3
C3
C3
C3
C3
E3
7F
3B
ENDCHAR
STARTCHAR 00FC
ENCODING 252
SWIDTH 555 0
DWIDTH 10 0
BBX 8 12 1 0
BITMAP
66
76
00
C3
C3
C3
C3
C3
C3
E3
7F
3B
ENDCHAR
STARTCHAR 00FD
ENCODING 253
SWIDTH 500 0
DWIDTH 9 0
BBX 9 18 0 -4
BITMAP
0400
0600
0C00
0800
0000
C180
6180
6300
6300
3200
3600
1600
1C00
1C00
0C00
1800
7800
7000
ENDCHAR
STARTCHAR 00FE
ENCODING 254
SWIDTH 611 0
DWIDTH 11 0
BBX 9 17 1 -4
BITMAP
C000
C000
C000
C000
CE00
DF00
E380
C180
C180
C180
E380
DF00
CE00
C000
C000
C000
C000
ENDCHAR
STARTCHAR 00FF
ENCODING 255
SWIDTH 500 0
DWIDTH 9 0
BBX 9 16 0 -4
BITMAP
3700
3700
0000
C180
6180
6300
6300
3200
3600
1600
1C00
1C00
0C00
1800
7800
7000
ENDCHAR
STARTCHAR 0100
ENCODING 256
SWIDTH 666 0
DWIDTH 12 0
BBX 12 17 0 0
BITMAP
1F80
1F80
0000
0000
0600
0F00
0F00
0B00
1980
1980
1180
30C0
3FC0
3FC0
60E0
6060
E070
ENDCHAR
STARTCHAR 0101
ENCODING 257
SWIDTH 555 0
DWIDTH 10 0
BBX 8 12 1 0
BITMAP
7C
7C
00
7C
FE
46
06
7E
C6
C6
FB
73
ENDCHAR
STARTCHAR 0102
ENCODING 258
SWIDTH 666 0
DWIDTH 12 0
BBX 12 18 0 0
BITMAP
1080
1980
0F00
0E00
0000
0600
0F00
0F00
0B00
1980
1980
1180
30C0
3FC0
3FC0
60E0
6060
E070
ENDCHAR
STARTCHAR 0103
ENCODING 259
SWIDTH 555 0
DWIDTH 10 0
BBX 8 14 1 0
BITMAP
44
66
7C
38
00
7C
FE
46
06
7E
C6
C6
FB
73
ENDCHAR
STARTCHAR 0104
ENCODING 260
SWIDTH 666 0
DWIDTH 12 0
BBX 12 17 0 -4
BITMAP
0600
0F00
0F00
0B00
1980
1980
1180
30C0
3FC0
3FC0
60E0
6060
6060
8030
00C0
00D0
0070
ENDCHAR
STARTCHAR 0105
ENCODING 261
SWIDTH 555 0
DWIDTH 10 0
BBX 9 13 1 -4
BITMAP
7C00
FE00
4600
0600
7E00
C600
C600
FB00
7300
0300
0600
0500
0780
ENDCHAR
STARTCHAR 0106
ENCODING 262
SWIDTH 611 0
DWIDTH 11 0
BBX 10 18 1 0
BITMAP
0400
0700
0400
0C00
0000
1F00
3F80
6180
E0C0
C000
C000
C000
C000
C000
E080
61C0
3F80
1E00
ENDCHAR
STARTCHAR 0107
ENCODING 263
SWIDTH 500 0
DWIDTH 9 0
BBX 8 14 1 0
BITMAP
08
0C
18
18
00
3C
7E
C7
C0
C0
C4
C7
7E
3C
ENDCHAR
STARTCHAR 0108
ENCODING 264
SWIDTH 611 0
DWIDTH 11 0
BBX 10 18 1 0
BITMAP
0E00
1E00
3B00
3100
0000
1F00
3F80
6180
E0C0
C000
C000
C000
C000
C000
E080
61C0
3F80
1E00
ENDCHAR
STARTCHAR 0109
ENCODING 265
SWIDTH 500 0
DWIDTH 9 0
BBX 8 14 1 0
BITMAP
18
3C
66
42
00
3C
7E
C7
C0
C0
C4
C7
7E
3C
ENDCHAR
STARTCHAR 010A
ENCODING 266
SWIDTH 611 0
DWIDTH 11 0
BBX 10 17 1 0
BITMAP
0C00
0C00
0000
0000
1F00
3F80
6180
E0C0
C000
C000
C000
C000
C000
E080
61C0
3F80
1E00
ENDCHAR
STARTCHAR 010B
ENCODING 267
SWIDTH 500 0
DWIDTH 9 0
BBX 8 12 1 0
BITMAP
18
18
00
3C
7E
C7
C0
C0
C4
C7
7E
3C
ENDCHAR
STARTCHAR 010C
ENCODING 268
SWIDTH 611 0
DWIDTH 11 0
BBX 10 18 1 0
BITMAP
3100
3B00
1E00
0E00
0000
1F00
3F80
6180
E0C0
C000
C000
C000
C000
C000
E080
61C0
3F80
1E00
ENDCHAR
STARTCHAR 010D
ENCODING 269
SWIDTH 500 0
DWIDTH 9 0
BBX 8 14 1 0
BITMAP
42
66
3C
18
00
3C
7E
C7
C0
C0
C4
C7
7E
3C
ENDCHAR
STARTCHAR 010E
ENCODING 270
SWIDTH 666 0
DWIDTH 12 0
BBX 9 18 2 0
BITMAP
4400
EE00
3C00
3800
0000
FC00
FF00
C300
C180
C180
C180
C180
C180
C180
C180
C300
FF00
FC00
ENDCHAR
STARTCHAR 010F
ENCODING 271
SWIDTH 611 0
DWIDTH 11 0
BBX 12 13 1 0
BITMAP
0370
0360
0360
0360
3B00
7F00
E300
C300
C300
C300
E300
7F00
3B00
ENDCHAR
STARTCHAR 0110
ENCODING 272
SWIDTH 666 0
DWIDTH 12 0
BBX 11 13 0 0
BITMAP
3F00
3FC0
30E0
3060
3060
FC60
FC60
3060
3060
3060
30E0
3FC0
3F00
ENDCHAR
STARTCHAR 0111
ENCODING 273
SWIDTH 611 0
DWIDTH 11 0
BBX 9 13 1 0
BITMAP
0300
0300
0F80
0300
3B00
7F00
E300
C300
C300
C300
E300
7F00
3B00
ENDCHAR
STARTCHAR 0112
ENCODING 274
SWIDTH 611 0
DWIDTH 11 0
BBX 8 17 2 0
BITMAP
7C
7C
00
00
FF
FF
C0
C0
C0
FE
FE
C0
C0
C0
C0
FF
FF
ENDCHAR
STARTCHAR 0113
ENCODING 275
SWIDTH 555 0
DWIDTH 10 0
BBX 8 12 1 0
BITMAP
7E
7E
00
3C
7E
C3
C3
FF
C0
C2
7F
3C
ENDCHAR
STARTCHAR 0114
ENCODING 276
SWIDTH 611 0
DWIDTH 11 0
BBX 8 18 2 0
BITMAP
44
46
7C
38
00
FF
FF
C0
C0
C0
FE
FE
C0
C0
C0
C0
FF
FF
ENDCHAR
STARTCHAR 0115
ENCODING 277
SWIDTH 555 0
DWIDTH 10 0
BBX 8 14 1 0
BITMAP
42
66
3C
1C
00
3C
7E
C3
C3
FF
C0
C2
7F
3C
ENDCHAR
STARTCHAR 0116
ENCODING 278
SWIDTH 611 0
DWIDTH 11 0
BBX 8 17 2 0
BITMAP
38
38
00
00
FF
FF
C0
C0
C0
FE
FE
C0
C0
C0
C0
FF
FF
ENDCHAR
STARTCHAR 0117
ENCODING 279
SWIDTH 555 0
DWIDTH 10 0
BBX 8 12 1 0
BITMAP
18
18
00
3C
7E
C3
C3
FF
C0
C2
7F
3C
ENDCHAR
STARTCHAR 0118
ENCODING 280
SWIDTH 611 0
DWIDTH 11 0
BBX 8 17 2 -4
BITMAP
FF
FF
C0
C0
C0
FE
FE
C0
C0
C0
C0
FF
FF
02
04
0D
07
ENDCHAR
STARTCHAR 0119
ENCODING 281
SWIDTH 555 0
DWIDTH 10 0
BBX 8 13 1 -4
BITMAP
3C
7E
C3
C3
FF
C0
C2
7F
3C
0C
08
1A
0E
ENDCHAR
STARTCHAR 011A
ENCODING 282
SWIDTH 611 0
DWIDTH 11 0
BBX 8 18 2 0
BITMAP
44
EE
3C
38
00
FF
FF
C0
C0
C0
FE
FE
C0
C0
C0
C0
FF
FF
ENDCHAR
STARTCHAR 011B
ENCODING 283
SWIDTH 555 0
DWIDTH 10 0
BBX 8 14 1 0
BITMAP
62
76
3C
18
00
3C
7E
C3
C3
FF
C0
C2
7F
3C
ENDCHAR
STARTCHAR 011C
ENCODING 284
SWIDTH 722 0
DWIDTH 13 0
BBX 10 18 1 0
BITMAP
0E00
1E00
1B00
3180
0000
1F00
3F80
71C0
E080
C000
C000
C3C0
C3C0
C0C0
E0C0
71C0
3F40
1E40
ENDCHAR
STARTCHAR 011D
ENCODING 285
SWIDTH 555 0
DWIDTH 10 0
BBX 9 18 1 -4
BITMAP
1800
3C00
6E00
4600
0000
3F00
FF00
C200
C300
7E00
3C00
C000
FF00
7F00
8180
8180
FF00
7E00
ENDCHAR
STARTCHAR 011E
ENCODING 286
SWIDTH 722 0
DWIDTH 13 0
BBX 10 18 1 0
BITMAP
1100
3300
1F00
0E00
0000
1F00
3F80
71C0
E080
C000
C000
C3C0
C3C0
C0C0
E0C0
71C0
3F40
1E40
ENDCHAR
STARTCHAR 011F
ENCODING 287
SWIDTH 555 0
DWIDTH 10 0
BBX 9 18 1 -4
BITMAP
4200
6600
7C00
3800
0000
3F00
FF00
C200
C300
7E00
3C00
C000
FF00
7F00
8180
8180
FF00
7E00
ENDCHAR
STARTCHAR 0120
ENCODING 288
SWIDTH 722 0
DWIDTH 13 0
BBX 10 17 1 0
BITMAP
0E00
0E00
0000
0000
1F00
3F80
71C0
E080
C000
C000
C3C0
C3C0
C0C0
E0C0
71C0
3F40
1E40
ENDCHAR
STARTCHAR 0121
ENCODING 289
SWIDTH 555 0
DWIDTH 10 0
BBX 9 16 1 -4
BITMAP
1800
1800
0000
3F00
FF00
C200
C300
7E00
3C00
C000
FF00
7F00
8180
8180
FF00
7E00
ENDCHAR
STARTCHAR 0122
ENCODING 290
SWIDTH 722 0
DWIDTH 13 0
BBX 10 18 1 -5
BITMAP
1F00
3F80
71C0
E080
C000
C000
C3C0
C3C0
C0C0
E0C0
71C0
3F40
1E40
0000
0C00
0C00
0400
0C00
ENDCHAR
STARTCHAR 0123
ENCODING 291
SWIDTH 555 0
DWIDTH 10 0
BBX 9 19 1 -4
BITMAP
0800
1000
1800
1800
0000
0000
3F00
FF00
C200
C300
7E00
3C00
C000
FF00
7F00
8180
8180
FF00
7E00
ENDCHAR
STARTCHAR 0124
ENCODING 292
SWIDTH 722 0
DWIDTH 13 0
BBX 9 18 2 0
BITMAP
1C00
3C00
3600
6300
0000
C180
C180
C180
C180
C180
FF80
FF80
C180
C180
C180
C180
C180
C180
ENDCHAR
STARTCHAR 0125
ENCODING 293
SWIDTH 555 0
DWIDTH 10 0
BBX 10 17 -1 0
BITMAP
3800
7800
6C00
C600
3000
3000
3000
3000
3780
37C0
38C0
30C0
30C0
30C0
30C0
30C0
30C0
ENDCHAR
STARTCHAR 0126
ENCODING 294
SWIDTH 722 0
DWIDTH 13 0
BBX 13 13 0 0
BITMAP
3060
FFF8
FFF8
3060
3060
3FE0
3FE0
3060
3060
3060
3060
3060
3060
ENDCHAR
STARTCHAR 0127
ENCODING 295
SWIDTH 555 0
DWIDTH 10 0
BBX 9 13 0 0
BITMAP
6000
6000
FC00
6000
6F00
6F80
7180
6180
6180
6180
6180
6180
6180
ENDCHAR
STARTCHAR 0128
ENCODING 296
SWIDTH 388 0
DWIDTH 7 0
BBX 6 18 1 0
BITMAP
E8
FC
98
00
00
F8
F8
30
30
30
30
30
30
30
30
30
F8
F8
ENDCHAR
STARTCHAR 0129
ENCODING 297
SWIDTH 277 0
DWIDTH 5 0
BBX 7 13 -1 0
BITMAP
64
FE
9C
00
30
30
30
30
30
30
30
30
30
ENDCHAR
STARTCHAR 012A
ENCODING 298
SWIDTH 388 0
DWIDTH 7 0
BBX 5 17 1 0
BITMAP
F8
F8
00
00
F8
F8
30
30
30
30
30
30
30
30
30
F8
F8
ENDCHAR
STARTCHAR 012B
ENCODING 299
SWIDTH 277 0
DWIDTH 5 0
BBX 5 12 0 0
BITMAP
F8
F8
00
60
60
60
60
60
60
60
60
60
ENDCHAR
STARTCHAR 012C
ENCODING 300
SWIDTH 388 0
DWIDTH 7 0
BBX 6 18 1 0
BITMAP
88
CC
F8
70
00
F8
F8
30
30
30
30
30
30
30
30
30
F8
F8
ENDCHAR
STARTCHAR 012D
ENCODING 301
SWIDTH 277 0
DWIDTH 5 0
BBX 6 14 -1 0
BITMAP
44
CC
7C
38
00
30
30
30
30
30
30
30
30
30
ENDCHAR
STARTCHAR 012E
ENCODING 302
SWIDTH 388 0
DWIDTH 7 0
BBX 6 17 1 -4
BITMAP
F8
F8
30
30
30
30
30
30
30
30
30
F8
F8
18
30
34
1C
ENDCHAR
STARTCHAR 012F
ENCODING 303
SWIDTH 277 0
DWIDTH 5 0
BBX 4 17 0 -4
BITMAP
60
70
00
00
60
60
60
60
60
60
60
60
60
60
C0
A0
F0
ENDCHAR
STARTCHAR 0130
ENCODING 304
SWIDTH 388 0
DWIDTH 7 0
BBX 5 17 1 0
BITMAP
30
70
00
00
F8
F8
30
30
30
30
30
30
30
30
30
F8
F8
ENDCHAR
STARTCHAR 0131
ENCODING 305
SWIDTH 277 0
DWIDTH 5 0
BBX 2 9 1 0
BITMAP
C0
C0
C0
C0
C0
C0
C0
C0
C0
ENDCHAR
STARTCHAR 0132
ENCODING 306
SWIDTH 666 0
DWIDTH 12 0
BBX 9 13 1 0
BITMAP
E780
E780
E180
E180
E180
E180
E180
E180
0180
6180
6180
7F00
1E00
ENDCHAR
STARTCHAR 0133
ENCODING 307
SWIDTH 500 0
DWIDTH 9 0
BBX 7 17 1 -4
BITMAP
C6
E6
00
00
C6
C6
C6
C6
C6
C6
C6
C6
C6
06
06
0E
0C
ENDCHAR
STARTCHAR 0134
ENCODING 308
SWIDTH 555 0
DWIDTH 10 0
BBX 8 18 0 0
BITMAP
0C
1E
3B
21
00
3F
3F
03
03
03
03
03
03
03
43
E3
7E
3C
ENDCHAR
STARTCHAR 0135
ENCODING 309
SWIDTH 277 0
DWIDTH 5 0
BBX 7 18 -1 -4
BITMAP
38
78
6C
C6
00
30
30
30
30
30
30
30
30
30
30
30
70
70
ENDCHAR
STARTCHAR 0136
ENCODING 310
SWIDTH 666 0
DWIDTH 12 0
BBX 10 18 2 -5
BITMAP
C380
C300
C600
CC00
DC00
F800
F800
EC00
CE00
C600
C300
C380
C180
0040
1800
1800
0800
1800
ENDCHAR
STARTCHAR 0137
ENCODING 311
SWIDTH 555 0
DWIDTH 10 0
BBX 9 18 1 -5
BITMAP
C000
C000
C000
C000
C300
C600
CC00
D800
FC00
EC00
C600
C700
C300
0080
0800
1C00
0800
1800
ENDCHAR
STARTCHAR 0138
ENCODING 312
SWIDTH 555 0
DWIDTH 10 0
BBX 9 9 1 0
BITMAP
C300
C600
CC00
D800
FC00
EC00
C600
C700
C380
ENDCHAR
STARTCHAR 0139
ENCODING 313
SWIDTH 500 0
DWIDTH 9 0
BBX 7 18 2 0
BITMAP
40
60
C0
80
00
C0
C0
C0
C0
C0
C0
C0
C0
C0
C0
C0
FE
FE
ENDCHAR
STARTCHAR 013A
ENCODING 314
SWIDTH 277 0
DWIDTH 5 0
BBX 4 18 1 0
BITMAP
20
70
60
C0
00
C0
C0
C0
C0
C0
C0
C0
C0
C0
C0
C0
F0
70
ENDCHAR
STARTCHAR 013B
ENCODING 315
SWIDTH 500 0
DWIDTH 9 0
BBX 7 18 2 -5
BITMAP
C0
C0
C0
C0
C0
C0
C0
C0
C0
C0
C0
FE
FE
00
30
30
10
30
ENDCHAR
STARTCHAR 013C
ENCODING 316
SWIDTH 277 0
DWIDTH 5 0
BBX 4 18 1 -5
BITMAP
C0
C0
C0
C0
C0
C0
C0
C0
C0
C0
C0
F0
70
00
60
60
20
40
ENDCHAR
STARTCHAR 013D
ENCODING 317
SWIDTH 500 0
DWIDTH 9 0
BBX 7 13 2 0
BITMAP
D8
D8
D8
D0
C0
C0
C0
C0
C0
C0
C0
FE
FE
ENDCHAR
STARTCHAR 013E
ENCODING 318
SWIDTH 333 0
DWIDTH 6 0
BBX 6 13 1 0
BITMAP
CC
D8
D8
D8
C0
C0
C0
C0
C0
C0
C0
F0
70
ENDCHAR
STARTCHAR 013F
ENCODING 319
SWIDTH 500 0
DWIDTH 9 0
BBX 7 13 2 0
BITMAP
C0
C0
C0
C0
C0
C0
CC
CC
C0
C0
C0
FE
FE
ENDCHAR
STARTCHAR 0140
ENCODING 320
SWIDTH 388 0
DWIDTH 7 0
BBX 6 13 1 0
BITMAP
C0
C0
C0
C0
C0
C0
C0
CC
CC
C0
C0
F0
70
ENDCHAR
STARTCHAR 0141
ENCODING 321
SWIDTH 500 0
DWIDTH 9 0
BBX 9 13 0 0
BITMAP
3000
3000
3000
3000
3000
3600
3E00
F800
F000
3000
3000
3F80
3F80
ENDCHAR
STARTCHAR 0142
ENCODING 322
SWIDTH 277 0
DWIDTH 5 0
BBX 5 13 0 0
BITMAP
60
60
60
60
60
78
F8
E0
60
60
60
78
38
ENDCHAR
STARTCHAR 0143
ENCODING 323
SWIDTH 722 0
DWIDTH 13 0
BBX 9 18 2 0
BITMAP
0400
0E00
0C00
1800
0000
C180
E180
E180
B180
B180
9980
9980
8D80
8F80
8780
8380
8380
8180
ENDCHAR
STARTCHAR 0144
ENCODING 324
SWIDTH 555 0
DWIDTH 10 0
BBX 8 14 1 0
BITMAP
04
0E
0C
18
00
DE
DF
E3
C3
C3
C3
C3
C3
C3
ENDCHAR
STARTCHAR 0145
ENCODING 325
SWIDTH 722 0
DWIDTH 13 0
BBX 9 18 2 -5
BITMAP
C180
E180
E180
B180
B180
9980
9980
8D80
8F80
8780
8380
8380
8180
0000
1800
1800
0800
1800
ENDCHAR
STARTCHAR 0146
ENCODING 326
SWIDTH 555 0
DWIDTH 10 0
BBX 8 14 1 -5
BITMAP
DE
DF
E3
C3
C3
C3
C3
C3
C3
00
18
18
08
18
ENDCHAR
STARTCHAR 0147
ENCODING 327
SWIDTH 722 0
DWIDTH 13 0
BBX 9 18 2 0
BITMAP
2200
7700
3C00
1C00
0000
C180
E180
E180
B180
B180
9980
9980
8D80
8F80
8780
8380
8380
8180
ENDCHAR
STARTCHAR 0148
ENCODING 328
SWIDTH 555 0
DWIDTH 10 0
BBX 8 14 1 0
BITMAP
22
76
3C
1C
00
DE
DF
E3
C3
C3
C3
C3
C3
C3
ENDCHAR
STARTCHAR 0149
ENCODING 329
SWIDTH 833 0
DWIDTH 15 0
BBX 13 13 1 0
BITMAP
6000
E000
6000
4000
C6F0
07F0
0738
0618
0618
0618
0618
0618
0618
ENDCHAR
STARTCHAR 014A
ENCODING 330
SWIDTH 722 0
DWIDTH 13 0
BBX 9 17 2 -4
BITMAP
C180
E180
E180
B180
B180
9980
9980
8D80
8F80
8780
8380
8380
8180
0180
0180
0380
0380
ENDCHAR
STARTCHAR 014B
ENCODING 331
SWIDTH 555 0
DWIDTH 10 0
BBX 8 13 1 -4
BITMAP
DE
DF
E3
C3
C3
C3
C3
C3
C3
03
03
07
06
ENDCHAR
STARTCHAR 014C
ENCODING 332
SWIDTH 722 0
DWIDTH 13 0
BBX 11 17 1 0
BITMAP
1F00
1F00
0000
0000
1F00
3F80
71C0
E0C0
C060
C060
C060
C060
C060
E0C0
71C0
3F80
1F00
ENDCHAR
STARTCHAR 014D
ENCODING 333
SWIDTH 555 0
DWIDTH 10 0
BBX 8 12 1 0
BITMAP
7E
7E
00
3C
7E
C3
C3
C3
C3
C3
7E
3C
ENDCHAR
STARTCHAR 014E
ENCODING 334
SWIDTH 722 0
DWIDTH 13 0
BBX 11 18 1 0
BITMAP
1100
3300
1F00
0E00
0000
1F00
3F80
71C0
E0C0
C060
C060
C060
C060
C060
E0C0
71C0
3F80
1F00
ENDCHAR
STARTCHAR 014F
ENCODING 335
SWIDTH 555 0
DWIDTH 10 0
BBX 8 14 1 0
BITMAP
42
66
3C
1C
00
3C
7E
C3
C3
C3
C3
C3
7E
3C
ENDCHAR
STARTCHAR 0150
ENCODING 336
SWIDTH 722 0
DWIDTH 13 0
BBX 11 18 1 0
BITMAP
0900
0D80
1900
1300
0000
1F00
3F80
71C0
E0C0
C060
C060
C060
C060
C060
E0C0
71C0
3F80
1F00
ENDCHAR
STARTCHAR 0151
ENCODING 337
SWIDTH 555 0
DWIDTH 10 0
BBX 8 14 1 0
BITMAP
12
1B
36
24
00
3C
7E
C3
C3
C3
C3
C3
7E
3C
ENDCHAR
STARTCHAR 0152
ENCODING 338
SWIDTH 1000 0
DWIDTH 18 0
BBX 16 13 1 0
BITMAP
1FFF
3FFF
70C0
E0C0
C0C0
C0FE
C0FE
C0C0
C0C0
E0C0
70C0
3FFF
1FFF
ENDCHAR
STARTCHAR 0153
ENCODING 339
SWIDTH 944 0
DWIDTH 17 0
BBX 15 9 1 0
BITMAP
3C78
7EFC
C38E
C306
C3FE
C300
C384
7EFE
3C78
ENDCHAR
STARTCHAR 0154
ENCODING 340
SWIDTH 666 0
DWIDTH 12 0
BBX 9 18 2 0
BITMAP
0800
0C00
1800
1000
0000
FE00
FF00
C300
C380
C380
C300
FF00
FE00
CE00
C600
C700
C300
C380
ENDCHAR
STARTCHAR 0155
ENCODING 341
SWIDTH 388 0
DWIDTH 7 0
BBX 6 14 1 0
BITMAP
10
18
30
30
00
DC
DC
E0
C0
C0
C0
C0
C0
C0
ENDCHAR
STARTCHAR 0156
ENCODING 342
SWIDTH 666 0
DWIDTH 12 0
BBX 9 18 2 -5
BITMAP
FE00
FF00
C300
C380
C380
C300
FF00
FE00
CE00
C600
C700
C300
C380
0000
1800
1800
0800
1000
ENDCHAR
STARTCHAR 0157
ENCODING 343
SWIDTH 388 0
DWIDTH 7 0
BBX 6 14 1 -5
BITMAP
DC
DC
E0
C0
C0
C0
C0
C0
C0
00
C0
C0
40
C0
ENDCHAR
STARTCHAR 0158
ENCODING 344
SWIDTH 666 0
DWIDTH 12 0
BBX 9 18 2 0
BITMAP
4400
EE00
3C00
3800
0000
FE00
FF00
C300
C380
C380
C300
FF00
FE00
CE00
C600
C700
C300
C380
ENDCHAR
STARTCHAR 0159
ENCODING 345
SWIDTH 388 0
DWIDTH 7 0
BBX 6 14 1 0
BITMAP
84
CC
78
30
00
DC
DC
E0
C0
C0
C0
C0
C0
C0
ENDCHAR
STARTCHAR 015A
ENCODING 346
SWIDTH 611 0
DWIDTH 11 0
BBX 9 18 1 0
BITMAP
0400
0E00
0C00
1800
0000
3E00
7F00
E380
C000
C000
7C00
3F00
0780
0180
8180
C380
FF00
3E00
ENDCHAR
STARTCHAR 015B
ENCODING 347
SWIDTH 500 0
DWIDTH 9 0
BBX 7 14 1 0
BITMAP
08
1C
18
30
00
7C
FE
C4
F0
7E
1E
86
FE
7C
ENDCHAR
STARTCHAR 015C
ENCODING 348
SWIDTH 611 0
DWIDTH 11 0
BBX 9 18 1 0
BITMAP
1C00
3C00
3600
6200
0000
3E00
7F00
E380
C000
C000
7C00
3F00
0780
0180
8180
C380
FF00
3E00
ENDCHAR
STARTCHAR 015D
ENCODING 349
SWIDTH 500 0
DWIDTH 9 0
BBX 7 14 1 0
BITMAP
38
78
6C
C6
00
7C
FE
C4
F0
7E
1E
86
FE
7C
ENDCHAR
STARTCHAR 015E
ENCODING 350
SWIDTH 611 0
DWIDTH 11 0
BBX 9 17 1 -4
BITMAP
3E00
7F00
E380
C000
C000
7C00
3F00
0780
0180
8180
C380
FF00
3E00
0800
0C00
3600
1C00
ENDCHAR
STARTCHAR 015F
ENCODING 351
SWIDTH 500 0
DWIDTH 9 0
BBX 7 13 1 -4
BITMAP
7C
FE
C4
F0
7E
1E
86
FE
7C
10
1C
4C
38
ENDCHAR
STARTCHAR 0160
ENCODING 352
SWIDTH 611 0
DWIDTH 11 0
BBX 9 18 1 0
BITMAP
2200
7600
3C00
1C00
0000
3E00
7F00
E380
C000
C000
7C00
3F00
0780
0180
8180
C380
FF00
3E00
ENDCHAR
STARTCHAR 0161
ENCODING 353
SWIDTH 500 0
DWIDTH 9 0
BBX 7 14 1 0
BITMAP
44
EE
78
38
00
7C
FE
C4
F0
7E
1E
86
FE
7C
ENDCHAR
STARTCHAR 0162
ENCODING 354
SWIDTH 555 0
DWIDTH 10 0
BBX 10 17 0 -4
BITMAP
FFC0
FFC0
0C00
0C00
0C00
0C00
0C00
0C00
0C00
0C00
0C00
0C00
0C00
0400
0E00
1300
0E00
ENDCHAR
STARTCHAR 0163
ENCODING 355
SWIDTH 388 0
DWIDTH 7 0
BBX 6 16 0 -4
BITMAP
30
30
30
FC
FC
30
30
30
30
30
3C
3C
10
1C
24
3C
ENDCHAR
STARTCHAR 0164
ENCODING 356
SWIDTH 555 0
DWIDTH 10 0
BBX 10 18 0 0
BITMAP
3100
3B00
1E00
0E00
0000
FFC0
FFC0
0C00
0C00
0C00
0C00
0C00
0C00
0C00
0C00
0C00
0C00
0C00
ENDCHAR
STARTCHAR 0165
ENCODING 357
SWIDTH 388 0
DWIDTH 7 0
BBX 7 14 0 0
BITMAP
06
06
36
34
30
FC
FC
30
30
30
30
30
3C
3C
ENDCHAR
STARTCHAR 0166
ENCODING 358
SWIDTH 611 0
DWIDTH 11 0
BBX 9 13 1 0
BITMAP
FF80
FF80
1800
1800
1800
7F00
7F00
1800
1800
1800
1800
1800
1800
ENDCHAR
STARTCHAR 0167
ENCODING 359
SWIDTH 388 0
DWIDTH 7 0
BBX 5 12 1 0
BITMAP
60
60
60
F8
F8
60
F8
60
60
60
78
38
ENDCHAR
STARTCHAR 0168
ENCODING 360
SWIDTH 666 0
DWIDTH 12 0
BBX 10 18 1 0
BITMAP
1900
3F00
2700
0000
0000
C0C0
C0C0
C0C0
C0C0
C0C0
C0C0
C0C0
C0C0
60C0
60C0
6180
7F80
1F00
ENDCHAR
STARTCHAR 0169
ENCODING 361
SWIDTH 555 0
DWIDTH 10 0
BBX 8 13 1 0
BITMAP
32
7E
4E
00
C3
C3
C3
C3
C3
C3
E3
7F
3B
ENDCHAR
STARTCHAR 016A
ENCODING 362
SWIDTH 666 0
DWIDTH 12 0
BBX 10 17 1 0
BITMAP
1F00
1F00
0000
0000
C0C0
C0C0
C0C0
C0C0
C0C0
C0C0
C0C0
C0C0
60C0
60C0
6180
7F80
1F00
ENDCHAR
STARTCHAR 016B
ENCODING 363
SWIDTH 555 0
DWIDTH 10 0
BBX 8 12 1 0
BITMAP
3E
3E
00
C3
C3
C3
C3
C3
C3
E3
7F
3B
ENDCHAR
STARTCHAR 016C
ENCODING 364
SWIDTH 666 0
DWIDTH 12 0
BBX 10 18 1 0
BITMAP
2100
3300
1F00
0E00
0000
C0C0
C0C0
C0C0
C0C0
C0C0
C0C0
C0C0
C0C0
60C0
60C0
6180
7F80
1F00
ENDCHAR
STARTCHAR 016D
ENCODING 365
SWIDTH 555 0
DWIDTH 10 0
BBX 8 14 1 0
BITMAP
62
66
3E
1C
00
C3
C3
C3
C3
C3
C3
E3
7F
3B
ENDCHAR
STARTCHAR 016E
ENCODING 366
SWIDTH 666 0
DWIDTH 12 0
BBX 10 18 1 0
BITMAP
0E00
1200
1300
0E00
0000
C0C0
C0C0
C0C0
C0C0
C0C0
C0C0
C0C0
C0C0
60C0
60C0
6180
7F80
1F00
ENDCHAR
STARTCHAR 016F
ENCODING 367
SWIDTH 555 0
DWIDTH 10 0
BBX 8 14 1 0
BITMAP
1C
24
26
1C
00
C3
C3
C3
C3
C3
C3
E3
7F
3B
ENDCHAR
STARTCHAR 0170
ENCODING 368
SWIDTH 666 0
DWIDTH 12 0
BBX 10 18 1 0
BITMAP
0900
0D80
1B00
1200
0000
C0C0
C0C0
C0C0
C0C0
C0C0
C0C0
C0C0
C0C0
60C0
60C0
6180
7F80
1F00
ENDCHAR
STARTCHAR 0171
ENCODING 369
SWIDTH 555 0
DWIDTH 10 0
BBX 8 14 1 0
BITMAP
12
1B
36
24
00
C3
C3
C3
C3
C3
C3
E3
7F
3B
ENDCHAR
STARTCHAR 0172
ENCODING 370
SWIDTH 666 0
DWIDTH 12 0
BBX 10 17 1 -4
BITMAP
C0C0
C0C0
C0C0
C0C0
C0C0
C0C0
C0C0
C0C0
60C0
60C0
61C0
7F80
1F80
0300
0600
0500
0700
ENDCHAR
STARTCHAR 0173
ENCODING 371
SWIDTH 555 0
DWIDTH 10 0
BBX 9 13 1 -4
BITMAP
C300
C300
C300
C300
C300
C300
E300
7F00
3B00
0200
0600
0500
0780
ENDCHAR
STARTCHAR 0174
ENCODING 372
SWIDTH 944 0
DWIDTH 17 0
BBX 16 18 0 0
BITMAP
01C0
03C0
0360
0630
0000
E1C3
61C3
61C3
6342
6366
3366
3266
3624
362C
163C
1C3C
1C18
1C18
ENDCHAR
STARTCHAR 0175
ENCODING 373
SWIDTH 777 0
DWIDTH 14 0
BBX 14 14 0 0
BITMAP
0380
0780
0EC0
0C40
0000
E30C
6388
6398
6698
3698
34D0
3CF0
1C70
1870
ENDCHAR
STARTCHAR 0176
ENCODING 374
SWIDTH 611 0
DWIDTH 11 0
BBX 11 18 0 0
BITMAP
0E00
0F00
1B00
3180
0000
E0E0
60C0
31C0
3180
1B00
1B00
0E00
0E00
0600
0600
0600
0600
0600
ENDCHAR
STARTCHAR 0177
ENCODING 375
SWIDTH 500 0
DWIDTH 9 0
BBX 9 18 0 -4
BITMAP
1C00
1E00
3600
2300
0000
C180
6180
6300
6300
3200
3600
1600
1C00
1C00
0C00
1800
7800
7000
ENDCHAR
STARTCHAR 0178
ENCODING 376
SWIDTH 611 0
DWIDTH 11 0
BBX 11 17 0 0
BITMAP
1B00
1B00
0000
0000
E0E0
60C0
31C0
3180
1B00
1B00
0E00
0E00
0600
0600
0600
0600
0600
ENDCHAR
STARTCHAR 0179
ENCODING 377
SWIDTH 611 0
DWIDTH 11 0
BBX 9 18 1 0
BITMAP
0400
0E00
0C00
1800
0000
FF80
FF80
0300
0700
0600
0C00
1800
3800
3000
6000
C000
FF80
FF80
ENDCHAR
STARTCHAR 017A
ENCODING 378
SWIDTH 500 0
DWIDTH 9 0
BBX 7 14 1 0
BITMAP
08
1C
18
30
00
FE
FE
0C
18
30
60
C0
FE
FE
ENDCHAR
STARTCHAR 017B
ENCODING 379
SWIDTH 611 0
DWIDTH 11 0
BBX 9 17 1 0
BITMAP
1C00
1C00
0000
0000
FF80
FF80
0300
0700
0600
0C00
1800
3800
3000
6000
C000
FF80
FF80
ENDCHAR
STARTCHAR 017C
ENCODING 380
SWIDTH 500 0
DWIDTH 9 0
BBX 7 12 1 0
BITMAP
38
38
00
FE
FE
0C
18
30
60
C0
FE
FE
ENDCHAR
STARTCHAR 017D
ENCODING 381
SWIDTH 611 0
DWIDTH 11 0
BBX 9 18 1 0
BITMAP
2200
7700
3C00
1C00
0000
FF80
FF80
0300
0700
0600
0C00
1800
3800
3000
6000
C000
FF80
FF80
ENDCHAR
STARTCHAR 017E
ENCODING 382
SWIDTH 500 0
DWIDTH 9 0
BBX 7 14 1 0
BITMAP
44
EE
78
38
00
FE
FE
0C
18
30
60
C0
FE
FE
ENDCHAR
STARTCHAR 017F
ENCODING 383
SWIDTH 277 0
DWIDTH 5 0
BBX 6 13 0 0
BITMAP
1C
3C
30
30
F0
F0
30
30
30
30
30
30
30
ENDCHAR
STARTCHAR 018F
ENCODING 399
SWIDTH 722 0
DWIDTH 13 0
BBX 11 13 1 0
BITMAP
1F00
3F80
71C0
E0C0
0060
0060
FFE0
FFE0
C060
E0C0
71C0
3F80
1F00
ENDCHAR
STARTCHAR 0192
ENCODING 402
SWIDTH 500 0
DWIDTH 9 0
BBX 8 15 0 -2
BITMAP
07
0F
0C
0C
18
18
7F
7F
18
18
18
18
18
F0
F0
ENDCHAR
STARTCHAR 01A0
ENCODING 416
SWIDTH 722 0
DWIDTH 13 0
BBX 11 15 1 0
BITMAP
0060
0060
1FE0
3FC0
71C0
E0C0
C060
C060
C060
C060
C060
E0C0
71C0
3F80
1F00
ENDCHAR
STARTCHAR 01A1
ENCODING 417
SWIDTH 555 0
DWIDTH 10 0
BBX 9 11 1 0
BITMAP
0180
0180
3F00
7F00
C300
C300
C300
C300
C300
7E00
3C00
ENDCHAR
STARTCHAR 01AF
ENCODING 431
SWIDTH 666 0
DWIDTH 12 0
BBX 11 15 1 0
BITMAP
0060
0060
C0E0
C0C0
C0C0
C0C0
C0C0
C0C0
C0C0
C0C0
60C0
60C0
6180
7F80
1F00
ENDCHAR
STARTCHAR 01B0
ENCODING 432
SWIDTH 555 0
DWIDTH 10 0
BBX 9 11 1 0
BITMAP
0080
0080
C380
C300
C300
C300
C300
C300
E300
7F00
3B00
ENDCHAR
STARTCHAR 01CD
ENCODING 461
SWIDTH 666 0
DWIDTH 12 0
BBX 12 18 0 0
BITMAP
1080
1B80
0F00
0600
0000
0600
0F00
0F00
0B00
1980
1980
1180
30C0
3FC0
3FC0
60E0
6060
E070
ENDCHAR
STARTCHAR 01CE
ENCODING 462
SWIDTH 555 0
DWIDTH 10 0
BBX 8 14 1 0
BITMAP
44
6E
3C
38
00
7C
FE
46
06
7E
C6
C6
FB
73
ENDCHAR
STARTCHAR 01CF
ENCODING 463
SWIDTH 388 0
DWIDTH 7 0
BBX 6 18 1 0
BITMAP
88
DC
78
70
00
F8
F8
30
30
30
30
30
30
30
30
30
F8
F8
ENDCHAR
STARTCHAR 01D0
ENCODING 464
SWIDTH 277 0
DWIDTH 5 0
BBX 7 14 -1 0
BITMAP
44
EE
78
38
00
30
30
30
30
30
30
30
30
30
ENDCHAR
STARTCHAR 01D1
ENCODING 465
SWIDTH 722 0
DWIDTH 13 0
BBX 11 18 1 0
BITMAP
1100
3B80
1E00
0E00
0000
1F00
3F80
71C0
E0C0
C060
C060
C060
C060
C060
E0C0
71C0
3F80
1F00
ENDCHAR
STARTCHAR 01D2
ENCODING 466
SWIDTH 555 0
DWIDTH 10 0
BBX 8 14 1 0
BITMAP
42
76
3C
18
00
3C
7E
C3
C3
C3
C3
C3
7E
3C
ENDCHAR
STARTCHAR 01D3
ENCODING 467
SWIDTH 666 0
DWIDTH 12 0
BBX 10 18 1 0
BITMAP
3100
3B00
1E00
0C00
0000
C0C0
C0C0
C0C0
C0C0
C0C0
C0C0
C0C0
C0C0
60C0
60C0
6180
7F80
1F00
ENDCHAR
STARTCHAR 01D4
ENCODING 468
SWIDTH 555 0
DWIDTH 10 0
BBX 8 14 1 0
BITMAP
62
76
3C
1C
00
C3
C3
C3
C3
C3
C3
E3
7F
3B
ENDCHAR
STARTCHAR 01D5
ENCODING 469
SWIDTH 666 0
DWIDTH 12 0
BBX 10 19 1 0
BITMAP
1F00
1F00
0000
3300
3300
0000
C0C0
C0C0
C0C0
C0C0
C0C0
C0C0
C0C0
C0C0
60C0
60C0
6180
7F80
1F00
ENDCHAR
STARTCHAR 01D6
ENCODING 470
SWIDTH 555 0
DWIDTH 10 0
BBX 8 15 1 0
BITMAP
3E
3E
00
66
66
00
C3
C3
C3
C3
C3
C3
E3
7F
3B
ENDCHAR
STARTCHAR 01D7
ENCODING 471
SWIDTH 666 0
DWIDTH 12 0
BBX 10 20 1 0
BITMAP
0600
0600
0C00
0800
3300
3300
0000
C0C0
C0C0
C0C0
C0C0
C0C0
C0C0
C0C0
C0C0
60C0
60C0
6180
7F80
1F00
ENDCHAR
STARTCHAR 01D8
ENCODING 472
SWIDTH 555 0
DWIDTH 10 0
BBX 8 16 1 0
BITMAP
04
0E
08
10
66
66
00
C3
C3
C3
C3
C3
C3
E3
7F
3B
ENDCHAR
STARTCHAR 01D9
ENCODING 473
SWIDTH 666 0
DWIDTH 12 0
BBX 10 21 1 0
BITMAP
3100
3B00
1E00
0C00
0000
3300
3300
0000
C0C0
C0C0
C0C0
C0C0
C0C0
C0C0
C0C0
C0C0
60C0
60C0
6180
7F80
1F00
ENDCHAR
STARTCHAR 01DA
ENCODING 474
SWIDTH 555 0
DWIDTH 10 0
BBX 8 17 1 0
BITMAP
22
76
3C
18
00
66
66
00
C3
C3
C3
C3
C3
C3
E3
7F
3B
ENDCHAR
STARTCHAR 01DB
ENCODING 475
SWIDTH 666 0
DWIDTH 12 0
BBX 10 20 1 0
BITMAP
1800
1800
0C00
0800
3300
3300
0000
C0C0
C0C0
C0C0
C0C0
C0C0
C0C0
C0C0
C0C0
60C0
60C0
6180
7F80
1F00
ENDCHAR
STARTCHAR 01DC
ENCODING 476
SWIDTH 555 0
DWIDTH 10 0
BBX 8 16 1 0
BITMAP
30
10
18
10
66
66
00
C3
C3
C3
C3
C3
C3
E3
7F
3B
ENDCHAR
STARTCHAR 01FA
ENCODING 506
SWIDTH 666 0
DWIDTH 12 0
BBX 12 22 0 0
BITMAP
0200
0300
0600
0000
0F00
0900
0900
0F00
0000
0600
0F00
0F00
0B00
1980
1980
1180
30C0
3FC0
3FC0
60E0
6060
E070
ENDCHAR
STARTCHAR 01FB
ENCODING 507
SWIDTH 555 0
DWIDTH 10 0
BBX 8 18 1 0
BITMAP
08
0C
10
00
38
64
64
38
00
7C
FE
46
06
7E
C6
C6
FB
73
ENDCHAR
STARTCHAR 01FC
ENCODING 508
SWIDTH 944 0
DWIDTH 17 0
BBX 16 18 0 0
BITMAP
0010
0018
0030
0020
0000
03FF
03FF
06C0
06C0
0CC0
0CFE
18FE
18C0
3FC0
3FC0
60C0
60FF
C0FF
ENDCHAR
STARTCHAR 01FD
ENCODING 509
SWIDTH 888 0
DWIDTH 16 0
BBX 14 14 1 0
BITMAP
0100
0180
0300
0200
0000
78F0
FDF8
471C
060C
7FFC
C600
C708
FDF8
78F0
ENDCHAR
STARTCHAR 01FE
ENCODING 510
SWIDTH 722 0
DWIDTH 13 0
BBX 11 19 1 -1
BITMAP
0200
0700
0600
0C00
0040
1F60
3FC0
71C0
E1C0
C360
C660
C460
CC60
D860
F0C0
61C0
7F80
DF00
4000
ENDCHAR
STARTCHAR 01FF
ENCODING 511
SWIDTH 555 0
DWIDTH 10 0
BBX 10 15 0 -1
BITMAP
0400
0600
0400
0C00
0080
1EC0
3F80
6380
6780
6D80
7980
7180
7F80
7E00
C000
ENDCHAR
STARTCHAR 0218
ENCODING 536
SWIDTH 611 0
DWIDTH 11 0
BBX 9 18 1 -5
BITMAP
3E00
7F00
E380
C000
C000
7C00
3F00
0780
0180
8180
C380
FF00
3E00
0000
1800
1800
0800
1800
ENDCHAR
STARTCHAR 0219
ENCODING 537
SWIDTH 500 0
DWIDTH 9 0
BBX 7 14 1 -5
BITMAP
7C
FE
C4
F0
7E
1E
86
FE
7C
00
30
30
10
30
ENDCHAR
STARTCHAR 021A
ENCODING 538
SWIDTH 555 0
DWIDTH 10 0
BBX 10 18 0 -5
BITMAP
FFC0
FFC0
0C00
0C00
0C00
0C00
0C00
0C00
0C00
0C00
0C00
0C00
0C00
0000
0C00
0C00
0400
0C00
ENDCHAR
STARTCHAR 021B
ENCODING 539
SWIDTH 388 0
DWIDTH 7 0
BBX 6 17 0 -5
BITMAP
30
30
30
FC
FC
30
30
30
30
30
3C
3C
00
18
18
18
10
ENDCHAR
STARTCHAR 0237
ENCODING 567
SWIDTH 277 0
DWIDTH 5 0
BBX 3 13 0 -4
BITMAP
60
60
60
60
60
60
60
60
60
60
60
E0
E0
ENDCHAR
STARTCHAR 0259
ENCODING 601
SWIDTH 555 0
DWIDTH 10 0
BBX 8 9 1 0
BITMAP
3C
FE
43
03
FF
C3
C3
7E
3C
ENDCHAR
STARTCHAR 02BB
ENCODING 699
SWIDTH 611 0
DWIDTH 11 0
BBX 3 4 4 11
BITMAP
60
40
C0
C0
ENDCHAR
STARTCHAR 02BC
ENCODING 700
SWIDTH 611 0
DWIDTH 11 0
BBX 2 4 4 9
BITMAP
C0
C0
C0
80
ENDCHAR
STARTCHAR 02C6
ENCODING 710
SWIDTH 611 0
DWIDTH 11 0
BBX 7 4 2 10
BITMAP
38
78
6C
C6
ENDCHAR
STARTCHAR 02C7
ENCODING 711
SWIDTH 611 0
DWIDTH 11 0
BBX 7 4 2 10
BITMAP
44
EE
78
38
ENDCHAR
STARTCHAR 02D8
ENCODING 728
SWIDTH 611 0
DWIDTH 11 0
BBX 6 4 2 10
BITMAP
44
CC
7C
38
ENDCHAR
STARTCHAR 02D9
ENCODING 729
SWIDTH 611 0
DWIDTH 11 0
BBX 3 2 4 10
BITMAP
E0
E0
ENDCHAR
STARTCHAR 02DA
ENCODING 730
SWIDTH 611 0
DWIDTH 11 0
BBX 5 4 3 10
BITMAP
70
98
98
70
ENDCHAR
STARTCHAR 02DB
ENCODING 731
SWIDTH 611 0
DWIDTH 11 0
BBX 4 4 2 -4
BITMAP
30
40
D0
70
ENDCHAR
STARTCHAR 02DC
ENCODING 732
SWIDTH 611 0
DWIDTH 11 0
BBX 7 3 2 10
BITMAP
64
FE
9C
ENDCHAR
STARTCHAR 02DD
ENCODING 733
SWIDTH 611 0
DWIDTH 11 0
BBX 6 4 3 10
BITMAP
48
6C
C8
98
ENDCHAR
STARTCHAR 0300
ENCODING 768
SWIDTH 0 0
DWIDTH 0 0
BBX 3 4 -2 10
BITMAP
40
C0
60
60
ENDCHAR
STARTCHAR 0301
ENCODING 769
SWIDTH 0 0
DWIDTH 0 0
BBX 3 4 -1 10
BITMAP
40
60
C0
C0
ENDCHAR
STARTCHAR 0302
ENCODING 770
SWIDTH 0 0
DWIDTH 0 0
BBX 6 4 -3 10
BITMAP
30
78
CC
84
ENDCHAR
STARTCHAR 0303
ENCODING 771
SWIDTH 0 0
DWIDTH 0 0
BBX 6 3 -3 10
BITMAP
64
FC
98
ENDCHAR
STARTCHAR 0304
ENCODING 772
SWIDTH 0 0
DWIDTH 0 0
BBX 6 2 -3 10
BITMAP
FC
FC
ENDCHAR
STARTCHAR 0306
ENCODING 774
SWIDTH 0 0
DWIDTH 0 0
BBX 6 4 -3 10
BITMAP
84
CC
78
78
ENDCHAR
STARTCHAR 0307
ENCODING 775
SWIDTH 0 0
DWIDTH 0 0
BBX 2 2 -1 10
BITMAP
C0
C0
ENDCHAR
STARTCHAR 0308
ENCODING 776
SWIDTH 0 0
DWIDTH 0 0
BBX 6 2 -3 10
BITMAP
CC
CC
ENDCHAR
STARTCHAR 0309
ENCODING 777
SWIDTH 0 0
DWIDTH 0 0
BBX 4 4 -2 10
BITMAP
F0
F0
30
60
ENDCHAR
STARTCHAR 030A
ENCODING 778
SWIDTH 0 0
DWIDTH 0 0
BBX 4 4 -2 10
BITMAP
F0
90
90
F0
ENDCHAR
STARTCHAR 030B
ENCODING 779
SWIDTH 0 0
DWIDTH 0 0
BBX 7 4 -3 10
BITMAP
24
76
6C
C8
ENDCHAR
STARTCHAR 030C
ENCODING 780
SWIDTH 0 0
DWIDTH 0 0
BBX 6 4 -3 10
BITMAP
84
CC
78
30
ENDCHAR
STARTCHAR 0312
ENCODING 786
SWIDTH 0 0
DWIDTH 0 0
BBX 2 4 -1 11
BITMAP
40
80
C0
C0
ENDCHAR
STARTCHAR 0315
ENCODING 789
SWIDTH 0 0
DWIDTH 0 0
BBX 2 4 0 9
BITMAP
C0
C0
C0
80
ENDCHAR
STARTCHAR 031B
ENCODING 795
SWIDTH 0 0
DWIDTH 0 0
BBX 4 3 -2 8
BITMAP
30
30
F0
ENDCHAR
STARTCHAR 0323
ENCODING 803
SWIDTH 0 0
DWIDTH 0 0
BBX 2 2 -1 -3
BITMAP
C0
C0
ENDCHAR
STARTCHAR 0326
ENCODING 806
SWIDTH 0 0
DWIDTH 0 0
BBX 2 4 -1 -5
BITMAP
C0
C0
40
80
ENDCHAR
STARTCHAR 0327
ENCODING 807
SWIDTH 0 0
DWIDTH 0 0
BBX 4 4 -2 -4
BITMAP
60
70
90
F0
ENDCHAR
STARTCHAR 0328
ENCODING 808
SWIDTH 0 0
DWIDTH 0 0
BBX 3 4 -3 -4
BITMAP
60
80
A0
E0
ENDCHAR
STARTCHAR 037E
ENCODING 894
SWIDTH 333 0
DWIDTH 6 0
BBX 3 12 1 -2
BITMAP
60
E0
60
00
00
00
00
60
E0
60
60
C0
ENDCHAR
STARTCHAR 0384
ENCODING 900
SWIDTH 611 0
DWIDTH 11 0
BBX 2 4 5 10
BITMAP
C0
C0
C0
80
ENDCHAR
STARTCHAR 0385
ENCODING 901
SWIDTH 611 0
DWIDTH 11 0
BBX 7 4 2 10
BITMAP
18
D6
D6
10
ENDCHAR
STARTCHAR 0386
ENCODING 902
SWIDTH 666 0
DWIDTH 12 0
BBX 12 14 0 0
BITMAP
6000
6600
4F00
4F00
0B00
1980
1980
1180
30C0
3FC0
3FC0
60E0
6060
E070
ENDCHAR
STARTCHAR 0387
ENCODING 903
SWIDTH 333 0
DWIDTH 6 0
BBX 3 3 1 7
BITMAP
60
E0
60
ENDCHAR
STARTCHAR 0388
ENCODING 904
SWIDTH 666 0
DWIDTH 12 0
BBX 11 14 0 0
BITMAP
C000
DFE0
9FE0
9800
1800
1800
1FC0
1FC0
1800
1800
1800
1800
1FE0
1FE0
ENDCHAR
STARTCHAR 0389
ENCODING 905
SWIDTH 777 0
DWIDTH 14 0
BBX 12 14 0 0
BITMAP
C000
D830
9830
9830
1830
1830
1FF0
1FF0
1830
1830
1830
1830
1830
1830
ENDCHAR
STARTCHAR 038A
ENCODING 906
SWIDTH 500 0
DWIDTH 9 0
BBX 8 14 0 0
BITMAP
C0
DF
9F
8C
0C
0C
0C
0C
0C
0C
0C
0C
1F
1F
ENDCHAR
STARTCHAR 038C
ENCODING 908
SWIDTH 722 0
DWIDTH 13 0
BBX 12 14 0 0
BITMAP
C000
CF80
9FE0
B860
3030
3030
7030
7030
7030
3030
3030
3860
1FE0
0F80
ENDCHAR
STARTCHAR 038E
ENCODING 910
SWIDTH 722 0
DWIDTH 13 0
BBX 13 14 0 0
BITMAP
C000
F838
9830
8C70
0C60
06C0
06C0
0380
0380
0380
0380
0380
0380
0380
ENDCHAR
STARTCHAR 038F
ENCODING 911
SWIDTH 722 0
DWIDTH 13 0
BBX 12 14 0 0
BITMAP
C000
CF80
9FE0
B860
3030
3030
7030
7030
3030
3030
1860
0CC0
7CF0
7CF0
ENDCHAR
STARTCHAR 0390
ENCODING 912
SWIDTH 333 0
DWIDTH 6 0
BBX 7 14 -1 0
BITMAP
18
D6
D6
10
00
30
30
30
30
30
30
30
3C
1C
ENDCHAR
STARTCHAR 0391
ENCODING 913
SWIDTH 666 0
DWIDTH 12 0
BBX 12 13 0 0
BITMAP
0600
0F00
0F00
0B00
1980
1980
1180
30C0
3FC0
3FC0
60E0
6060
E070
ENDCHAR
STARTCHAR 0392
ENCODING 914
SWIDTH 666 0
DWIDTH 12 0
BBX 9 13 2 0
BITMAP
FE00
FF00
C300
C300
C300
FE00
FF00
C380
C180
C180
C380
FF00
FE00
ENDCHAR
STARTCHAR 0393
ENCODING 915
SWIDTH 500 0
DWIDTH 9 0
BBX 7 13 2 0
BITMAP
FE
FE
C0
C0
C0
C0
C0
C0
C0
C0
C0
C0
C0
ENDCHAR
STARTCHAR 0394
ENCODING 916
SWIDTH 666 0
DWIDTH 12 0
BBX 10 13 1 0
BITMAP
1C00
1E00
1E00
3600
3300
3300
6300
6180
6180
C180
C0C0
FFC0
FFC0
ENDCHAR
STARTCHAR 0395
ENCODING 917
SWIDTH 611 0
DWIDTH 11 0
BBX 8 13 2 0
BITMAP
FF
FF
C0
C0
C0
FE
FE
C0
C0
C0
C0
FF
FF
ENDCHAR
STARTCHAR 0396
ENCODING 918
SWIDTH 611 0
DWIDTH 11 0
BBX 9 13 1 0
BITMAP
FF80
FF80
0300
0700
0600
0C00
1800
3800
3000
6000
C000
FF80
FF80
ENDCHAR
STARTCHAR 0397
ENCODING 919
SWIDTH 722 0
DWIDTH 13 0
BBX 9 13 2 0
BITMAP
C180
C180
C180
C180
C180
FF80
FF80
C180
C180
C180
C180
C180
C180
ENDCHAR
STARTCHAR 0398
ENCODING 920
SWIDTH 722 0
DWIDTH 13 0
BBX 11 13 1 0
BITMAP
1F00
3F80
71C0
E0C0
C060
DF60
DF60
C060
C060
E0C0
71C0
3F80
1F00
ENDCHAR
STARTCHAR 0399
ENCODING 921
SWIDTH 388 0
DWIDTH 7 0
BBX 5 13 1 0
BITMAP
F8
F8
30
30
30
30
30
30
30
30
30
F8
F8
ENDCHAR
STARTCHAR 039A
ENCODING 922
SWIDTH 666 0
DWIDTH 12 0
BBX 10 13 2 0
BITMAP
C380
C300
C600
CC00
DC00
F800
F800
EC00
CE00
C600
C300
C380
C1C0
ENDCHAR
STARTCHAR 039B
ENCODING 923
SWIDTH 666 0
DWIDTH 12 0
BBX 11 13 0 0
BITMAP
0E00
0F00
0F00
1B00
1980
1980
3180
3180
30C0
30C0
60C0
6060
E060
ENDCHAR
STARTCHAR 039C
ENCODING 924
SWIDTH 833 0
DWIDTH 15 0
BBX 11 13 2 0
BITMAP
C060
E0E0
E1E0
B1E0
B360
9B60
9E60
8E60
8460
8460
8060
8060
8060
ENDCHAR
STARTCHAR 039D
ENCODING 925
SWIDTH 722 0
DWIDTH 13 0
BBX 9 13 2 0
BITMAP
C180
E180
E180
B180
B180
9980
9980
8D80
8F80
8780
8380
8380
8180
ENDCHAR
STARTCHAR 039E
ENCODING 926
SWIDTH 611 0
DWIDTH 11 0
BBX 9 13 1 0
BITMAP
FF80
FF80
0000
0000
0000
7F00
7F00
0000
0000
0000
0000
FF80
FF80
ENDCHAR
STARTCHAR 039F
ENCODING 927
SWIDTH 722 0
DWIDTH 13 0
BBX 11 13 1 0
BITMAP
1F00
3F80
71C0
E0C0
C060
C060
C060
C060
C060
E0C0
71C0
3F80
1F00
ENDCHAR
STARTCHAR 03A0
ENCODING 928
SWIDTH 722 0
DWIDTH 13 0
BBX 9 13 2 0
BITMAP
FF80
FF80
C180
C180
C180
C180
C180
C180
C180
C180
C180
C180
C180
ENDCHAR
STARTCHAR 03A1
ENCODING 929
SWIDTH 611 0
DWIDTH 11 0
BBX 9 13 2 0
BITMAP
FE00
FF00
C300
C380
C380
C300
FF00
FE00
C000
C000
C000
C000
C000
ENDCHAR
STARTCHAR 03A3
ENCODING 931
SWIDTH 611 0
DWIDTH 11 0
BBX 9 13 1 0
BITMAP
FF80
FF80
E000
7000
3800
1C00
0C00
1800
3000
7000
E000
FF80
FF80
ENDCHAR
STARTCHAR 03A4
ENCODING 932
SWIDTH 555 0
DWIDTH 10 0
BBX 10 13 0 0
BITMAP
FFC0
FFC0
0C00
0C00
0C00
0C00
0C00
0C00
0C00
0C00
0C00
0C00
0C00
ENDCHAR
STARTCHAR 03A5
ENCODING 933
SWIDTH 611 0
DWIDTH 11 0
BBX 11 13 0 0
BITMAP
E0E0
60C0
31C0
3180
1B00
1B00
0E00
0E00
0600
0600
0600
0600
0600
ENDCHAR
STARTCHAR 03A6
ENCODING 934
SWIDTH 833 0
DWIDTH 15 0
BBX 13 15 1 -1
BITMAP
0300
1FC0
3FF0
7330
E318
C318
C318
C318
C318
C318
E318
7330
3FF0
1FC0
0300
ENDCHAR
STARTCHAR 03A7
ENCODING 935
SWIDTH 666 0
DWIDTH 12 0
BBX 11 13 0 0
BITMAP
60E0
70C0
3180
1980
1F00
0F00
0E00
0F00
1B00
1980
31C0
60C0
E0E0
ENDCHAR
STARTCHAR 03A8
ENCODING 936
SWIDTH 833 0
DWIDTH 15 0
BBX 12 13 1 0
BITMAP
C630
C630
C630
C630
C630
E630
6670
7FE0
1FC0
0600
0600
0600
0600
ENDCHAR
STARTCHAR 03A9
ENCODING 937
SWIDTH 722 0
DWIDTH 13 0
BBX 11 13 1 0
BITMAP
1F00
3F80
71C0
E0E0
C060
C060
C060
C060
60C0
71C0
3180
F1E0
F1E0
ENDCHAR
STARTCHAR 03AA
ENCODING 938
SWIDTH 388 0
DWIDTH 7 0
BBX 6 17 1 0
BITMAP
DC
DC
00
00
F8
F8
30
30
30
30
30
30
30
30
30
F8
F8
ENDCHAR
STARTCHAR 03AB
ENCODING 939
SWIDTH 611 0
DWIDTH 11 0
BBX 11 17 0 0
BITMAP
1B00
1B00
0000
0000
E0E0
60C0
31C0
3180
1B00
1B00
0E00
0E00
0600
0600
0600
0600
0600
ENDCHAR
STARTCHAR 03AC
ENCODING 940
SWIDTH 666 0
DWIDTH 12 0
BBX 10 14 1 0
BITMAP
0C00
0800
1800
1800
0000
38C0
7C80
C780
C300
C300
C380
C780
7DC0
38C0
ENDCHAR
STARTCHAR 03AD
ENCODING 941
SWIDTH 500 0
DWIDTH 9 0
BBX 8 14 1 0
BITMAP
0C
08
18
18
00
3C
FE
C3
C0
3C
C0
C3
FE
7C
ENDCHAR
STARTCHAR 03AE
ENCODING 942
SWIDTH 611 0
DWIDTH 11 0
BBX 8 18 1 -4
BITMAP
0C
0C
0C
08
00
CE
DF
63
63
63
63
63
63
63
03
03
03
03
ENDCHAR
STARTCHAR 03AF
ENCODING 943
SWIDTH 333 0
DWIDTH 6 0
BBX 4 14 1 0
BITMAP
60
60
60
40
00
C0
C0
C0
C0
C0
C0
C0
F0
70
ENDCHAR
STARTCHAR 03B0
ENCODING 944
SWIDTH 555 0
DWIDTH 10 0
BBX 8 14 1 0
BITMAP
0C
6B
6B
08
10
C3
C3
C3
C3
C3
C3
E3
7E
3C
ENDCHAR
STARTCHAR 03B1
ENCODING 945
SWIDTH 666 0
DWIDTH 12 0
BBX 10 9 1 0
BITMAP
38C0
7C80
C780
C300
C300
C380
C780
7DC0
38C0
ENDCHAR
STARTCHAR 03B2
ENCODING 946
SWIDTH 611 0
DWIDTH 11 0
BBX 9 17 1 -4
BITMAP
3E00
7F00
6300
C300
C300
CE00
CF00
C300
C180
C180
E380
FF00
DE00
C000
C000
C000
C000
ENDCHAR
STARTCHAR 03B3
ENCODING 947
SWIDTH 500 0
DWIDTH 9 0
BBX 9 13 0 -4
BITMAP
E180
E180
6300
3300
3200
3600
1E00
1C00
0C00
0C00
0C00
0C00
0C00
ENDCHAR
STARTCHAR 03B4
ENCODING 948
SWIDTH 555 0
DWIDTH 10 0
BBX 8 13 1 0
BITMAP
7E
7E
30
1C
3E
67
C3
C3
C3
C3
C3
7E
3C
ENDCHAR
STARTCHAR 03B5
ENCODING 949
SWIDTH 500 0
DWIDTH 9 0
BBX 8 9 1 0
BITMAP
3C
FE
C3
C0
3C
C0
C3
FE
7C
ENDCHAR
STARTCHAR 03B6
ENCODING 950
SWIDTH 444 0
DWIDTH 8 0
BBX 7 16 1 -3
BITMAP
FE
FE
0C
18
30
60
60
C0
C0
C0
E0
7C
1C
0C
0C
0C
ENDCHAR
STARTCHAR 03B7
ENCODING 951
SWIDTH 611 0
DWIDTH 11 0
BBX 8 13 1 -4
BITMAP
CE
DF
63
63
63
63
63
63
63
03
03
03
03
ENDCHAR
STARTCHAR 03B8
ENCODING 952
SWIDTH 555 0
DWIDTH 10 0
BBX 8 13 1 0
BITMAP
3C
7E
E3
C3
C3
FF
FF
C3
C3
C3
E3
7E
3C
ENDCHAR
STARTCHAR 03B9
ENCODING 953
SWIDTH 333 0
DWIDTH 6 0
BBX 4 9 1 0
BITMAP
C0
C0
C0
C0
C0
C0
C0
F0
70
ENDCHAR
STARTCHAR 03BA
ENCODING 954
SWIDTH 555 0
DWIDTH 10 0
BBX 9 9 1 0
BITMAP
C300
C700
CE00
D800
F800
EC00
C600
C600
C380
ENDCHAR
STARTCHAR 03BB
ENCODING 955
SWIDTH 500 0
DWIDTH 9 0
BBX 9 13 0 0
BITMAP
7000
7800
1800
1800
1C00
1C00
1600
3600
3600
6300
6300
6380
C180
ENDCHAR
STARTCHAR 03BC
ENCODING 956
SWIDTH 611 0
DWIDTH 11 0
BBX 9 13 1 -4
BITMAP
C300
C300
C300
C300
C300
C300
E300
FF80
D980
C000
C000
C000
C000
ENDCHAR
STARTCHAR 03BD
ENCODING 957
SWIDTH 500 0
DWIDTH 9 0
BBX 9 9 0 0
BITMAP
E180
E180
6300
3300
3300
3600
1E00
1C00
1C00
ENDCHAR
STARTCHAR 03BE
ENCODING 958
SWIDTH 444 0
DWIDTH 8 0
BBX 7 16 1 -3
BITMAP
FE
FE
60
C0
60
7C
7C
C0
C0
C0
E0
7C
1C
0C
0C
0C
ENDCHAR
STARTCHAR 03BF
ENCODING 959
SWIDTH 555 0
DWIDTH 10 0
BBX 8 9 1 0
BITMAP
3C
7E
C3
C3
C3
C3
C3
7E
3C
ENDCHAR
STARTCHAR 03C0
ENCODING 960
SWIDTH 611 0
DWIDTH 11 0
BBX 11 9 0 0
BITMAP
FFE0
FFE0
3180
3180
3180
3180
3180
31C0
30C0
ENDCHAR
STARTCHAR 03C1
ENCODING 961
SWIDTH 555 0
DWIDTH 10 0
BBX 8 13 1 -4
BITMAP
3C
7F
C3
C3
C3
C3
C3
FF
DE
C0
C0
C0
C0
ENDCHAR
STARTCHAR 03C2
ENCODING 962
SWIDTH 500 0
DWIDTH 9 0
BBX 7 12 1 -3
BITMAP
3C
7E
C6
C0
C0
C0
E0
7C
1E
06
0C
04
ENDCHAR
STARTCHAR 03C3
ENCODING 963
SWIDTH 611 0
DWIDTH 11 0
BBX 9 9 1 0
BITMAP
3F80
7F80
C200
C300
C300
C300
C300
7F00
3C00
ENDCHAR
STARTCHAR 03C4
ENCODING 964
SWIDTH 500 0
DWIDTH 9 0
BBX 8 9 0 0
BITMAP
FF
FF
18
18
18
18
18
1E
0E
ENDCHAR
STARTCHAR 03C5
ENCODING 965
SWIDTH 555 0
DWIDTH 10 0
BBX 8 9 1 0
BITMAP
C3
C3
C3
C3
C3
C3
E3
7E
3C
ENDCHAR
STARTCHAR 03C6
ENCODING 966
SWIDTH 722 0
DWIDTH 13 0
BBX 11 13 1 -4
BITMAP
23C0
67E0
D660
C460
C460
C460
E460
7FC0
3F80
0400
0400
0400
0400
ENDCHAR
STARTCHAR 03C7
ENCODING 967
SWIDTH 500 0
DWIDTH 9 0
BBX 9 13 0 -4
BITMAP
E180
E300
3300
3600
1E00
1C00
1C00
1C00
1600
3600
3300
6380
E180
ENDCHAR
STARTCHAR 03C8
ENCODING 968
SWIDTH 722 0
DWIDTH 13 0
BBX 11 17 1 -4
BITMAP
0600
0600
0600
0600
C660
C660
C660
C660
C660
C660
66E0
7FC0
3F80
0600
0600
0600
0600
ENDCHAR
STARTCHAR 03C9
ENCODING 969
SWIDTH 777 0
DWIDTH 14 0
BBX 12 9 1 0
BITMAP
2040
70E0
C060
C630
C630
C630
CE60
FBE0
79C0
ENDCHAR
STARTCHAR 03CA
ENCODING 970
SWIDTH 333 0
DWIDTH 6 0
BBX 5 12 0 0
BITMAP
D8
D8
00
60
60
60
60
60
60
60
78
38
ENDCHAR
STARTCHAR 03CB
ENCODING 971
SWIDTH 555 0
DWIDTH 10 0
BBX 8 12 1 0
BITMAP
66
76
00
C3
C3
C3
C3
C3
C3
E3
7E
3C
ENDCHAR
STARTCHAR 03CC
ENCODING 972
SWIDTH 555 0
DWIDTH 10 0
BBX 8 14 1 0
BITMAP
0C
08
08
18
00
3C
7E
C3
C3
C3
C3
C3
7E
3C
ENDCHAR
STARTCHAR 03CD
ENCODING 973
SWIDTH 555 0
DWIDTH 10 0
BBX 8 14 1 0
BITMAP
0C
0C
08
08
00
C3
C3
C3
C3
C3
C3
E3
7E
3C
ENDCHAR
STARTCHAR 03CE
ENCODING 974
SWIDTH 777 0
DWIDTH 14 0
BBX 12 14 1 0
BITMAP
0200
0600
0600
0400
0000
2040
70E0
C060
C630
C630
C630
CE60
FBE0
79C0
ENDCHAR
STARTCHAR 0400
ENCODING 1024
SWIDTH 611 0
DWIDTH 11 0
BBX 8 18 2 0
BITMAP
20
70
30
18
00
FF
FF
C0
C0
C0
FE
FE
C0
C0
C0
C0
FF
FF
ENDCHAR
STARTCHAR 0401
ENCODING 1025
SWIDTH 611 0
DWIDTH 11 0
BBX 8 17 2 0
BITMAP
6C
6C
00
00
FF
FF
C0
C0
C0
FE
FE
C0
C0
C0
C0
FF
FF
ENDCHAR
STARTCHAR 0402
ENCODING 1026
SWIDTH 777 0
DWIDTH 14 0
BBX 13 16 0 -3
BITMAP
FFC0
FFC0
0C00
0C00
0C00
0FE0
0FF8
0C38
0C18
0C18
0C18
0C18
0C18
0018
0078
0070
ENDCHAR
STARTCHAR 0403
ENCODING 1027
SWIDTH 500 0
DWIDTH 9 0
BBX 7 18 2 0
BITMAP
10
18
10
30
00
FE
FE
C0
C0
C0
C0
C0
C0
C0
C0
C0
C0
C0
ENDCHAR
STARTCHAR 0404
ENCODING 1028
SWIDTH 666 0
DWIDTH 12 0
BBX 10 13 1 0
BITMAP
1F00
3F80
61C0
C080
C000
FE00
FE00
C000
C000
E080
71C0
7F80
1F00
ENDCHAR
STARTCHAR 0405
ENCODING 1029
SWIDTH 611 0
DWIDTH 11 0
BBX 9 13 1 0
BITMAP
3E00
7F00
E380
C000
C000
7C00
3F00
0780
0180
8180
C380
FF00
3E00
ENDCHAR
STARTCHAR 0406
ENCODING 1030
SWIDTH 388 0
DWIDTH 7 0
BBX 5 13 1 0
BITMAP
F8
F8
30
30
30
30
30
30
30
30
30
F8
F8
ENDCHAR
STARTCHAR 0407
ENCODING 1031
SWIDTH 388 0
DWIDTH 7 0
BBX 6 17 1 0
BITMAP
DC
DC
00
00
F8
F8
30
30
30
30
30
30
30
30
30
F8
F8
ENDCHAR
STARTCHAR 0408
ENCODING 1032
SWIDTH 555 0
DWIDTH 10 0
BBX 8 13 0 0
BITMAP
3F
3F
03
03
03
03
03
03
03
43
E3
7E
3C
ENDCHAR
STARTCHAR 0409
ENCODING 1033
SWIDTH 1055 0
DWIDTH 19 0
BBX 18 13 0 0
BITMAP
1FE000
1FE000
186000
186000
186000
187F00
187F80
1861C0
1860C0
1860C0
3061C0
F07F80
E07F00
ENDCHAR
STARTCHAR 040A
ENCODING 1034
SWIDTH 1055 0
DWIDTH 19 0
BBX 16 13 2 0
BITMAP
C180
C180
C180
C180
C180
FFFC
FFFE
C183
C183
C183
C183
C1FE
C1FC
ENDCHAR
STARTCHAR 040B
ENCODING 1035
SWIDTH 777 0
DWIDTH 14 0
BBX 13 13 0 0
BITMAP
FFC0
FFC0
0C00
0C00
0C00
0FE0
0FF8
0C18
0C18
0C18
0C18
0C18
0C18
ENDCHAR
STARTCHAR 040C
ENCODING 1036
SWIDTH 666 0
DWIDTH 12 0
BBX 9 18 2 0
BITMAP
0800
0C00
1800
1800
0000
C180
C380
C700
C600
CC00
FC00
FC00
CC00
C600
C600
C300
C380
C180
ENDCHAR
STARTCHAR 040D
ENCODING 1037
SWIDTH 722 0
DWIDTH 13 0
BBX 9 18 2 0
BITMAP
1000
3000
1800
0800
0000
C180
C180
C380
C780
C780
CD80
D980
D980
B180
B180
E180
C180
C180
ENDCHAR
STARTCHAR 040E
ENCODING 1038
SWIDTH 611 0
DWIDTH 11 0
BBX 11 18 0 0
BITMAP
1100
3980
1F00
0E00
0000
E0E0
60C0
70C0
3180
3180
1980
1B00
0F00
0E00
0600
0600
3C00
3C00
ENDCHAR
STARTCHAR 040F
ENCODING 1039
SWIDTH 722 0
DWIDTH 13 0
BBX 9 16 2 -3
BITMAP
C180
C180
C180
C180
C180
C180
C180
C180
C180
C180
C180
FF80
FF80
1800
1800
1800
ENDCHAR
STARTCHAR 0410
ENCODING 1040
SWIDTH 666 0
DWIDTH 12 0
BBX 12 13 0 0
BITMAP
0600
0F00
0F00
0B00
1980
1980
1180
30C0
3FC0
3FC0
60E0
6060
E070
ENDCHAR
STARTCHAR 0411
ENCODING 1041
SWIDTH 666 0
DWIDTH 12 0
BBX 9 13 2 0
BITMAP
FF00
FF00
C000
C000
C000
FE00
FF00
C380
C180
C180
C380
FF00
FE00
ENDCHAR
STARTCHAR 0412
ENCODING 1042
SWIDTH 666 0
DWIDTH 12 0
BBX 9 13 2 0
BITMAP
FE00
FF00
C300
C300
C300
FE00
FF00
C380
C180
C180
C380
FF00
FE00
ENDCHAR
STARTCHAR 0413
ENCODING 1043
SWIDTH 500 0
DWIDTH 9 0
BBX 7 13 2 0
BITMAP
FE
FE
C0
C0
C0
C0
C0
C0
C0
C0
C0
C0
C0
ENDCHAR
STARTCHAR 0414
ENCODING 1044
SWIDTH 777 0
DWIDTH 14 0
BBX 13 16 0 -3
BITMAP
1FE0
1FE0
1860
1860
1860
1860
1860
1860
1860
3860
3060
FFF8
FFF8
C018
C018
C018
ENDCHAR
STARTCHAR 0415
ENCODING 1045
SWIDTH 611 0
DWIDTH 11 0
BBX 8 13 2 0
BITMAP
FF
FF
C0
C0
C0
FE
FE
C0
C0
C0
C0
FF
FF
ENDCHAR
STARTCHAR 0416
ENCODING 1046
SWIDTH 1000 0
DWIDTH 18 0
BBX 16 13 1 0
BITMAP
E187
E187
718C
318C
3998
1FF8
1FF8
3998
318C
318C
6186
E187
C183
ENDCHAR
STARTCHAR 0417
ENCODING 1047
SWIDTH 611 0
DWIDTH 11 0
BBX 9 13 1 0
BITMAP
3E00
FF00
C380
0380
0300
3E00
3F00
0380
0180
0180
C380
FF00
3E00
ENDCHAR
STARTCHAR 0418
ENCODING 1048
SWIDTH 722 0
DWIDTH 13 0
BBX 9 13 2 0
BITMAP
C180
C180
C380
C780
C780
CD80
D980
D980
B180
B180
E180
C180
C180
ENDCHAR
STARTCHAR 0419
ENCODING 1049
SWIDTH 722 0
DWIDTH 13 0
BBX 9 18 2 0
BITMAP
2200
6700
3E00
1C00
0000
C180
C180
C380
C780
C780
CD80
D980
D980
B180
B180
E180
C180
C180
ENDCHAR
STARTCHAR 041A
ENCODING 1050
SWIDTH 666 0
DWIDTH 12 0
BBX 9 13 2 0
BITMAP
C180
C380
C700
C600
CC00
FC00
FC00
CC00
C600
C600
C300
C380
C180
ENDCHAR
STARTCHAR 041B
ENCODING 1051
SWIDTH 722 0
DWIDTH 13 0
BBX 11 13 0 0
BITMAP
1FE0
1FE0
1860
1860
1860
1860
1860
1860
1860
1860
3060
F060
E060
ENDCHAR
STARTCHAR 041C
ENCODING 1052
SWIDTH 833 0
DWIDTH 15 0
BBX 11 13 2 0
BITMAP
C060
E0E0
E1E0
B1E0
B360
9B60
9E60
8E60
8460
8460
8060
8060
8060
ENDCHAR
STARTCHAR 041D
ENCODING 1053
SWIDTH 722 0
DWIDTH 13 0
BBX 9 13 2 0
BITMAP
C180
C180
C180
C180
C180
FF80
FF80
C180
C180
C180
C180
C180
C180
ENDCHAR
STARTCHAR 041E
ENCODING 1054
SWIDTH 722 0
DWIDTH 13 0
BBX 11 13 1 0
BITMAP
1F00
3F80
71C0
E0C0
C060
C060
C060
C060
C060
E0C0
71C0
3F80
1F00
ENDCHAR
STARTCHAR 041F
ENCODING 1055
SWIDTH 722 0
DWIDTH 13 0
BBX 9 13 2 0
BITMAP
FF80
FF80
C180
C180
C180
C180
C180
C180
C180
C180
C180
C180
C180
ENDCHAR
STARTCHAR 0420
ENCODING 1056
SWIDTH 611 0
DWIDTH 11 0
BBX 9 13 2 0
BITMAP
FE00
FF00
C300
C380
C380
C300
FF00
FE00
C000
C000
C000
C000
C000
ENDCHAR
STARTCHAR 0421
ENCODING 1057
SWIDTH 611 0
DWIDTH 11 0
BBX 10 13 1 0
BITMAP
1F00
3F80
6180
E0C0
C000
C000
C000
C000
C000
E080
61C0
3F80
1E00
ENDCHAR
STARTCHAR 0422
ENCODING 1058
SWIDTH 555 0
DWIDTH 10 0
BBX 10 13 0 0
BITMAP
FFC0
FFC0
0C00
0C00
0C00
0C00
0C00
0C00
0C00
0C00
0C00
0C00
0C00
ENDCHAR
STARTCHAR 0423
ENCODING 1059
SWIDTH 611 0
DWIDTH 11 0
BBX 11 13 0 0
BITMAP
E0E0
60C0
70C0
3180
3180
1980
1B00
0F00
0E00
0600
0600
3C00
3C00
ENDCHAR
STARTCHAR 0424
ENCODING 1060
SWIDTH 888 0
DWIDTH 16 0
BBX 14 15 1 -1
BITMAP
0300
0300
1FE0
7FF0
6338
C31C
C30C
C30C
C30C
C31C
6338
7FF0
1FE0
0300
0300
ENDCHAR
STARTCHAR 0425
ENCODING 1061
SWIDTH 666 0
DWIDTH 12 0
BBX 11 13 0 0
BITMAP
60E0
70C0
3180
1980
1F00
0F00
0E00
0F00
1B00
1980
31C0
60C0
E0E0
ENDCHAR
STARTCHAR 0426
ENCODING 1062
SWIDTH 722 0
DWIDTH 13 0
BBX 11 16 2 -3
BITMAP
C180
C180
C180
C180
C180
C180
C180
C180
C180
C180
C180
FFE0
FFE0
0060
0060
0060
ENDCHAR
STARTCHAR 0427
ENCODING 1063
SWIDTH 666 0
DWIDTH 12 0
BBX 9 13 1 0
BITMAP
C180
C180
C180
C180
C180
C180
E180
7F80
3F80
0180
0180
0180
0180
ENDCHAR
STARTCHAR 0428
ENCODING 1064
SWIDTH 1000 0
DWIDTH 18 0
BBX 14 13 2 0
BITMAP
C30C
C30C
C30C
C30C
C30C
C30C
C30C
C30C
C30C
C30C
C30C
FFFC
FFFC
ENDCHAR
STARTCHAR 0429
ENCODING 1065
SWIDTH 1055 0
DWIDTH 19 0
BBX 16 16 2 -3
BITMAP
C30C
C30C
C30C
C30C
C30C
C30C
C30C
C30C
C30C
C30C
C30C
FFFF
FFFF
0003
0003
0003
ENDCHAR
STARTCHAR 042A
ENCODING 1066
SWIDTH 722 0
DWIDTH 13 0
BBX 13 13 0 0
BITMAP
F800
F800
1800
1800
1800
1FE0
1FF0
1838
1818
1818
1838
1FF0
1FE0
ENDCHAR
STARTCHAR 042B
ENCODING 1067
SWIDTH 888 0
DWIDTH 16 0
BBX 13 13 2 0
BITMAP
C018
C018
C018
C018
C018
FE18
FF18
C398
C198
C198
C398
FF18
FE18
ENDCHAR
STARTCHAR 042C
ENCODING 1068
SWIDTH 666 0
DWIDTH 12 0
BBX 9 13 2 0
BITMAP
C000
C000
C000
C000
C000
FE00
FF00
C380
C180
C180
C380
FF00
FE00
ENDCHAR
STARTCHAR 042D
ENCODING 1069
SWIDTH 666 0
DWIDTH 12 0
BBX 10 13 1 0
BITMAP
3E00
7F00
C380
4180
01C0
1FC0
1FC0
00C0
0180
C180
C380
7F00
3E00
ENDCHAR
STARTCHAR 042E
ENCODING 1070
SWIDTH 1000 0
DWIDTH 18 0
BBX 15 13 2 0
BITMAP
C1F0
C3F8
C71C
CE0C
CC0E
FC06
FC06
CC06
CC0E
C60C
C71C
C3F8
C1F0
ENDCHAR
STARTCHAR 042F
ENCODING 1071
SWIDTH 666 0
DWIDTH 12 0
BBX 9 13 1 0
BITMAP
3F80
7F80
E180
C180
C180
E180
7F80
3F80
3980
3180
7180
E180
C180
ENDCHAR
STARTCHAR 0430
ENCODING 1072
SWIDTH 555 0
DWIDTH 10 0
BBX 8 9 1 0
BITMAP
7C
FE
46
06
7E
C6
C6
FB
73
ENDCHAR
STARTCHAR 0431
ENCODING 1073
SWIDTH 555 0
DWIDTH 10 0
BBX 8 13 1 0
BITMAP
1F
3F
70
C0
DE
FF
C3
C3
C3
C3
E3
7E
3C
ENDCHAR
STARTCHAR 0432
ENCODING 1074
SWIDTH 555 0
DWIDTH 10 0
BBX 8 9 1 0
BITMAP
FE
FF
C3
C3
FC
C3
C3
FF
FE
ENDCHAR
STARTCHAR 0433
ENCODING 1075
SWIDTH 444 0
DWIDTH 8 0
BBX 7 9 1 0
BITMAP
FE
FE
C0
C0
C0
C0
C0
C0
C0
ENDCHAR
STARTCHAR 0434
ENCODING 1076
SWIDTH 611 0
DWIDTH 11 0
BBX 11 12 0 -3
BITMAP
3F80
3F80
3180
3180
3180
3180
3180
FFE0
FFE0
C060
C060
C060
ENDCHAR
STARTCHAR 0435
ENCODING 1077
SWIDTH 555 0
DWIDTH 10 0
BBX 8 9 1 0
BITMAP
3C
7E
C3
C3
FF
C0
C2
7F
3C
ENDCHAR
STARTCHAR 0436
ENCODING 1078
SWIDTH 833 0
DWIDTH 15 0
BBX 13 9 1 0
BITMAP
C638
E638
7660
3FE0
3FE0
7660
6670
E638
C638
ENDCHAR
STARTCHAR 0437
ENCODING 1079
SWIDTH 500 0
DWIDTH 9 0
BBX 8 9 0 0
BITMAP
3E
7F
43
03
1C
03
43
FF
3E
ENDCHAR
STARTCHAR 0438
ENCODING 1080
SWIDTH 611 0
DWIDTH 11 0
BBX 8 9 1 0
BITMAP
C3
C3
C7
CD
DB
DB
F3
E3
E3
ENDCHAR
STARTCHAR 0439
ENCODING 1081
SWIDTH 611 0
DWIDTH 11 0
BBX 8 14 1 0
BITMAP
22
67
3E
1C
00
C3
C3
C7
CD
DB
DB
F3
E3
E3
ENDCHAR
STARTCHAR 043A
ENCODING 1082
SWIDTH 555 0
DWIDTH 10 0
BBX 9 9 1 0
BITMAP
C300
C700
CE00
FC00
FC00
CE00
C600
C780
C380
ENDCHAR
STARTCHAR 043B
ENCODING 1083
SWIDTH 611 0
DWIDTH 11 0
BBX 9 9 0 0
BITMAP
3F80
3F80
3180
3180
3180
3180
3180
F180
E180
ENDCHAR
STARTCHAR 043C
ENCODING 1084
SWIDTH 722 0
DWIDTH 13 0
BBX 10 9 1 0
BITMAP
E0C0
F1C0
F3C0
DBC0
CEC0
CCC0
C4C0
C0C0
C0C0
ENDCHAR
STARTCHAR 043D
ENCODING 1085
SWIDTH 611 0
DWIDTH 11 0
BBX 8 9 1 0
BITMAP
C3
C3
C3
FF
FF
C3
C3
C3
C3
ENDCHAR
STARTCHAR 043E
ENCODING 1086
SWIDTH 555 0
DWIDTH 10 0
BBX 8 9 1 0
BITMAP
3C
7E
C3
C3
C3
C3
C3
7E
3C
ENDCHAR
STARTCHAR 043F
ENCODING 1087
SWIDTH 611 0
DWIDTH 11 0
BBX 8 9 1 0
BITMAP
FF
FF
C3
C3
C3
C3
C3
C3
C3
ENDCHAR
STARTCHAR 0440
ENCODING 1088
SWIDTH 611 0
DWIDTH 11 0
BBX 9 13 1 -4
BITMAP
CE00
DF00
E380
C180
C180
C180
E380
DF00
CE00
C000
C000
C000
C000
ENDCHAR
STARTCHAR 0441
ENCODING 1089
SWIDTH 500 0
DWIDTH 9 0
BBX 8 9 1 0
BITMAP
3C
7E
C7
C0
C0
C4
C7
7E
3C
ENDCHAR
STARTCHAR 0442
ENCODING 1090
SWIDTH 500 0
DWIDTH 9 0
BBX 8 9 0 0
BITMAP
FF
FF
18
18
18
18
18
18
18
ENDCHAR
STARTCHAR 0443
ENCODING 1091
SWIDTH 500 0
DWIDTH 9 0
BBX 9 13 0 -4
BITMAP
C180
6180
6300
6300
3200
3600
1600
1C00
1C00
0C00
1800
7800
7000
ENDCHAR
STARTCHAR 0444
ENCODING 1092
SWIDTH 777 0
DWIDTH 14 0
BBX 12 17 1 -4
BITMAP
0600
0600
0600
0600
76E0
FFF0
C630
C630
C630
C630
C630
FFF0
76E0
0600
0600
0600
0600
ENDCHAR
STARTCHAR 0445
ENCODING 1093
SWIDTH 555 0
DWIDTH 10 0
BBX 9 9 0 0
BITMAP
E180
3300
3600
1E00
0C00
1E00
3600
6300
E180
ENDCHAR
STARTCHAR 0446
ENCODING 1094
SWIDTH 611 0
DWIDTH 11 0
BBX 10 12 1 -3
BITMAP
C300
C300
C300
C300
C300
C300
C300
FFC0
FFC0
00C0
00C0
00C0
ENDCHAR
STARTCHAR 0447
ENCODING 1095
SWIDTH 555 0
DWIDTH 10 0
BBX 8 9 1 0
BITMAP
C3
C3
C3
C7
FF
7B
03
03
03
ENDCHAR
STARTCHAR 0448
ENCODING 1096
SWIDTH 833 0
DWIDTH 15 0
BBX 12 9 1 0
BITMAP
C630
C630
C630
C630
C630
C630
C630
FFF0
FFF0
ENDCHAR
STARTCHAR 0449
ENCODING 1097
SWIDTH 833 0
DWIDTH 15 0
BBX 14 12 1 -3
BITMAP
C630
C630
C630
C630
C630
C630
C630
FFFC
FFFC
000C
000C
000C
ENDCHAR
STARTCHAR 044A
ENCODING 1098
SWIDTH 611 0
DWIDTH 11 0
BBX 10 9 0 0
BITMAP
F800
F800
1F80
1FC0
18C0
18C0
18C0
1FC0
1F80
ENDCHAR
STARTCHAR 044B
ENCODING 1099
SWIDTH 777 0
DWIDTH 14 0
BBX 11 9 1 0
BITMAP
C060
C060
FE60
FE60
C360
C360
C360
FE60
FE60
ENDCHAR
STARTCHAR 044C
ENCODING 1100
SWIDTH 555 0
DWIDTH 10 0
BBX 8 9 1 0
BITMAP
C0
C0
FE
FF
C3
C3
C3
FF
FE
ENDCHAR
STARTCHAR 044D
ENCODING 1101
SWIDTH 500 0
DWIDTH 9 0
BBX 9 9 0 0
BITMAP
3E00
7F00
C300
0180
1F80
0180
4300
7F00
3E00
ENDCHAR
STARTCHAR 044E
ENCODING 1102
SWIDTH 777 0
DWIDTH 14 0
BBX 13 9 1 0
BITMAP
C3E0
C7F0
CE30
FC18
FC18
CC18
C630
C7F0
C3E0
ENDCHAR
STARTCHAR 044F
ENCODING 1103
SWIDTH 555 0
DWIDTH 10 0
BBX 8 9 1 0
BITMAP
7F
FF
C3
C3
FF
3F
63
E3
C3
ENDCHAR
STARTCHAR 0450
ENCODING 1104
SWIDTH 555 0
DWIDTH 10 0
BBX 8 14 1 0
BITMAP
10
30
18
08
00
3C
7E
C3
C3
FF
C0
C2
7F
3C
ENDCHAR
STARTCHAR 0451
ENCODING 1105
SWIDTH 555 0
DWIDTH 10 0
BBX 8 12 1 0
BITMAP
66
66
00
3C
7E
C3
C3
FF
C0
C2
7F
3C
ENDCHAR
STARTCHAR 0452
ENCODING 1106
SWIDTH 611 0
DWIDTH 11 0
BBX 9 17 0 -4
BITMAP
6000
FC00
6000
6000
6F00
6F80
7180
6180
6180
6180
6180
6180
6180
0180
0180
0380
0300
ENDCHAR
STARTCHAR 0453
ENCODING 1107
SWIDTH 444 0
DWIDTH 8 0
BBX 7 14 1 0
BITMAP
08
1C
18
30
00
FE
FE
C0
C0
C0
C0
C0
C0
C0
ENDCHAR
STARTCHAR 0454
ENCODING 1108
SWIDTH 500 0
DWIDTH 9 0
BBX 8 9 1 0
BITMAP
3C
7E
C3
C0
F8
C4
C3
7E
3C
ENDCHAR
STARTCHAR 0455
ENCODING 1109
SWIDTH 500 0
DWIDTH 9 0
BBX 7 9 1 0
BITMAP
7C
FE
C4
F0
7E
1E
86
FE
7C
ENDCHAR
STARTCHAR 0456
ENCODING 1110
SWIDTH 277 0
DWIDTH 5 0
BBX 3 13 1 0
BITMAP
C0
E0
00
00
C0
C0
C0
C0
C0
C0
C0
C0
C0
ENDCHAR
STARTCHAR 0457
ENCODING 1111
SWIDTH 277 0
DWIDTH 5 0
BBX 6 12 -1 0
BITMAP
6C
EC
00
30
30
30
30
30
30
30
30
30
ENDCHAR
STARTCHAR 0458
ENCODING 1112
SWIDTH 277 0
DWIDTH 5 0
BBX 4 17 0 -4
BITMAP
60
70
00
00
60
60
60
60
60
60
60
60
60
60
60
E0
E0
ENDCHAR
STARTCHAR 0459
ENCODING 1113
SWIDTH 833 0
DWIDTH 15 0
BBX 14 9 0 0
BITMAP
3F80
3F80
31F8
31FC
318C
318C
318C
F1FC
E1F8
ENDCHAR
STARTCHAR 045A
ENCODING 1114
SWIDTH 833 0
DWIDTH 15 0
BBX 14 9 1 0
BITMAP
C300
C300
C3F0
FFF8
FF1C
C30C
C31C
C3F8
C3F0
ENDCHAR
STARTCHAR 045B
ENCODING 1115
SWIDTH 555 0
DWIDTH 10 0
BBX 9 13 0 0
BITMAP
6000
6000
FC00
6000
6F00
6F80
7180
6180
6180
6180
6180
6180
6180
ENDCHAR
STARTCHAR 045C
ENCODING 1116
SWIDTH 555 0
DWIDTH 10 0
BBX 9 14 1 0
BITMAP
0400
0E00
0800
1800
0000
C300
C700
CE00
FC00
FC00
CE00
C600
C780
C380
ENDCHAR
STARTCHAR 045D
ENCODING 1117
SWIDTH 611 0
DWIDTH 11 0
BBX 8 14 1 0
BITMAP
10
30
18
08
00
C3
C3
C7
CD
DB
DB
F3
E3
E3
ENDCHAR
STARTCHAR 045E
ENCODING 1118
SWIDTH 500 0
DWIDTH 9 0
BBX 9 18 0 -4
BITMAP
2200
3300
3E00
1C00
0000
C180
6180
6300
6300
3200
3600
1600
1C00
1C00
0C00
1800
7800
7000
ENDCHAR
STARTCHAR 045F
ENCODING 1119
SWIDTH 611 0
DWIDTH 11 0
BBX 8 12 1 -3
BITMAP
C3
C3
C3
C3
C3
C3
C3
FF
FF
18
18
18
ENDCHAR
STARTCHAR 0472
ENCODING 1138
SWIDTH 722 0
DWIDTH 13 0
BBX 11 13 1 0
BITMAP
1F00
3F80
61C0
C0C0
C060
FFE0
FFE0
C060
C060
E0C0
71C0
3F80
1F00
ENDCHAR
STARTCHAR 0473
ENCODING 1139
SWIDTH 555 0
DWIDTH 10 0
BBX 8 9 1 0
BITMAP
3C
7E
C3
C3
FF
C3
C3
7E
3C
ENDCHAR
STARTCHAR 0490
ENCODING 1168
SWIDTH 500 0
DWIDTH 9 0
BBX 7 16 2 0
BITMAP
06
06
06
FE
FE
C0
C0
C0
C0
C0
C0
C0
C0
C0
C0
C0
ENDCHAR
STARTCHAR 0491
ENCODING 1169
SWIDTH 444 0
DWIDTH 8 0
BBX 7 12 1 0
BITMAP
06
06
06
FE
FE
C0
C0
C0
C0
C0
C0
C0
ENDCHAR
STARTCHAR 0492
ENCODING 1170
SWIDTH 555 0
DWIDTH 10 0
BBX 9 13 0 0
BITMAP
3F80
3F80
3000
3000
3000
FE00
FE00
3000
3000
3000
3000
3000
3000
ENDCHAR
STARTCHAR 0493
ENCODING 1171
SWIDTH 444 0
DWIDTH 8 0
BBX 8 9 0 0
BITMAP
3F
3F
30
30
FC
FC
30
30
30
ENDCHAR
STARTCHAR 0494
ENCODING 1172
SWIDTH 666 0
DWIDTH 12 0
BBX 9 16 2 -3
BITMAP
FE00
FE00
C000
C000
C000
FE00
FF00
C300
C380
C180
C180
C180
C380
0300
0F00
0E00
ENDCHAR
STARTCHAR 0495
ENCODING 1173
SWIDTH 555 0
DWIDTH 10 0
BBX 8 13 1 -4
BITMAP
FE
FE
C0
C0
DE
FF
C3
C3
C3
03
03
0F
0E
ENDCHAR
STARTCHAR 0496
ENCODING 1174
SWIDTH 1000 0
DWIDTH 18 0
BBX 17 16 1 -3
BITMAP
E18700
E18700
718C00
318C00
399800
1FF800
1FF800
399800
318C00
318C00
618600
E18780
C18380
000180
000180
000180
ENDCHAR
STARTCHAR 0497
ENCODING 1175
SWIDTH 833 0
DWIDTH 15 0
BBX 13 12 1 -3
BITMAP
C638
E638
7660
3FE0
3FE0
7660
6670
E638
C638
0008
0008
0008
ENDCHAR
STARTCHAR 0498
ENCODING 1176
SWIDTH 611 0
DWIDTH 11 0
BBX 9 16 1 -3
BITMAP
3E00
FF00
C380
0380
0300
3E00
3F00
0380
0180
0180
C380
FF00
7E00
1800
1800
1800
ENDCHAR
STARTCHAR 0499
ENCODING 1177
SWIDTH 500 0
DWIDTH 9 0
BBX 8 12 0 -3
BITMAP
3E
7F
43
03
1C
03
43
FF
3E
18
18
18
ENDCHAR
STARTCHAR 049A
ENCODING 1178
SWIDTH 666 0
DWIDTH 12 0
BBX 10 16 2 -3
BITMAP
C180
C380
C700
C600
CC00
FC00
FC00
CC00
C600
C600
C300
C3C0
C1C0
00C0
00C0
00C0
ENDCHAR
STARTCHAR 049B
ENCODING 1179
SWIDTH 555 0
DWIDTH 10 0
BBX 9 12 1 -3
BITMAP
C300
C700
CE00
FC00
FC00
CE00
C600
C780
C380
0180
0180
0180
ENDCHAR
STARTCHAR 049C
ENCODING 1180
SWIDTH 722 0
DWIDTH 13 0
BBX 10 13 2 0
BITMAP
C0C0
C1C0
F300
F300
F600
FE00
FE00
F600
F300
F300
C180
C1C0
C0C0
ENDCHAR
STARTCHAR 049D
ENCODING 1181
SWIDTH 611 0
DWIDTH 11 0
BBX 9 9 1 0
BITMAP
C180
D380
D700
FE00
FE00
D700
D300
C380
C180
ENDCHAR
STARTCHAR 04A0
ENCODING 1184
SWIDTH 777 0
DWIDTH 14 0
BBX 13 13 0 0
BITMAP
F838
F838
1860
1860
18C0
1F80
1FC0
18C0
18E0
1860
1870
1838
1818
ENDCHAR
STARTCHAR 04A1
ENCODING 1185
SWIDTH 666 0
DWIDTH 12 0
BBX 11 9 0 0
BITMAP
F8E0
F9E0
1980
1F00
1F00
1980
19C0
18E0
18E0
ENDCHAR
STARTCHAR 04A2
ENCODING 1186
SWIDTH 777 0
DWIDTH 14 0
BBX 11 16 2 -3
BITMAP
C180
C180
C180
C180
C180
FF80
FF80
C180
C180
C180
C180
C1E0
C1E0
0060
0060
0060
ENDCHAR
STARTCHAR 04A3
ENCODING 1187
SWIDTH 611 0
DWIDTH 11 0
BBX 10 12 1 -3
BITMAP
C300
C300
C300
FF00
FF00
C300
C300
C3C0
C3C0
00C0
00C0
00C0
ENDCHAR
STARTCHAR 04A4
ENCODING 1188
SWIDTH 888 0
DWIDTH 16 0
BBX 14 13 2 0
BITMAP
C1FC
C1FC
C180
C180
C180
FF80
FF80
C180
C180
C180
C180
C180
C180
ENDCHAR
STARTCHAR 04A5
ENCODING 1189
SWIDTH 777 0
DWIDTH 14 0
BBX 12 9 1 0
BITMAP
C3F0
C3F0
C300
FF00
FF00
C300
C300
C300
C300
ENDCHAR
STARTCHAR 04AA
ENCODING 1194
SWIDTH 611 0
DWIDTH 11 0
BBX 10 16 1 -3
BITMAP
1F00
3F80
6180
E0C0
C000
C000
C000
C000
C000
E080
61C0
7F80
1F00
0C00
0C00
0C00
ENDCHAR
STARTCHAR 04AB
ENCODING 1195
SWIDTH 500 0
DWIDTH 9 0
BBX 8 12 1 -3
BITMAP
3C
7E
C7
C0
C0
C4
C7
7E
3C
18
18
18
ENDCHAR
STARTCHAR 04AE
ENCODING 1198
SWIDTH 611 0
DWIDTH 11 0
BBX 11 13 0 0
BITMAP
E0E0
60C0
31C0
3180
1B00
1B00
0E00
0E00
0600
0600
0600
0600
0600
ENDCHAR
STARTCHAR 04AF
ENCODING 1199
SWIDTH 500 0
DWIDTH 9 0
BBX 9 13 0 -4
BITMAP
C180
6100
6300
2300
3600
3600
1600
1C00
1C00
0C00
0C00
0C00
0C00
ENDCHAR
STARTCHAR 04B0
ENCODING 1200
SWIDTH 611 0
DWIDTH 11 0
BBX 11 13 0 0
BITMAP
E0E0
60C0
31C0
3180
1B00
1B00
0E00
0E00
3F80
3F80
0600
0600
0600
ENDCHAR
STARTCHAR 04B1
ENCODING 1201
SWIDTH 500 0
DWIDTH 9 0
BBX 9 13 0 -4
BITMAP
C180
6100
6300
2300
3600
3600
1600
1C00
1C00
7F00
7F00
0C00
0C00
ENDCHAR
STARTCHAR 04B2
ENCODING 1202
SWIDTH 666 0
DWIDTH 12 0
BBX 12 16 0 -3
BITMAP
60E0
70C0
3180
1980
1F00
0E00
0E00
0F00
1B00
1980
31C0
60F0
60F0
8030
0030
0030
ENDCHAR
STARTCHAR 04B3
ENCODING 1203
SWIDTH 555 0
DWIDTH 10 0
BBX 10 12 0 -3
BITMAP
E180
3300
3600
1C00
0C00
1E00
3700
63C0
61C0
80C0
00C0
00C0
ENDCHAR
STARTCHAR 04B6
ENCODING 1206
SWIDTH 722 0
DWIDTH 13 0
BBX 11 16 1 -3
BITMAP
C180
C180
C180
C180
C180
C180
E180
7F80
3F80
0180
0180
01E0
01E0
0060
0060
0060
ENDCHAR
STARTCHAR 04B7
ENCODING 1207
SWIDTH 611 0
DWIDTH 11 0
BBX 9 12 1 -3
BITMAP
C300
C300
C300
C700
FF00
7B00
0300
0380
0380
0180
0180
0180
ENDCHAR
STARTCHAR 04B8
ENCODING 1208
SWIDTH 666 0
DWIDTH 12 0
BBX 9 13 1 0
BITMAP
C180
C180
C180
C180
CD80
CD80
ED80
7F80
3F80
0D80
0D80
0180
0180
ENDCHAR
STARTCHAR 04B9
ENCODING 1209
SWIDTH 555 0
DWIDTH 10 0
BBX 8 9 1 0
BITMAP
C3
D3
D3
D3
FF
7B
13
13
03
ENDCHAR
STARTCHAR 04BA
ENCODING 1210
SWIDTH 666 0
DWIDTH 12 0
BBX 9 13 2 0
BITMAP
C000
C000
C000
C000
C000
FE00
FF00
C380
C180
C180
C180
C180
C180
ENDCHAR
STARTCHAR 04BB
ENCODING 1211
SWIDTH 555 0
DWIDTH 10 0
BBX 8 13 1 0
BITMAP
C0
C0
C0
C0
DE
DF
E3
C3
C3
C3
C3
C3
C3
ENDCHAR
STARTCHAR 04C0
ENCODING 1216
SWIDTH 388 0
DWIDTH 7 0
BBX 5 13 1 0
BITMAP
F8
F8
30
30
30
30
30
30
30
30
30
F8
F8
ENDCHAR
STARTCHAR 04C1
ENCODING 1217
SWIDTH 1000 0
DWIDTH 18 0
BBX 16 18 1 0
BITMAP
0640
0660
07C0
03C0
0000
E187
E187
718C
318C
3998
1FF8
1FF8
3998
318C
318C
6186
E187
C183
ENDCHAR
STARTCHAR 04C2
ENCODING 1218
SWIDTH 833 0
DWIDTH 15 0
BBX 13 14 1 0
BITMAP
0880
1980
0F80
0700
0000
C638
E638
7660
3FE0
3FE0
7660
6670
E638
C638
ENDCHAR
STARTCHAR 04CF
ENCODING 1231
SWIDTH 277 0
DWIDTH 5 0
BBX 2 13 1 0
BITMAP
C0
C0
C0
C0
C0
C0
C0
C0
C0
C0
C0
C0
C0
ENDCHAR
STARTCHAR 04D0
ENCODING 1232
SWIDTH 666 0
DWIDTH 12 0
BBX 12 18 0 0
BITMAP
1900
1980
1F00
0F00
0000
0600
0F00
0F00
0B00
1980
1980
1180
30C0
3FC0
3FC0
60E0
6060
E070
ENDCHAR
STARTCHAR 04D1
ENCODING 1233
SWIDTH 555 0
DWIDTH 10 0
BBX 8 14 1 0
BITMAP
44
66
7C
38
00
7C
FE
46
06
7E
C6
C6
FB
73
ENDCHAR
STARTCHAR 04D2
ENCODING 1234
SWIDTH 666 0
DWIDTH 12 0
BBX 12 17 0 0
BITMAP
1980
1980
0000
0000
0600
0F00
0F00
0B00
1980
1980
1180
30C0
3FC0
3FC0
60E0
6060
E070
ENDCHAR
STARTCHAR 04D3
ENCODING 1235
SWIDTH 555 0
DWIDTH 10 0
BBX 8 12 1 0
BITMAP
6E
6E
00
7C
FE
46
06
7E
C6
C6
FB
73
ENDCHAR
STARTCHAR 04D4
ENCODING 1236
SWIDTH 944 0
DWIDTH 17 0
BBX 16 13 0 0
BITMAP
03FF
03FF
06C0
06C0
0CC0
0CFE
18FE
18C0
3FC0
3FC0
60C0
60FF
C0FF
ENDCHAR
STARTCHAR 04D5
ENCODING 1237
SWIDTH 888 0
DWIDTH 16 0
BBX 14 9 1 0
BITMAP
78F0
FDF8
471C
060C
7FFC
C600
C708
FDF8
78F0
ENDCHAR
STARTCHAR 04D6
ENCODING 1238
SWIDTH 611 0
DWIDTH 11 0
BBX 8 18 2 0
BITMAP
44
E6
7C
38
00
FF
FF
C0
C0
C0
FE
FE
C0
C0
C0
C0
FF
FF
ENDCHAR
STARTCHAR 04D7
ENCODING 1239
SWIDTH 555 0
DWIDTH 10 0
BBX 8 14 1 0
BITMAP
26
66
3E
3C
00
3C
7E
C3
C3
FF
C0
C2
7F
3C
ENDCHAR
STARTCHAR 04D8
ENCODING 1240
SWIDTH 722 0
DWIDTH 13 0
BBX 11 13 1 0
BITMAP
1F00
3F80
71C0
E0C0
0060
0060
FFE0
FFE0
C060
E0C0
71C0
3F80
1F00
ENDCHAR
STARTCHAR 04D9
ENCODING 1241
SWIDTH 555 0
DWIDTH 10 0
BBX 8 9 1 0
BITMAP
3C
FE
43
03
FF
C3
C3
7E
3C
ENDCHAR
STARTCHAR 04DC
ENCODING 1244
SWIDTH 1000 0
DWIDTH 18 0
BBX 16 17 1 0
BITMAP
0660
0660
0000
0000
E187
E187
718C
318C
3998
1FF8
1FF8
3998
318C
318C
6186
E187
C183
ENDCHAR
STARTCHAR 04DD
ENCODING 1245
SWIDTH 833 0
DWIDTH 15 0
BBX 13 12 1 0
BITMAP
1D80
1D80
0000
C638
E638
7660
3FE0
3FE0
7660
6670
E638
C638
ENDCHAR
STARTCHAR 04DE
ENCODING 1246
SWIDTH 611 0
DWIDTH 11 0
BBX 9 17 1 0
BITMAP
6600
7600
0000
0000
3E00
FF00
C380
0380
0300
3E00
3F00
0380
0180
0180
C380
FF00
3E00
ENDCHAR
STARTCHAR 04DF
ENCODING 1247
SWIDTH 500 0
DWIDTH 9 0
BBX 8 12 0 0
BITMAP
36
76
00
3E
7F
43
03
1C
03
43
FF
3E
ENDCHAR
STARTCHAR 04E2
ENCODING 1250
SWIDTH 722 0
DWIDTH 13 0
BBX 9 17 2 0
BITMAP
3E00
3E00
0000
0000
C180
C180
C380
C780
C780
CD80
D980
D980
B180
B180
E180
C180
C180
ENDCHAR
STARTCHAR 04E3
ENCODING 1251
SWIDTH 611 0
DWIDTH 11 0
BBX 8 12 1 0
BITMAP
3E
3E
00
C3
C3
C7
CD
DB
DB
F3
E3
E3
ENDCHAR
STARTCHAR 04E4
ENCODING 1252
SWIDTH 722 0
DWIDTH 13 0
BBX 9 17 2 0
BITMAP
3600
7600
0000
0000
C180
C180
C380
C780
C780
CD80
D980
D980
B180
B180
E180
C180
C180
ENDCHAR
STARTCHAR 04E5
ENCODING 1253
SWIDTH 611 0
DWIDTH 11 0
BBX 8 12 1 0
BITMAP
36
76
00
C3
C3
C7
CD
DB
DB
F3
E3
E3
ENDCHAR
STARTCHAR 04E6
ENCODING 1254
SWIDTH 722 0
DWIDTH 13 0
BBX 11 17 1 0
BITMAP
1B00
3B00
0000
0000
1F00
3F80
71C0
E0C0
C060
C060
C060
C060
C060
E0C0
71C0
3F80
1F00
ENDCHAR
STARTCHAR 04E7
ENCODING 1255
SWIDTH 555 0
DWIDTH 10 0
BBX 8 12 1 0
BITMAP
66
66
00
3C
7E
C3
C3
C3
C3
C3
7E
3C
ENDCHAR
STARTCHAR 04E8
ENCODING 1256
SWIDTH 722 0
DWIDTH 13 0
BBX 11 13 1 0
BITMAP
1F00
3F80
61C0
C0C0
C060
FFE0
FFE0
C060
C060
E0C0
71C0
3F80
1F00
ENDCHAR
STARTCHAR 04E9
ENCODING 1257
SWIDTH 555 0
DWIDTH 10 0
BBX 8 9 1 0
BITMAP
3C
7E
C3
C3
FF
C3
C3
7E
3C
ENDCHAR
STARTCHAR 04EE
ENCODING 1262
SWIDTH 611 0
DWIDTH 11 0
BBX 11 17 0 0
BITMAP
1F00
1F00
0000
0000
E0E0
60C0
70C0
3180
3180
1980
1B00
0F00
0E00
0600
0600
3C00
3C00
ENDCHAR
STARTCHAR 04EF
ENCODING 1263
SWIDTH 500 0
DWIDTH 9 0
BBX 9 16 0 -4
BITMAP
3E00
3E00
0000
C180
6180
6300
6300
3200
3600
1600
1C00
1C00
0C00
1800
7800
7000
ENDCHAR
STARTCHAR 04F0
ENCODING 1264
SWIDTH 611 0
DWIDTH 11 0
BBX 11 17 0 0
BITMAP
1B00
1B80
0000
0000
E0E0
60C0
70C0
3180
3180
1980
1B00
0F00
0E00
0600
0600
3C00
3C00
ENDCHAR
STARTCHAR 04F1
ENCODING 1265
SWIDTH 500 0
DWIDTH 9 0
BBX 9 16 0 -4
BITMAP
3700
3700
0000
C180
6180
6300
6300
3200
3600
1600
1C00
1C00
0C00
1800
7800
7000
ENDCHAR
STARTCHAR 04F2
ENCODING 1266
SWIDTH 611 0
DWIDTH 11 0
BBX 11 18 0 0
BITMAP
0900
0DC0
0900
1B00
0000
E0E0
60C0
70C0
3180
3180
1980
1B00
0F00
0E00
0600
0600
3C00
3C00
ENDCHAR
STARTCHAR 04F3
ENCODING 1267
SWIDTH 500 0
DWIDTH 9 0
BBX 9 18 0 -4
BITMAP
1100
1B80
1300
3600
0000
C180
6180
6300
6300
3200
3600
1600
1C00
1C00
0C00
1800
7800
7000
ENDCHAR
STARTCHAR 04F4
ENCODING 1268
SWIDTH 666 0
DWIDTH 12 0
BBX 9 17 1 0
BITMAP
3700
3700
0000
0000
C180
C180
C180
C180
C180
C180
E180
7F80
3F80
0180
0180
0180
0180
ENDCHAR
STARTCHAR 04F5
ENCODING 1269
SWIDTH 555 0
DWIDTH 10 0
BBX 8 12 1 0
BITMAP
66
6E
00
C3
C3
C3
C7
FF
7B
03
03
03
ENDCHAR
STARTCHAR 04F8
ENCODING 1272
SWIDTH 888 0
DWIDTH 16 0
BBX 13 17 2 0
BITMAP
1980
1980
0000
0000
C018
C018
C018
C018
C018
FE18
FF18
C398
C198
C198
C398
FF18
FE18
ENDCHAR
STARTCHAR 04F9
ENCODING 1273
SWIDTH 777 0
DWIDTH 14 0
BBX 11 12 1 0
BITMAP
1980
1980
0000
C060
C060
FE60
FE60
C360
C360
C360
FE60
FE60
ENDCHAR
STARTCHAR 0E3F
ENCODING 3647
SWIDTH 666 0
DWIDTH 12 0
BBX 9 17 2 -2
BITMAP
1800
1800
FE00
FF00
9300
9300
9300
FE00
FF00
9380
9180
9180
9380
FF00
FE00
1800
1800
ENDCHAR
STARTCHAR 1E80
ENCODING 7808
SWIDTH 944 0
DWIDTH 17 0
BBX 16 18 0 0
BITMAP
0100
0300
0180
0080
0000
E1C3
61C3
61C3
6342
6366
3366
3266
3624
362C
163C
1C3C
1C18
1C18
ENDCHAR
STARTCHAR 1E81
ENCODING 7809
SWIDTH 777 0
DWIDTH 14 0
BBX 14 14 0 0
BITMAP
0200
0600
0300
0100
0000
E30C
6388
6398
6698
3698
34D0
3CF0
1C70
1870
ENDCHAR
STARTCHAR 1E82
ENCODING 7810
SWIDTH 944 0
DWIDTH 17 0
BBX 16 18 0 0
BITMAP
0040
00E0
00C0
0180
0000
E1C3
61C3
61C3
6342
6366
3366
3266
3624
362C
163C
1C3C
1C18
1C18
ENDCHAR
STARTCHAR 1E83
ENCODING 7811
SWIDTH 777 0
DWIDTH 14 0
BBX 14 14 0 0
BITMAP
0080
01C0
0100
0300
0000
E30C
6388
6398
6698
3698
34D0
3CF0
1C70
1870
ENDCHAR
STARTCHAR 1E84
ENCODING 7812
SWIDTH 944 0
DWIDTH 17 0
BBX 16 17 0 0
BITMAP
0760
0760
0000
0000
E1C3
61C3
61C3
6342
6366
3366
3266
3624
362C
163C
1C3C
1C18
1C18
ENDCHAR
STARTCHAR 1E85
ENCODING 7813
SWIDTH 777 0
DWIDTH 14 0
BBX 14 12 0 0
BITMAP
0CC0
0EC0
0000
E30C
6388
6398
6698
3698
34D0
3CF0
1C70
1870
ENDCHAR
STARTCHAR 1E9E
ENCODING 7838
SWIDTH 722 0
DWIDTH 13 0
BBX 10 13 2 0
BITMAP
FF80
FF80
C180
C300
C600
CF00
CF80
C0C0
C0C0
C0C0
D1C0
FF80
CF00
ENDCHAR
STARTCHAR 1EA0
ENCODING 7840
SWIDTH 666 0
DWIDTH 12 0
BBX 12 16 0 -3
BITMAP
0600
0F00
0F00
0B00
1980
1980
1180
30C0
3FC0
3FC0
60E0
6060
6060
8010
0600
0600
ENDCHAR
STARTCHAR 1EA1
ENCODING 7841
SWIDTH 555 0
DWIDTH 10 0
BBX 8 12 1 -3
BITMAP
7C
FE
46
06
7E
C6
C6
FB
73
00
18
38
ENDCHAR
STARTCHAR 1EA2
ENCODING 7842
SWIDTH 666 0
DWIDTH 12 0
BBX 12 18 0 0
BITMAP
0F00
0F00
0200
0600
0000
0600
0F00
0F00
0B00
1980
1980
1180
30C0
3FC0
3FC0
60E0
6060
E070
ENDCHAR
STARTCHAR 1EA3
ENCODING 7843
SWIDTH 555 0
DWIDTH 10 0
BBX 8 14 1 0
BITMAP
38
3C
08
18
00
7C
FE
46
06
7E
C6
C6
FB
73
ENDCHAR
STARTCHAR 1EA4
ENCODING 7844
SWIDTH 666 0
DWIDTH 12 0
BBX 12 21 0 0
BITMAP
0040
0060
00C0
0680
0F00
1B80
1080
0000
0600
0F00
0F00
0B00
1980
1980
1180
30C0
3FC0
3FC0
60E0
6060
E070
ENDCHAR
STARTCHAR 1EA5
ENCODING 7845
SWIDTH 555 0
DWIDTH 10 0
BBX 9 17 1 0
BITMAP
0100
0380
0300
3E00
3C00
6C00
4600
0000
7C00
FE00
4600
0600
7E00
C600
C600
FB00
7300
ENDCHAR
STARTCHAR 1EA6
ENCODING 7846
SWIDTH 666 0
DWIDTH 12 0
BBX 12 21 0 0
BITMAP
2000
6000
3000
1600
0F00
1B80
1080
0000
0600
0F00
0F00
0B00
1980
1980
1180
30C0
3FC0
3FC0
60E0
6060
E070
ENDCHAR
STARTCHAR 1EA7
ENCODING 7847
SWIDTH 555 0
DWIDTH 10 0
BBX 9 17 0 0
BITMAP
8000
C000
4000
7C00
1E00
3600
2300
0000
3E00
7F00
2300
0300
3F00
6300
6300
7D80
3980
ENDCHAR
STARTCHAR 1EA8
ENCODING 7848
SWIDTH 666 0
DWIDTH 12 0
BBX 12 21 0 0
BITMAP
01C0
01C0
0040
0680
0F00
1B80
1080
0000
0600
0F00
0F00
0B00
1980
1980
1180
30C0
3FC0
3FC0
60E0
6060
E070
ENDCHAR
STARTCHAR 1EA9
ENCODING 7849
SWIDTH 555 0
DWIDTH 10 0
BBX 8 17 1 0
BITMAP
0F
0F
03
3A
3C
6C
46
00
7C
FE
46
06
7E
C6
C6
FB
73
ENDCHAR
STARTCHAR 1EAA
ENCODING 7850
SWIDTH 666 0
DWIDTH 12 0
BBX 12 22 0 0
BITMAP
1C80
1F80
1300
0000
0600
0F00
1B80
1080
0000
0600
0F00
0F00
0B00
1980
1980
1180
30C0
3FC0
3FC0
60E0
6060
E070
ENDCHAR
STARTCHAR 1EAB
ENCODING 7851
SWIDTH 555 0
DWIDTH 10 0
BBX 8 18 1 0
BITMAP
74
7E
8C
00
38
3C
6C
46
00
7C
FE
46
06
7E
C6
C6
FB
73
ENDCHAR
STARTCHAR 1EAC
ENCODING 7852
SWIDTH 666 0
DWIDTH 12 0
BBX 12 21 0 -3
BITMAP
0600
0F00
1B80
1080
0000
0600
0F00
0F00
0B00
1980
1980
1180
30C0
3FC0
3FC0
60E0
6060
6060
8010
0600
0600
ENDCHAR
STARTCHAR 1EAD
ENCODING 7853
SWIDTH 555 0
DWIDTH 10 0
BBX 8 17 1 -3
BITMAP
38
3C
6C
46
00
7C
FE
46
06
7E
C6
C6
FB
73
00
18
38
ENDCHAR
STARTCHAR 1EAE
ENCODING 7854
SWIDTH 666 0
DWIDTH 12 0
BBX 12 22 0 0
BITMAP
0200
0300
0600
0400
1080
1980
0F00
0F00
0000
0600
0F00
0F00
0B00
1980
1980
1180
30C0
3FC0
3FC0
60E0
6060
E070
ENDCHAR
STARTCHAR 1EAF
ENCODING 7855
SWIDTH 555 0
DWIDTH 10 0
BBX 8 18 1 0
BITMAP
08
0C
18
10
44
66
7C
38
00
7C
FE
46
06
7E
C6
C6
FB
73
ENDCHAR
STARTCHAR 1EB0
ENCODING 7856
SWIDTH 666 0
DWIDTH 12 0
BBX 12 22 0 0
BITMAP
0800
0C00
0400
0600
1080
1980
0F00
0F00
0000
0600
0F00
0F00
0B00
1980
1980
1180
30C0
3FC0
3FC0
60E0
6060
E070
ENDCHAR
STARTCHAR 1EB1
ENCODING 7857
SWIDTH 555 0
DWIDTH 10 0
BBX 8 18 1 0
BITMAP
20
70
30
18
44
66
7C
38
00
7C
FE
46
06
7E
C6
C6
FB
73
ENDCHAR
STARTCHAR 1EB2
ENCODING 7858
SWIDTH 666 0
DWIDTH 12 0
BBX 12 21 0 0
BITMAP
0E00
0F00
0200
1480
1980
0F00
0F00
0000
0600
0F00
0F00
0B00
1980
1980
1180
30C0
3FC0
3FC0
60E0
6060
E070
ENDCHAR
STARTCHAR 1EB3
ENCODING 7859
SWIDTH 555 0
DWIDTH 10 0
BBX 8 17 1 0
BITMAP
38
38
18
54
66
7C
38
00
7C
FE
46
06
7E
C6
C6
FB
73
ENDCHAR
STARTCHAR 1EB4
ENCODING 7860
SWIDTH 666 0
DWIDTH 12 0
BBX 12 22 0 0
BITMAP
0C80
1F80
1300
0000
1080
1980
0F00
0F00
0000
0600
0F00
0F00
0B00
1980
1980
1180
30C0
3FC0
3FC0
60E0
6060
E070
ENDCHAR
STARTCHAR 1EB5
ENCODING 7861
SWIDTH 555 0
DWIDTH 10 0
BBX 8 18 1 0
BITMAP
74
7E
CC
00
44
66
7C
38
00
7C
FE
46
06
7E
C6
C6
FB
73
ENDCHAR
STARTCHAR 1EB6
ENCODING 7862
SWIDTH 666 0
DWIDTH 12 0
BBX 12 21 0 -3
BITMAP
1080
1980
0F00
0E00
0000
0600
0F00
0F00
0B00
1980
1980
1180
30C0
3FC0
3FC0
60E0
6060
6060
8010
0600
0600
ENDCHAR
STARTCHAR 1EB7
ENCODING 7863
SWIDTH 555 0
DWIDTH 10 0
BBX 8 17 1 -3
BITMAP
44
66
7C
38
00
7C
FE
46
06
7E
C6
C6
FB
73
00
18
38
ENDCHAR
STARTCHAR 1EB8
ENCODING 7864
SWIDTH 611 0
DWIDTH 11 0
BBX 8 16 2 -3
BITMAP
FF
FF
C0
C0
C0
FE
FE
C0
C0
C0
C0
FF
FF
00
38
38
ENDCHAR
STARTCHAR 1EB9
ENCODING 7865
SWIDTH 555 0
DWIDTH 10 0
BBX 8 12 1 -3
BITMAP
3C
7E
C3
C3
FF
C0
C2
7F
3C
00
18
18
ENDCHAR
STARTCHAR 1EBA
ENCODING 7866
SWIDTH 611 0
DWIDTH 11 0
BBX 8 18 2 0
BITMAP
38
38
08
10
00
FF
FF
C0
C0
C0
FE
FE
C0
C0
C0
C0
FF
FF
ENDCHAR
STARTCHAR 1EBB
ENCODING 7867
SWIDTH 555 0
DWIDTH 10 0
BBX 8 14 1 0
BITMAP
3C
3C
0C
08
00
3C
7E
C3
C3
FF
C0
C2
7F
3C
ENDCHAR
STARTCHAR 1EBC
ENCODING 7868
SWIDTH 611 0
DWIDTH 11 0
BBX 8 18 2 0
BITMAP
74
FE
8C
00
00
FF
FF
C0
C0
C0
FE
FE
C0
C0
C0
C0
FF
FF
ENDCHAR
STARTCHAR 1EBD
ENCODING 7869
SWIDTH 555 0
DWIDTH 10 0
BBX 8 13 1 0
BITMAP
32
7E
4E
00
3C
7E
C3
C3
FF
C0
C2
7F
3C
ENDCHAR
STARTCHAR 1EBE
ENCODING 7870
SWIDTH 611 0
DWIDTH 11 0
BBX 9 21 2 0
BITMAP
0100
0380
0300
3E00
3C00
6C00
C600
0000
FF00
FF00
C000
C000
C000
FE00
FE00
C000
C000
C000
C000
FF00
FF00
ENDCHAR
STARTCHAR 1EBF
ENCODING 7871
SWIDTH 555 0
DWIDTH 10 0
BBX 9 17 1 0
BITMAP
0100
0180
0300
1A00
3C00
7600
4200
0000
3C00
7E00
C300
C300
FF00
C000
C200
7F00
3C00
ENDCHAR
STARTCHAR 1EC0
ENCODING 7872
SWIDTH 611 0
DWIDTH 11 0
BBX 9 21 1 0
BITMAP
8000
C000
4000
7C00
1E00
3600
6300
0000
7F80
7F80
6000
6000
6000
7F00
7F00
6000
6000
6000
6000
7F80
7F80
ENDCHAR
STARTCHAR 1EC1
ENCODING 7873
SWIDTH 555 0
DWIDTH 10 0
BBX 9 17 0 0
BITMAP
4000
C000
6000
2C00
1E00
3B00
2100
0000
1E00
3F00
6180
6180
7F80
6000
6100
3F80
1E00
ENDCHAR
STARTCHAR 1EC2
ENCODING 7874
SWIDTH 611 0
DWIDTH 11 0
BBX 8 21 2 0
BITMAP
0F
0F
03
3A
3C
6C
C6
00
FF
FF
C0
C0
C0
FE
FE
C0
C0
C0
C0
FF
FF
ENDCHAR
STARTCHAR 1EC3
ENCODING 7875
SWIDTH 555 0
DWIDTH 10 0
BBX 9 17 1 0
BITMAP
0700
0780
0100
1A00
3C00
7600
4200
0000
3C00
7E00
C300
C300
FF00
C000
C200
7F00
3C00
ENDCHAR
STARTCHAR 1EC4
ENCODING 7876
SWIDTH 611 0
DWIDTH 11 0
BBX 8 22 2 0
BITMAP
74
FE
9C
00
38
3C
6C
C6
00
FF
FF
C0
C0
C0
FE
FE
C0
C0
C0
C0
FF
FF
ENDCHAR
STARTCHAR 1EC5
ENCODING 7877
SWIDTH 555 0
DWIDTH 10 0
BBX 8 18 1 0
BITMAP
32
7E
4E
00
18
3C
76
42
00
3C
7E
C3
C3
FF
C0
C2
7F
3C
ENDCHAR
STARTCHAR 1EC6
ENCODING 7878
SWIDTH 611 0
DWIDTH 11 0
BBX 8 21 2 -3
BITMAP
38
3C
6C
C6
00
FF
FF
C0
C0
C0
FE
FE
C0
C0
C0
C0
FF
FF
00
38
38
ENDCHAR
STARTCHAR 1EC7
ENCODING 7879
SWIDTH 555 0
DWIDTH 10 0
BBX 8 17 1 -3
BITMAP
18
3C
76
62
00
3C
7E
C3
C3
FF
C0
C2
7F
3C
00
18
18
ENDCHAR
STARTCHAR 1EC8
ENCODING 7880
SWIDTH 388 0
DWIDTH 7 0
BBX 5 18 1 0
BITMAP
70
78
10
30
00
F8
F8
30
30
30
30
30
30
30
30
30
F8
F8
ENDCHAR
STARTCHAR 1EC9
ENCODING 7881
SWIDTH 277 0
DWIDTH 5 0
BBX 3 14 1 0
BITMAP
E0
E0
60
40
00
C0
C0
C0
C0
C0
C0
C0
C0
C0
ENDCHAR
STARTCHAR 1ECA
ENCODING 7882
SWIDTH 388 0
DWIDTH 7 0
BBX 5 16 1 -3
BITMAP
F8
F8
30
30
30
30
30
30
30
30
30
F8
F8
00
30
30
ENDCHAR
STARTCHAR 1ECB
ENCODING 7883
SWIDTH 277 0
DWIDTH 5 0
BBX 3 16 1 -3
BITMAP
C0
E0
00
00
C0
C0
C0
C0
C0
C0
C0
C0
C0
00
C0
E0
ENDCHAR
STARTCHAR 1ECC
ENCODING 7884
SWIDTH 722 0
DWIDTH 13 0
BBX 11 16 1 -3
BITMAP
1F00
3F80
71C0
E0C0
C060
C060
C060
C060
C060
E0C0
71C0
3F80
1F00
0000
0C00
0E00
ENDCHAR
STARTCHAR 1ECD
ENCODING 7885
SWIDTH 555 0
DWIDTH 10 0
BBX 8 12 1 -3
BITMAP
3C
7E
C3
C3
C3
C3
C3
7E
3C
00
18
18
ENDCHAR
STARTCHAR 1ECE
ENCODING 7886
SWIDTH 722 0
DWIDTH 13 0
BBX 11 18 1 0
BITMAP
0E00
0E00
0600
0400
0000
1F00
3F80
71C0
E0C0
C060
C060
C060
C060
C060
E0C0
71C0
3F80
1F00
ENDCHAR
STARTCHAR 1ECF
ENCODING 7887
SWIDTH 555 0
DWIDTH 10 0
BBX 8 14 1 0
BITMAP
3C
3C
0C
08
00
3C
7E
C3
C3
C3
C3
C3
7E
3C
ENDCHAR
STARTCHAR 1ED0
ENCODING 7888
SWIDTH 722 0
DWIDTH 13 0
BBX 11 21 1 0
BITMAP
0080
00C0
0080
0F80
1E00
1B00
3180
0000
1F00
3F80
71C0
E0C0
C060
C060
C060
C060
C060
E0C0
71C0
3F80
1F00
ENDCHAR
STARTCHAR 1ED1
ENCODING 7889
SWIDTH 555 0
DWIDTH 10 0
BBX 9 17 1 0
BITMAP
0100
0180
0300
1A00
3C00
7600
4200
0000
3C00
7E00
C300
C300
C300
C300
C300
7E00
3C00
ENDCHAR
STARTCHAR 1ED2
ENCODING 7890
SWIDTH 722 0
DWIDTH 13 0
BBX 11 21 1 0
BITMAP
4000
E000
6000
3E00
1E00
1B00
3180
0000
1F00
3F80
71C0
E0C0
C060
C060
C060
C060
C060
E0C0
71C0
3F80
1F00
ENDCHAR
STARTCHAR 1ED3
ENCODING 7891
SWIDTH 555 0
DWIDTH 10 0
BBX 9 17 0 0
BITMAP
4000
C000
6000
2C00
1E00
3B00
2100
0000
1E00
3F00
6180
6180
6180
6180
6180
3F00
1E00
ENDCHAR
STARTCHAR 1ED4
ENCODING 7892
SWIDTH 722 0
DWIDTH 13 0
BBX 11 21 1 0
BITMAP
03C0
03C0
0080
0F80
1E00
1B00
3180
0000
1F00
3F80
71C0
E0C0
C060
C060
C060
C060
C060
E0C0
71C0
3F80
1F00
ENDCHAR
STARTCHAR 1ED5
ENCODING 7893
SWIDTH 555 0
DWIDTH 10 0
BBX 9 17 1 0
BITMAP
0700
0780
0100
1A00
3C00
7600
4200
0000
3C00
7E00
C300
C300
C300
C300
C300
7E00
3C00
ENDCHAR
STARTCHAR 1ED6
ENCODING 7894
SWIDTH 722 0
DWIDTH 13 0
BBX 11 22 1 0
BITMAP
1900
3F80
2700
0000
0E00
1E00
1B00
3180
0000
1F00
3F80
71C0
E0C0
C060
C060
C060
C060
C060
E0C0
71C0
3F80
1F00
ENDCHAR
STARTCHAR 1ED7
ENCODING 7895
SWIDTH 555 0
DWIDTH 10 0
BBX 8 18 1 0
BITMAP
32
7E
4E
00
18
3C
76
42
00
3C
7E
C3
C3
C3
C3
C3
7E
3C
ENDCHAR
STARTCHAR 1ED8
ENCODING 7896
SWIDTH 722 0
DWIDTH 13 0
BBX 11 21 1 -3
BITMAP
0E00
1E00
1B00
3180
0000
1F00
3F80
71C0
E0C0
C060
C060
C060
C060
C060
E0C0
71C0
3F80
1F00
0000
0C00
0E00
ENDCHAR
STARTCHAR 1ED9
ENCODING 7897
SWIDTH 555 0
DWIDTH 10 0
BBX 8 17 1 -3
BITMAP
18
3C
76
42
00
3C
7E
C3
C3
C3
C3
C3
7E
3C
00
18
18
ENDCHAR
STARTCHAR 1EDA
ENCODING 7898
SWIDTH 722 0
DWIDTH 13 0
BBX 11 18 1 0
BITMAP
0200
0700
0600
0C60
0060
1FE0
3FC0
71C0
E0C0
C060
C060
C060
C060
C060
E0C0
71C0
3F80
1F00
ENDCHAR
STARTCHAR 1EDB
ENCODING 7899
SWIDTH 555 0
DWIDTH 10 0
BBX 9 14 1 0
BITMAP
0800
0C00
0800
1980
0180
3F00
7F00
C300
C300
C300
C300
C300
7E00
3C00
ENDCHAR
STARTCHAR 1EDC
ENCODING 7900
SWIDTH 722 0
DWIDTH 13 0
BBX 11 18 1 0
BITMAP
0800
1800
0C00
0460
0060
1FE0
3FC0
71C0
E0C0
C060
C060
C060
C060
C060
E0C0
71C0
3F80
1F00
ENDCHAR
STARTCHAR 1EDD
ENCODING 7901
SWIDTH 555 0
DWIDTH 10 0
BBX 9 14 1 0
BITMAP
1000
3000
1800
0980
0180
3F00
7F00
C300
C300
C300
C300
C300
7E00
3C00
ENDCHAR
STARTCHAR 1EDE
ENCODING 7902
SWIDTH 722 0
DWIDTH 13 0
BBX 11 18 1 0
BITMAP
0E00
0E00
0600
0460
0060
1FE0
3FC0
71C0
E0C0
C060
C060
C060
C060
C060
E0C0
71C0
3F80
1F00
ENDCHAR
STARTCHAR 1EDF
ENCODING 7903
SWIDTH 555 0
DWIDTH 10 0
BBX 9 14 1 0
BITMAP
3C00
3C00
0C00
0980
0180
3F00
7F00
C300
C300
C300
C300
C300
7E00
3C00
ENDCHAR
STARTCHAR 1EE0
ENCODING 7904
SWIDTH 722 0
DWIDTH 13 0
BBX 11 18 1 0
BITMAP
1900
1F00
1700
0060
0060
1FE0
3FC0
71C0
E0C0
C060
C060
C060
C060
C060
E0C0
71C0
3F80
1F00
ENDCHAR
STARTCHAR 1EE1
ENCODING 7905
SWIDTH 555 0
DWIDTH 10 0
BBX 9 13 1 0
BITMAP
3400
7E00
4D80
0180
3F00
7F00
C300
C300
C300
C300
C300
7E00
3C00
ENDCHAR
STARTCHAR 1EE2
ENCODING 7906
SWIDTH 722 0
DWIDTH 13 0
BBX 11 18 1 -3
BITMAP
0060
0060
1FE0
3FC0
71C0
E0C0
C060
C060
C060
C060
C060
E0C0
71C0
3F80
1F00
0000
0C00
0E00
ENDCHAR
STARTCHAR 1EE3
ENCODING 7907
SWIDTH 555 0
DWIDTH 10 0
BBX 9 14 1 -3
BITMAP
0180
0180
3F00
7F00
C300
C300
C300
C300
C300
7E00
3C00
0000
1800
1800
ENDCHAR
STARTCHAR 1EE4
ENCODING 7908
SWIDTH 666 0
DWIDTH 12 0
BBX 10 16 1 -3
BITMAP
C0C0
C0C0
C0C0
C0C0
C0C0
C0C0
C0C0
C0C0
60C0
60C0
6180
7F80
1F00
0000
0C00
0C00
ENDCHAR
STARTCHAR 1EE5
ENCODING 7909
SWIDTH 555 0
DWIDTH 10 0
BBX 8 12 1 -3
BITMAP
C3
C3
C3
C3
C3
C3
E3
7F
3B
00
18
18
ENDCHAR
STARTCHAR 1EE6
ENCODING 7910
SWIDTH 666 0
DWIDTH 12 0
BBX 10 18 1 0
BITMAP
1E00
1E00
0600
0400
0000
C0C0
C0C0
C0C0
C0C0
C0C0
C0C0
C0C0
C0C0
60C0
60C0
6180
7F80
1F00
ENDCHAR
STARTCHAR 1EE7
ENCODING 7911
SWIDTH 555 0
DWIDTH 10 0
BBX 8 14 1 0
BITMAP
3C
3C
0C
08
00
C3
C3
C3
C3
C3
C3
E3
7F
3B
ENDCHAR
STARTCHAR 1EE8
ENCODING 7912
SWIDTH 666 0
DWIDTH 12 0
BBX 11 18 1 0
BITMAP
0400
0600
0400
0C60
0060
C0E0
C0C0
C0C0
C0C0
C0C0
C0C0
C0C0
C0C0
60C0
60C0
6180
7F80
1F00
ENDCHAR
STARTCHAR 1EE9
ENCODING 7913
SWIDTH 555 0
DWIDTH 10 0
BBX 9 14 1 0
BITMAP
0400
0E00
0800
1880
0080
C380
C300
C300
C300
C300
C300
E300
7F00
3B00
ENDCHAR
STARTCHAR 1EEA
ENCODING 7914
SWIDTH 666 0
DWIDTH 12 0
BBX 11 18 1 0
BITMAP
0800
1800
0C00
0460
0060
C0E0
C0C0
C0C0
C0C0
C0C0
C0C0
C0C0
C0C0
60C0
60C0
6180
7F80
1F00
ENDCHAR
STARTCHAR 1EEB
ENCODING 7915
SWIDTH 555 0
DWIDTH 10 0
BBX 9 14 1 0
BITMAP
1000
3000
1800
0880
0080
C380
C300
C300
C300
C300
C300
E300
7F00
3B00
ENDCHAR
STARTCHAR 1EEC
ENCODING 7916
SWIDTH 666 0
DWIDTH 12 0
BBX 11 18 1 0
BITMAP
1E00
1E00
0600
0460
0060
C0E0
C0C0
C0C0
C0C0
C0C0
C0C0
C0C0
C0C0
60C0
60C0
6180
7F80
1F00
ENDCHAR
STARTCHAR 1EED
ENCODING 7917
SWIDTH 555 0
DWIDTH 10 0
BBX 9 14 1 0
BITMAP
3C00
3C00
0C00
0880
0080
C380
C300
C300
C300
C300
C300
E300
7F00
3B00
ENDCHAR
STARTCHAR 1EEE
ENCODING 7918
SWIDTH 666 0
DWIDTH 12 0
BBX 11 18 1 0
BITMAP
1A00
3F00
2600
0060
0060
C0E0
C0C0
C0C0
C0C0
C0C0
C0C0
C0C0
C0C0
60C0
60C0
6180
7F80
1F00
ENDCHAR
STARTCHAR 1EEF
ENCODING 7919
SWIDTH 555 0
DWIDTH 10 0
BBX 9 13 1 0
BITMAP
3200
7E00
4C80
0080
C380
C300
C300
C300
C300
C300
E300
7F00
3B00
ENDCHAR
STARTCHAR 1EF0
ENCODING 7920
SWIDTH 666 0
DWIDTH 12 0
BBX 11 18 1 -3
BITMAP
0060
0060
C0E0
C0C0
C0C0
C0C0
C0C0
C0C0
C0C0
C0C0
60C0
60C0
6180
7F80
1F00
0000
0C00
0C00
ENDCHAR
STARTCHAR 1EF1
ENCODING 7921
SWIDTH 555 0
DWIDTH 10 0
BBX 9 14 1 -3
BITMAP
0080
0080
C380
C300
C300
C300
C300
C300
E300
7F00
3B00
0000
1800
1800
ENDCHAR
STARTCHAR 1EF2
ENCODING 7922
SWIDTH 611 0
DWIDTH 11 0
BBX 11 18 0 0
BITMAP
0800
1C00
0C00
0600
0000
E0E0
60C0
31C0
3180
1B00
1B00
0E00
0E00
0600
0600
0600
0600
0600
ENDCHAR
STARTCHAR 1EF3
ENCODING 7923
SWIDTH 500 0
DWIDTH 9 0
BBX 9 18 0 -4
BITMAP
1000
3800
1800
0C00
0000
C180
6180
6300
6300
3200
3600
1600
1C00
1C00
0C00
1800
7800
7000
ENDCHAR
STARTCHAR 1EF4
ENCODING 7924
SWIDTH 611 0
DWIDTH 11 0
BBX 11 16 0 -3
BITMAP
E0E0
60C0
31C0
3180
1B00
1B00
0E00
0E00
0600
0600
0600
0600
0600
0000
0E00
0E00
ENDCHAR
STARTCHAR 1EF5
ENCODING 7925
SWIDTH 500 0
DWIDTH 9 0
BBX 9 13 0 -4
BITMAP
C180
6180
6300
6300
3200
3600
1600
1C00
1C00
0C00
1B00
7B80
7000
ENDCHAR
STARTCHAR 1EF6
ENCODING 7926
SWIDTH 611 0
DWIDTH 11 0
BBX 11 18 0 0
BITMAP
0E00
0E00
0200
0400
0000
E0E0
60C0
31C0
3180
1B00
1B00
0E00
0E00
0600
0600
0600
0600
0600
ENDCHAR
STARTCHAR 1EF7
ENCODING 7927
SWIDTH 500 0
DWIDTH 9 0
BBX 9 18 0 -4
BITMAP
1C00
1E00
0400
0C00
0000
C180
6180
6300
6300
3200
3600
1600
1C00
1C00
0C00
1800
7800
7000
ENDCHAR
STARTCHAR 1EF8
ENCODING 7928
SWIDTH 611 0
DWIDTH 11 0
BBX 11 18 0 0
BITMAP
1D00
3F80
2300
0000
0000
E0E0
60C0
31C0
3180
1B00
1B00
0E00
0E00
0600
0600
0600
0600
0600
ENDCHAR
STARTCHAR 1EF9
ENCODING 7929
SWIDTH 500 0
DWIDTH 9 0
BBX 9 17 0 -4
BITMAP
3A00
3F00
6600
0000
C180
6180
6300
6300
3200
3600
1600
1C00
1C00
0C00
1800
7800
7000
ENDCHAR
STARTCHAR 2013
ENCODING 8211
SWIDTH 611 0
DWIDTH 11 0
BBX 9 2 1 4
BITMAP
FF80
FF80
ENDCHAR
STARTCHAR 2014
ENCODING 8212
SWIDTH 777 0
DWIDTH 14 0
BBX 12 2 1 4
BITMAP
FFF0
FFF0
ENDCHAR
STARTCHAR 2018
ENCODING 8216
SWIDTH 277 0
DWIDTH 5 0
BBX 3 5 1 8
BITMAP
60
40
E0
E0
E0
ENDCHAR
STARTCHAR 2019
ENCODING 8217
SWIDTH 277 0
DWIDTH 5 0
BBX 3 5 1 8
BITMAP
60
E0
60
40
C0
ENDCHAR
STARTCHAR 201A
ENCODING 8218
SWIDTH 277 0
DWIDTH 5 0
BBX 3 5 1 -2
BITMAP
E0
E0
E0
40
C0
ENDCHAR
STARTCHAR 201C
ENCODING 8220
SWIDTH 500 0
DWIDTH 9 0
BBX 7 5 1 8
BITMAP
66
44
EE
EE
EC
ENDCHAR
STARTCHAR 201D
ENCODING 8221
SWIDTH 500 0
DWIDTH 9 0
BBX 7 5 1 8
BITMAP
6E
EE
6E
44
CC
ENDCHAR
STARTCHAR 201E
ENCODING 8222
SWIDTH 500 0
DWIDTH 9 0
BBX 7 5 1 -2
BITMAP
EE
EE
EE
44
C8
ENDCHAR
STARTCHAR 2020
ENCODING 8224
SWIDTH 555 0
DWIDTH 10 0
BBX 8 17 1 -4
BITMAP
18
18
18
18
FF
18
18
18
18
18
18
18
18
18
18
18
18
ENDCHAR
STARTCHAR 2021
ENCODING 8225
SWIDTH 555 0
DWIDTH 10 0
BBX 8 17 1 -4
BITMAP
18
18
18
18
FF
18
18
18
18
18
18
FF
18
18
18
18
18
ENDCHAR
STARTCHAR 2022
ENCODING 8226
SWIDTH 388 0
DWIDTH 7 0
BBX 5 5 1 3
BITMAP
70
F8
F8
F8
70
ENDCHAR
STARTCHAR 2026
ENCODING 8230
SWIDTH 833 0
DWIDTH 15 0
BBX 13 3 1 0
BITMAP
6318
E738
6318
ENDCHAR
STARTCHAR 2030
ENCODING 8240
SWIDTH 1333 0
DWIDTH 24 0
BBX 22 13 1 0
BITMAP
781800
CC3000
CC6000
CC4000
CCC000
CD8000
793C78
0366CC
0666CC
0466CC
0C66CC
1866CC
303C78
ENDCHAR
STARTCHAR 2032
ENCODING 8242
SWIDTH 277 0
DWIDTH 5 0
BBX 3 6 1 7
BITMAP
60
40
C0
C0
C0
C0
ENDCHAR
STARTCHAR 2033
ENCODING 8243
SWIDTH 444 0
DWIDTH 8 0
BBX 6 6 1 7
BITMAP
6C
4C
CC
CC
C8
D8
ENDCHAR
STARTCHAR 2039
ENCODING 8249
SWIDTH 333 0
DWIDTH 6 0
BBX 4 8 1 1
BITMAP
20
70
E0
C0
C0
60
30
20
ENDCHAR
STARTCHAR 203A
ENCODING 8250
SWIDTH 333 0
DWIDTH 6 0
BBX 4 8 1 1
BITMAP
80
C0
60
30
30
60
C0
80
ENDCHAR
STARTCHAR 2044
ENCODING 8260
SWIDTH 166 0
DWIDTH 3 0
BBX 11 13 -4 0
BITMAP
0060
00C0
0180
0100
0300
0600
0400
0800
1800
3000
2000
6000
C000
ENDCHAR
STARTCHAR 2070
ENCODING 8304
SWIDTH 388 0
DWIDTH 7 0
BBX 5 7 1 6
BITMAP
70
98
88
88
88
98
70
ENDCHAR
STARTCHAR 2074
ENCODING 8308
SWIDTH 333 0
DWIDTH 6 0
BBX 6 7 0 6
BITMAP
18
28
28
48
C8
FC
08
ENDCHAR
STARTCHAR 2075
ENCODING 8309
SWIDTH 333 0
DWIDTH 6 0
BBX 5 7 1 6
BITMAP
F0
80
F0
98
18
98
F0
ENDCHAR
STARTCHAR 2076
ENCODING 8310
SWIDTH 333 0
DWIDTH 6 0
BBX 5 7 1 6
BITMAP
70
40
C0
F0
98
98
70
ENDCHAR
STARTCHAR 2077
ENCODING 8311
SWIDTH 333 0
DWIDTH 6 0
BBX 5 7 0 6
BITMAP
F8
C8
18
18
10
30
20
ENDCHAR
STARTCHAR 2078
ENCODING 8312
SWIDTH 388 0
DWIDTH 7 0
BBX 5 7 1 6
BITMAP
70
98
98
70
98
98
F0
ENDCHAR
STARTCHAR 2079
ENCODING 8313
SWIDTH 333 0
DWIDTH 6 0
BBX 5 7 1 6
BITMAP
F0
98
98
F8
10
30
E0
ENDCHAR
STARTCHAR 2080
ENCODING 8320
SWIDTH 388 0
DWIDTH 7 0
BBX 5 7 1 0
BITMAP
70
98
88
88
88
98
70
ENDCHAR
STARTCHAR 2081
ENCODING 8321
SWIDTH 333 0
DWIDTH 6 0
BBX 6 7 0 0
BITMAP
30
50
90
10
10
10
7C
ENDCHAR
STARTCHAR 2082
ENCODING 8322
SWIDTH 333 0
DWIDTH 6 0
BBX 6 7 0 0
BITMAP
78
C8
0C
18
30
60
7C
ENDCHAR
STARTCHAR 2083
ENCODING 8323
SWIDTH 333 0
DWIDTH 6 0
BBX 6 7 0 0
BITMAP
78
C8
08
30
08
4C
F8
ENDCHAR
STARTCHAR 2084
ENCODING 8324
SWIDTH 333 0
DWIDTH 6 0
BBX 6 7 0 0
BITMAP
18
28
28
48
C8
FC
08
ENDCHAR
STARTCHAR 2085
ENCODING 8325
SWIDTH 333 0
DWIDTH 6 0
BBX 5 7 1 0
BITMAP
F0
80
F0
98
18
98
F0
ENDCHAR
STARTCHAR 2086
ENCODING 8326
SWIDTH 333 0
DWIDTH 6 0
BBX 5 7 1 0
BITMAP
70
40
C0
F0
98
98
70
ENDCHAR
STARTCHAR 2087
ENCODING 8327
SWIDTH 333 0
DWIDTH 6 0
BBX 5 7 0 0
BITMAP
F8
C8
18
18
10
30
20
ENDCHAR
STARTCHAR 2088
ENCODING 8328
SWIDTH 388 0
DWIDTH 7 0
BBX 5 7 1 0
BITMAP
70
98
98
70
98
98
F0
ENDCHAR
STARTCHAR 2089
ENCODING 8329
SWIDTH 333 0
DWIDTH 6 0
BBX 5 7 1 0
BITMAP
F0
98
98
F8
10
30
E0
ENDCHAR
STARTCHAR 20A1
ENCODING 8353
SWIDTH 611 0
DWIDTH 11 0
BBX 10 17 1 -2
BITMAP
0A00
0A00
1F00
3F80
6B80
CB40
CA00
DA00
DE00
D400
D400
D480
75C0
7F80
1E00
1400
3400
ENDCHAR
STARTCHAR 20A4
ENCODING 8356
SWIDTH 611 0
DWIDTH 11 0
BBX 9 13 1 0
BITMAP
1E00
3F00
6180
6000
6000
FE00
6000
FE00
3000
6000
6000
FF80
FF80
ENDCHAR
STARTCHAR 20A6
ENCODING 8358
SWIDTH 722 0
DWIDTH 13 0
BBX 13 13 0 0
BITMAP
3060
3860
3860
3C60
3460
F7F8
3260
FF78
3160
31E0
30E0
30E0
3060
ENDCHAR
STARTCHAR 20A8
ENCODING 8360
SWIDTH 777 0
DWIDTH 14 0
BBX 12 13 2 0
BITMAP
F800
FC00
CC00
C600
C6E0
CDF0
FD80
F9C0
DCE0
CC60
CE30
C7E0
C3C0
ENDCHAR
STARTCHAR 20A9
ENCODING 8361
SWIDTH 1000 0
DWIDTH 18 0
BBX 16 13 1 0
BITMAP
C183
C382
C386
62C6
62C6
FE7F
664C
E7EF
346C
3C28
3C28
1838
1838
ENDCHAR
STARTCHAR 20AA
ENCODING 8362
SWIDTH 833 0
DWIDTH 15 0
BBX 11 13 2 0
BITMAP
FE20
FF20
8320
9B20
9B20
9B20
9B20
9B20
9B20
9B20
9860
9FE0
9FC0
ENDCHAR
STARTCHAR 20AB
ENCODING 8363
SWIDTH 555 0
DWIDTH 10 0
BBX 9 13 1 0
BITMAP
0300
1F80
0300
7B00
FB00
C700
C300
C700
FB00
7B00
0000
FF00
FF00
ENDCHAR
STARTCHAR 20AC
ENCODING 8364
SWIDTH 611 0
DWIDTH 11 0
BBX 10 13 1 0
BITMAP
1E00
3F80
7180
E080
C000
FE00
C000
FE00
C000
E080
71C0
3F80
1E00
ENDCHAR
STARTCHAR 20AD
ENCODING 8365
SWIDTH 666 0
DWIDTH 12 0
BBX 11 13 0 0
BITMAP
30E0
31C0
3180
3300
3600
FFE0
FFE0
3600
3300
3180
31C0
30C0
3060
ENDCHAR
STARTCHAR 20AE
ENCODING 8366
SWIDTH 611 0
DWIDTH 11 0
BBX 9 13 1 0
BITMAP
FF80
FF80
1800
1800
1B00
1E00
3800
7B00
1E00
3800
7800
1800
1800
ENDCHAR
STARTCHAR 20B1
ENCODING 8369
SWIDTH 666 0
DWIDTH 12 0
BBX 12 13 0 0
BITMAP
3F00
3F80
30C0
FFF0
30C0
FFF0
30C0
3F80
3F00
3000
3000
3000
3000
ENDCHAR
STARTCHAR 20B2
ENCODING 8370
SWIDTH 666 0
DWIDTH 12 0
BBX 10 17 1 -2
BITMAP
0600
0600
1E00
3F80
6580
E4C0
C400
CC00
CFC0
CFC0
C8C0
E8C0
69C0
3F80
1F00
1800
1000
ENDCHAR
STARTCHAR 20B4
ENCODING 8372
SWIDTH 611 0
DWIDTH 11 0
BBX 10 13 1 0
BITMAP
1E00
7F00
2300
0300
0100
FFC0
1C00
FFC0
6000
6000
6100
3F80
1E00
ENDCHAR
STARTCHAR 20B5
ENCODING 8373
SWIDTH 611 0
DWIDTH 11 0
BBX 9 17 1 -2
BITMAP
0600
0600
1E00
3F80
6580
E500
C400
CC00
CC00
C800
C800
E880
6980
3F80
1E00
1800
1000
ENDCHAR
STARTCHAR 20B8
ENCODING 8376
SWIDTH 611 0
DWIDTH 11 0
BBX 9 13 1 0
BITMAP
FF80
FF80
0000
0000
FF80
FF80
1800
1800
1800
1800
1800
1800
1800
ENDCHAR
STARTCHAR 20B9
ENCODING 8377
SWIDTH 611 0
DWIDTH 11 0
BBX 9 13 1 0
BITMAP
FF80
FF80
0600
0600
FF80
0600
0600
FE00
FC00
1800
0C00
0E00
0700
ENDCHAR
STARTCHAR 20BA
ENCODING 8378
SWIDTH 611 0
DWIDTH 11 0
BBX 10 13 0 0
BITMAP
3000
3000
3600
3C00
7200
F600
3C00
7000
F0C0
30C0
31C0
3F80
3F00
ENDCHAR
STARTCHAR 20BD
ENCODING 8381
SWIDTH 666 0
DWIDTH 12 0
BBX 11 13 0 0
BITMAP
3F80
3FC0
30E0
3060
3060
3060
30E0
FFC0
FF80
3000
FF00
3000
3000
ENDCHAR
STARTCHAR 20BF
ENCODING 8383
SWIDTH 666 0
DWIDTH 12 0
BBX 9 17 2 -2
BITMAP
6C00
6C00
FE00
FF00
8300
8300
8300
FE00
FF00
8380
8180
8180
8380
FF00
FE00
6C00
6C00
ENDCHAR
STARTCHAR 2113
ENCODING 8467
SWIDTH 500 0
DWIDTH 9 0
BBX 9 13 0 0
BITMAP
1E00
3F00
3300
3300
3300
3600
3E00
3C00
7800
F100
7380
3F00
1E00
ENDCHAR
STARTCHAR 2116
ENCODING 8470
SWIDTH 1055 0
DWIDTH 19 0
BBX 16 13 2 0
BITMAP
C19E
E1B3
E1B3
B1B3
B1B3
999E
9980
8DBF
8D80
8780
8780
8380
8380
ENDCHAR
STARTCHAR 2122
ENCODING 8482
SWIDTH 611 0
DWIDTH 11 0
BBX 9 5 1 8
BITMAP
FC80
4D80
4B80
4A80
4880
ENDCHAR
STARTCHAR 2126
ENCODING 8486
SWIDTH 722 0
DWIDTH 13 0
BBX 11 13 1 0
BITMAP
1F00
3F80
71C0
E0E0
C060
C060
C060
C060
60C0
71C0
3180
F1E0
F1E0
ENDCHAR
STARTCHAR 212E
ENCODING 8494
SWIDTH 722 0
DWIDTH 13 0
BBX 11 13 1 0
BITMAP
1F00
2080
40C0
C0E0
C0E0
C0E0
FFE0
C000
C000
C000
4060
20C0
1F00
ENDCHAR
STARTCHAR 2150
ENCODING 8528
SWIDTH 888 0
DWIDTH 16 0
BBX 15 13 0 0
BITMAP
3018
5010
9030
1060
1040
1080
7DBE
0326
0206
0604
0C0C
0808
1818
ENDCHAR
STARTCHAR 2151
ENCODING 8529
SWIDTH 888 0
DWIDTH 16 0
BBX 15 13 0 0
BITMAP
3018
5010
9030
1060
1040
1080
7D9C
0322
0222
061E
0C06
080C
1818
ENDCHAR
STARTCHAR 2153
ENCODING 8531
SWIDTH 888 0
DWIDTH 16 0
BBX 15 13 0 0
BITMAP
3018
5010
9030
1060
1040
1080
7D9C
0326
0206
060C
0C06
0826
183C
ENDCHAR
STARTCHAR 2154
ENCODING 8532
SWIDTH 833 0
DWIDTH 15 0
BBX 15 13 0 0
BITMAP
7818
C830
0C20
1840
30C0
6180
7D3C
0364
0604
0418
0C04
1826
307C
ENDCHAR
STARTCHAR 2155
ENCODING 8533
SWIDTH 888 0
DWIDTH 16 0
BBX 15 13 0 0
BITMAP
3018
5010
9030
1060
1040
1080
7DBE
0320
022C
0636
0C02
0826
181C
ENDCHAR
STARTCHAR 2156
ENCODING 8534
SWIDTH 833 0
DWIDTH 15 0
BBX 15 13 0 0
BITMAP
7818
C830
0C20
1840
30C0
6180
7D3C
0320
063C
0426
0C06
1826
303C
ENDCHAR
STARTCHAR 2157
ENCODING 8535
SWIDTH 833 0
DWIDTH 15 0
BBX 15 13 0 0
BITMAP
7818
C830
0820
3060
08C0
4C80
F93C
0320
063C
0426
0C06
1826
303C
ENDCHAR
STARTCHAR 2158
ENCODING 8536
SWIDTH 888 0
DWIDTH 16 0
BBX 15 13 0 0
BITMAP
1818
2830
2820
4860
C8C0
FC80
09BE
0320
023C
0426
0C06
1826
301C
ENDCHAR
STARTCHAR 2159
ENCODING 8537
SWIDTH 833 0
DWIDTH 15 0
BBX 15 13 0 0
BITMAP
3018
5010
9030
1060
1040
1080
7D9C
0330
0220
063C
0C66
0826
183C
ENDCHAR
STARTCHAR 215A
ENCODING 8538
SWIDTH 833 0
DWIDTH 15 0
BBX 14 13 1 0
BITMAP
F030
8060
F040
98C0
1980
9900
F338
0660
0440
08F8
18CC
30C8
6078
ENDCHAR
STARTCHAR 215B
ENCODING 8539
SWIDTH 888 0
DWIDTH 16 0
BBX 15 13 0 0
BITMAP
3018
5010
9030
1060
1040
1080
7D9C
0332
0232
061C
0C32
0832
181E
ENDCHAR
STARTCHAR 215C
ENCODING 8540
SWIDTH 888 0
DWIDTH 16 0
BBX 15 13 0 0
BITMAP
7818
C830
0820
3060
08C0
4C80
F91C
0326
0626
041C
0C26
1826
303C
ENDCHAR
STARTCHAR 215D
ENCODING 8541
SWIDTH 888 0
DWIDTH 16 0
BBX 14 13 1 0
BITMAP
F030
8060
F040
98C0
1980
9900
F338
064C
044C
0838
1844
3044
6038
ENDCHAR
STARTCHAR 215E
ENCODING 8542
SWIDTH 833 0
DWIDTH 15 0
BBX 14 13 0 0
BITMAP
F830
C820
1860
18C0
1080
3180
233C
0264
0464
0C38
1864
1064
303C
ENDCHAR
STARTCHAR 2190
ENCODING 8592
SWIDTH 833 0
DWIDTH 15 0
BBX 13 8 1 2
BITMAP
0800
1800
3000
7FF8
FFF8
3000
1800
0800
ENDCHAR
STARTCHAR 2191
ENCODING 8593
SWIDTH 833 0
DWIDTH 15 0
BBX 8 13 4 0
BITMAP
10
38
7C
D6
9B
18
18
18
18
18
18
18
18
ENDCHAR
STARTCHAR 2192
ENCODING 8594
SWIDTH 833 0
DWIDTH 15 0
BBX 13 8 1 2
BITMAP
00C0
0060
0030
FFF8
FFF8
0030
0060
00C0
ENDCHAR
STARTCHAR 2193
ENCODING 8595
SWIDTH 833 0
DWIDTH 15 0
BBX 8 13 4 0
BITMAP
18
18
18
18
18
18
18
18
9A
D7
7C
38
10
ENDCHAR
STARTCHAR 2194
ENCODING 8596
SWIDTH 833 0
DWIDTH 15 0
BBX 13 8 1 2
BITMAP
0840
18E0
3030
7FF8
FFF8
3030
1860
08C0
ENDCHAR
STARTCHAR 2195
ENCODING 8597
SWIDTH 833 0
DWIDTH 15 0
BBX 8 13 4 0
BITMAP
10
38
7C
D6
9B
18
18
18
9A
D7
7C
38
10
ENDCHAR
STARTCHAR 2196
ENCODING 8598
SWIDTH 833 0
DWIDTH 15 0
BBX 10 10 3 1
BITMAP
FC00
FC00
E000
F000
D800
CC00
0600
0300
0180
00C0
ENDCHAR
STARTCHAR 2197
ENCODING 8599
SWIDTH 833 0
DWIDTH 15 0
BBX 9 10 3 1
BITMAP
0F80
0F80
0380
0680
0C80
1880
3000
6000
C000
8000
ENDCHAR
STARTCHAR 2198
ENCODING 8600
SWIDTH 833 0
DWIDTH 15 0
BBX 9 10 3 2
BITMAP
8000
C000
6000
3000
1880
0C80
0680
0380
0F80
0F80
ENDCHAR
STARTCHAR 2199
ENCODING 8601
SWIDTH 833 0
DWIDTH 15 0
BBX 10 10 3 2
BITMAP
0080
01C0
0300
0600
CC00
D800
F000
E000
FC00
FC00
ENDCHAR
STARTCHAR 21A9
ENCODING 8617
SWIDTH 833 0
DWIDTH 15 0
BBX 13 10 1 1
BITMAP
0060
0010
0818
1818
3018
7FF0
FFE0
3000
1800
0800
ENDCHAR
STARTCHAR 21AA
ENCODING 8618
SWIDTH 833 0
DWIDTH 15 0
BBX 13 10 1 1
BITMAP
3000
6000
C0C0
C060
E030
7FF8
3FF8
0030
0060
00C0
ENDCHAR
STARTCHAR 21B0
ENCODING 8624
SWIDTH 833 0
DWIDTH 15 0
BBX 9 13 3 0
BITMAP
1000
3800
6000
FF80
FF80
6180
3180
1980
0180
0180
0180
0180
0180
ENDCHAR
STARTCHAR 21B1
ENCODING 8625
SWIDTH 833 0
DWIDTH 15 0
BBX 10 13 3 0
BITMAP
0400
0600
0300
FF80
FFC0
C300
C600
C400
C000
C000
C000
C000
C000
ENDCHAR
STARTCHAR 21B2
ENCODING 8626
SWIDTH 833 0
DWIDTH 15 0
BBX 9 13 3 0
BITMAP
0180
0180
0180
0180
0180
1180
3980
6180
FF80
FF80
6000
3000
1800
ENDCHAR
STARTCHAR 21B3
ENCODING 8627
SWIDTH 833 0
DWIDTH 15 0
BBX 10 13 3 0
BITMAP
C000
C000
C000
C000
C000
C400
C600
C300
FF80
FFC0
0300
0600
0400
ENDCHAR
STARTCHAR 21B6
ENCODING 8630
SWIDTH 833 0
DWIDTH 15 0
BBX 15 11 0 1
BITMAP
01F0
07F8
0E1C
0C06
0806
1806
5A00
EB00
3E00
1C00
0800
ENDCHAR
STARTCHAR 21B7
ENCODING 8631
SWIDTH 833 0
DWIDTH 15 0
BBX 15 11 0 1
BITMAP
0F80
3FC0
70E0
6060
C030
C030
0134
01BE
00FC
0078
0010
ENDCHAR
STARTCHAR 21BA
ENCODING 8634
SWIDTH 833 0
DWIDTH 15 0
BBX 12 13 2 0
BITMAP
07E0
07E0
2780
76C0
C660
C620
8030
8030
C030
C060
70E0
3FC0
0F00
ENDCHAR
STARTCHAR 21BB
ENCODING 8635
SWIDTH 833 0
DWIDTH 15 0
BBX 12 13 2 0
BITMAP
FC00
FC00
1CC0
2C60
4C60
CC30
8030
8030
C020
C060
60C0
3F80
1F00
ENDCHAR
STARTCHAR 21C4
ENCODING 8644
SWIDTH 833 0
DWIDTH 15 0
BBX 13 14 1 -1
BITMAP
00C0
0060
0030
FFF8
FFF8
0030
0860
18C0
3000
7FF8
FFF8
3000
1800
0800
ENDCHAR
STARTCHAR 21C6
ENCODING 8646
SWIDTH 833 0
DWIDTH 15 0
BBX 13 14 1 -1
BITMAP
0800
1800
3000
7FF8
FFF8
3000
18C0
0860
0030
FFF8
FFF8
0030
0060
00C0
ENDCHAR
STARTCHAR 2202
ENCODING 8706
SWIDTH 611 0
DWIDTH 11 0
BBX 9 13 1 0
BITMAP
7800
1C00
0E00
0700
3B00
7F00
E380
C380
C180
C300
E300
7F00
3C00
ENDCHAR
STARTCHAR 2206
ENCODING 8710
SWIDTH 666 0
DWIDTH 12 0
BBX 10 13 1 0
BITMAP
1C00
1E00
1E00
3600
3300
3300
6300
6180
6180
C180
C0C0
FFC0
FFC0
ENDCHAR
STARTCHAR 220F
ENCODING 8719
SWIDTH 722 0
DWIDTH 13 0
BBX 11 17 1 -4
BITMAP
FFE0
FFE0
60C0
60C0
60C0
60C0
60C0
60C0
60C0
60C0
60C0
60C0
60C0
60C0
60C0
60C0
60C0
ENDCHAR
STARTCHAR 2211
ENCODING 8721
SWIDTH 500 0
DWIDTH 9 0
BBX 8 17 1 -4
BITMAP
FF
FF
C0
60
60
30
18
18
0C
18
18
30
60
60
C0
FF
FF
ENDCHAR
STARTCHAR 2212
ENCODING 8722
SWIDTH 611 0
DWIDTH 11 0
BBX 9 2 1 5
BITMAP
FF80
FF80
ENDCHAR
STARTCHAR 2215
ENCODING 8725
SWIDTH 166 0
DWIDTH 3 0
BBX 11 13 -4 0
BITMAP
0060
00C0
0180
0100
0300
0600
0400
0800
1800
3000
2000
6000
C000
ENDCHAR
STARTCHAR 221A
ENCODING 8730
SWIDTH 611 0
DWIDTH 11 0
BBX 10 13 0 0
BITMAP
00C0
00C0
00C0
0080
F180
F180
3180
3100
1B00
1B00
1A00
0E00
0E00
ENDCHAR
STARTCHAR 221E
ENCODING 8734
SWIDTH 777 0
DWIDTH 14 0
BBX 13 7 0 2
BITMAP
3C70
7EF8
C718
C308
C518
7DF8
38F0
ENDCHAR
STARTCHAR 222B
ENCODING 8747
SWIDTH 444 0
DWIDTH 8 0
BBX 6 17 1 -4
BITMAP
1C
3C
30
30
30
30
30
30
30
30
30
30
30
30
30
F0
E0
ENDCHAR
STARTCHAR 2248
ENCODING 8776
SWIDTH 611 0
DWIDTH 11 0
BBX 9 7 1 2
BITMAP
7900
FF80
8F00
0000
7900
FF80
8F00
ENDCHAR
STARTCHAR 2260
ENCODING 8800
SWIDTH 611 0
DWIDTH 11 0
BBX 9 9 1 1
BITMAP
0300
0600
FF80
FF80
0800
FF80
FF80
3000
6000
ENDCHAR
STARTCHAR 2264
ENCODING 8804
SWIDTH 611 0
DWIDTH 11 0
BBX 7 11 2 0
BITMAP
02
0E
78
E0
E0
78
0E
02
00
FE
FE
ENDCHAR
STARTCHAR 2265
ENCODING 8805
SWIDTH 611 0
DWIDTH 11 0
BBX 7 11 2 0
BITMAP
80
E0
78
0E
0E
78
E0
80
00
FE
FE
ENDCHAR
STARTCHAR 25CA
ENCODING 9674
SWIDTH 611 0
DWIDTH 11 0
BBX 9 13 1 0
BITMAP
1800
1C00
3600
2600
6300
C300
C180
C300
6300
2600
3600
1C00
1800
ENDCHAR
STARTCHAR 2713
ENCODING 10003
SWIDTH 888 0
DWIDTH 16 0
BBX 12 13 2 0
BITMAP
0030
0030
0060
0060
40C0
E0C0
61C0
7180
3180
3300
1B00
1E00
0E00
ENDCHAR
STARTCHAR 274C
ENCODING 10060
SWIDTH 888 0
DWIDTH 16 0
BBX 12 13 2 0
BITMAP
4010
E030
7060
38C0
1D80
0F80
0700
0F80
1D80
38C0
7060
E030
4010
ENDCHAR
STARTCHAR 2B0E
ENCODING 11022
SWIDTH 833 0
DWIDTH 15 0
BBX 13 9 1 2
BITMAP
FFC0
FFC0
00C0
00C0
04D0
07F8
03F0
01E0
0040
ENDCHAR
STARTCHAR 2B0F
ENCODING 11023
SWIDTH 833 0
DWIDTH 15 0
BBX 13 9 1 2
BITMAP
0040
01E0
03F0
07F8
04D0
00C0
00C0
FFC0
FFC0
ENDCHAR
STARTCHAR 2B10
ENCODING 11024
SWIDTH 833 0
DWIDTH 15 0
BBX 13 9 1 2
BITMAP
1FF8
1FF8
1800
1800
5A00
FB00
3E00
1C00
0800
ENDCHAR
STARTCHAR 2B11
ENCODING 11025
SWIDTH 833 0
DWIDTH 15 0
BBX 13 9 1 2
BITMAP
0800
1C00
3E00
7B00
DA00
1800
1800
1FF8
1FF8
ENDCHAR
STARTCHAR ECE0
ENCODING 60640
SWIDTH 1166 0
DWIDTH 21 0
BBX 18 13 1 0
BITMAP
0E01C0
1E03C0
380700
600C00
E00800
C01F80
C01F80
C01800
E00C00
600E00
380700
1E03C0
0E01C0
ENDCHAR
STARTCHAR EFCC
ENCODING 61388
SWIDTH 1055 0
DWIDTH 19 0
BBX 16 13 2 0
BITMAP
FCF8
C306
C673
C488
CD90
C900
F900
C900
CD90
C488
C672
C307
80F8
ENDCHAR
STARTCHAR F6D7
ENCODING 63191
SWIDTH 0 0
DWIDTH 0 0
BBX 6 6 -3 10
BITMAP
18
18
30
20
CC
CC
ENDCHAR
STARTCHAR F6D8
ENCODING 63192
SWIDTH 0 0
DWIDTH 0 0
BBX 6 6 -3 10
BITMAP
60
60
30
20
CC
CC
ENDCHAR
STARTCHAR FB01
ENCODING 64257
SWIDTH 611 0
DWIDTH 11 0
BBX 10 13 0 0
BITMAP
1DC0
3DC0
3000
3000
FF80
FF80
3180
3180
3180
3180
3180
3180
3180
ENDCHAR
STARTCHAR FB02
ENCODING 64258
SWIDTH 611 0
DWIDTH 11 0
BBX 11 13 0 0
BITMAP
1C80
3C80
3080
3080
FC80
FC80
3080
3080
3080
3080
3080
30E0
30E0
ENDCHAR
ENDFONT
